<svg xmlns="http://www.w3.org/2000/svg" viewBox="0 0 512 512" width="256" height="256">
  <rect width="512" height="512" fill="transparent" rx="15%"/>
  <radialGradient id="a" cx=".6" cy=".5">
    <stop offset=".8" stop-color="#114488"/>
    <stop offset="1" stop-color="#113377"/>
  </radialGradient>
  <radialGradient id="b" cx=".5" cy=".6" fx=".2" fy=".6">
    <stop offset=".8" stop-color="#3388cc"/>
    <stop offset="1" stop-color="#226699"/>
  </radialGradient>
  <linearGradient id="c" y1=".5" y2="1">
    <stop offset=".1" stop-color="#55aadd"/>
    <stop offset=".6" stop-color="#55cc88"/>
    <stop offset=".8" stop-color="#77dd55"/>
  </linearGradient>
  <path fill="url(#a)" d="M439 374c-50 77-131 98-163 96-191-9-162-262-47-261-82 52 30 224 195 157 17-12 20 3 15 8"/>
  <path fill="url(#b)" d="M311 255c18-82-31-135-129-135S38 212 38 259c0 124 125 253 287 203-134 39-214-116-146-210 46-66 123-68 132 3 M411 99h1"/>
  <path fill="url(#c)" d="M39 253C51-15 419-30 472 202c14 107-86 149-166 115-42-26 26-20-3-99-48-112-251-103-264 35"/>
</svg>
