<svg xmlns="http://www.w3.org/2000/svg" enable-background="new 0 0 180 180" viewBox="12.69000244140625 12.69000244140625 154.6199951171875 154.6199951171875" width="100" height="100"><circle cx="90" cy="90" r="77.31" fill="#c67d32" class="colorc67d32 svgShape"/><path fill="#a95e4b" d="M116.57,146.34c-12.53,0.44-21.34,21.1-27.22,20.02c-13.52-2.5-14-27.77-26.26-20.02		c17.59-11.12,22.16-22.69,13.37-33.81c8.79,11.12,18.43,3.19,26.74,0C94.41,123.65,98.98,135.22,116.57,146.34z" class="colora95e4b svgShape"/><path fill="#b6715f" d="M122.12,79.52c0,19.9-17.69,40.97-32.72,40.97c-14.99,0-32.72-21.07-32.72-40.97V59.5
		c0-19.9,14.73-36.18,32.72-36.18s32.72,16.28,32.72,36.18V79.52z" class="colorb6715f svgShape"/><path fill="#1c0405" d="M144.22,68.31c0.8-1.38,1.27-2.98,1.27-4.69c0-3.68-2.12-6.86-5.21-8.39c0.1-0.56,0.17-1.14,0.17-1.73
				c0-3.82-2.29-7.1-5.57-8.57c0.43-1.07,0.67-2.24,0.67-3.46c0-5.18-4.2-9.38-9.38-9.38c-0.4,0-0.79,0.03-1.18,0.08
				c-0.13-5.07-4.27-9.14-9.37-9.14c-1.52,0-2.94,0.37-4.21,1.01c-1.38-3.46-4.76-5.91-8.71-5.91c-1.99,0-3.83,0.62-5.34,1.67
				c-1.68-1.57-3.92-2.54-6.4-2.54c-3.37,0-6.31,1.78-7.97,4.45C81.91,21.25,80.74,21,79.51,21c-3.5,0-6.52,2.06-7.93,5.03
				c-1.16-0.56-2.46-0.88-3.84-0.88c-4.56,0-8.31,3.42-8.85,7.83c-0.5-0.09-1.02-0.13-1.55-0.13c-5.06,0-9.16,4.1-9.16,9.16
				c0,0.74,0.1,1.45,0.26,2.14c-3.99,0.69-7.02,4.15-7.02,8.34c0,1.1,0.21,2.15,0.59,3.11c-1.81,1.34-2.99,3.49-2.99,5.92
				c0,0.58,0.08,1.15,0.2,1.69c-2.6,1.13-4.43,3.73-4.43,6.75c0,1.37,0.38,2.64,1.03,3.74c-1.7,1.35-2.79,3.43-2.79,5.76
				c0,1.67,0.56,3.21,1.5,4.44c-1.97,1.32-3.26,3.57-3.26,6.11c0,2.16,0.94,4.09,2.42,5.44c-0.64,1.09-1.01,2.35-1.01,3.71
				c0,2.65,1.4,4.96,3.5,6.26c-0.21,0.69-0.33,1.43-0.33,2.19c0,3.21,2.05,5.93,4.91,6.94c-0.22,0.7-0.34,1.44-0.34,2.21
				c0,3.68,2.7,6.72,6.23,7.27c-0.16,0.6-0.25,1.23-0.25,1.88c0,4.07,3.3,7.36,7.36,7.36c0.43,0,0.85-0.04,1.27-0.12
				c0.74,3.29,3.67,5.75,7.18,5.75c0.03,0,0.06,0,0.09,0c0.79,2.25,2.64,3.98,4.95,4.64c11.67-8.48,15.85-17.18,12.37-25.7
				c-11.98-6.28-22.94-22.64-22.94-38.3V76.9c1.89-1.1,3.16-3.14,3.16-5.48c0-0.46-0.05-0.91-0.15-1.35
				c1.23-1.3,1.99-3.05,1.99-4.99c0-0.57-0.07-1.13-0.2-1.66c2.81-1,4.82-3.68,4.82-6.83c0-0.29-0.02-0.57-0.05-0.85
				c3.96-0.78,7.13-3.73,8.24-7.57c4.49-0.4,8.18-3.56,9.38-7.78c0.72,0.2,1.48,0.32,2.27,0.32c3.49,0,6.47-2.12,7.74-5.15
				c0.15-0.05,0.29-0.1,0.43-0.16c-0.01,0.19-0.03,0.38-0.03,0.57c0,4.13,3.35,7.48,7.48,7.48c1.16,0,2.25-0.27,3.23-0.74
				c0.68,3.21,3.53,5.62,6.95,5.62c0.65,0,1.27-0.09,1.86-0.26c-0.53,1.02-0.84,2.19-0.84,3.42c0,2.53,1.27,4.77,3.2,6.12
				c0.02,2.44,1.2,4.6,3.02,5.97c0.2,0.52,0.46,1.01,0.74,1.48c-0.19,0.54-0.32,1.12-0.32,1.73c0,1.38,0.54,2.62,1.42,3.56
				c-0.43,0.95-0.67,2.01-0.67,3.13c0,1.86,0.67,3.55,1.77,4.88v1.18c0,15.16-10.27,30.99-21.81,37.67
				c-3.37,7.47-0.86,15.08,7.43,22.56c0.64,0.17,1.3,0.27,1.99,0.27c2.99,0,5.58-1.71,6.86-4.19c0.88,0.35,1.85,0.55,2.85,0.55
				c3.9,0,7.11-2.89,7.63-6.64c3.51-0.72,6.14-3.82,6.14-7.54c0-0.6-0.08-1.19-0.21-1.75c2.43-1.7,4.02-4.51,4.02-7.7
				c0-0.92-0.14-1.8-0.38-2.64c2.95-1.58,4.96-4.69,4.96-8.27c0-1.71-0.47-3.31-1.27-4.69c0.8-1.38,1.27-2.98,1.27-4.69
				c0-0.79-0.11-1.56-0.29-2.29c2.51-1.68,4.16-4.55,4.16-7.8c0-1.71-0.47-3.31-1.27-4.69c0.8-1.38,1.27-2.98,1.27-4.69
				S145.02,69.69,144.22,68.31z" class="color1c0405 svgShape"/><ellipse cx="71.42" cy="88.42" fill="#c1654d" rx="4.59" ry="3.49" class="colorc1654d svgShape"/><ellipse cx="108.87" cy="88.42" fill="#c1654d" rx="4.59" ry="3.49" class="colorc1654d svgShape"/><path fill="#dcccc8" d="M81.62,78.95c-0.54,1.44-3.8,2.85-7.26,2.7c-2.73-0.12-8.12-2.24-9.14-3.55c2.28-1.19,6.97-3.11,9.63-3.04
					C77.63,75.12,82.07,77.76,81.62,78.95z" class="colordcccc8 svgShape"/><path fill="#1c0405" d="M65.93,77.28c0,0,8.5-6.45,14.75-0.28c0.95,1,1.02,2.01,0.95,1.95c-0.46-0.38-0.9-0.78-1.38-1.13
					c-0.5-0.36-1.06-0.6-1.62-0.83c-1.29-0.52-2.68-0.88-4.08-0.88c-2.33,0-7.54,1.3-9.31,1.99C64.77,78.28,65.93,77.28,65.93,77.28
					z" class="color1c0405 svgShape"/><circle cx="74.81" cy="78.48" r="3.21" fill="#1c0405" class="color1c0405 svgShape"/><path fill="#dcccc8" d="M97.4,78.52c0.54,1.44,3.8,2.85,7.26,2.7c2.73-0.12,8.12-2.24,9.14-3.55c-2.28-1.19-6.97-3.11-9.63-3.04
					C101.39,74.69,96.95,77.33,97.4,78.52z" class="colordcccc8 svgShape"/><path fill="#1c0405" d="M113.09,76.85c0,0-8.5-6.45-14.75-0.28c-0.95,1-1.02,2.01-0.95,1.95c0.46-0.38,0.9-0.78,1.38-1.13
					c0.5-0.36,1.06-0.6,1.62-0.83c1.29-0.52,2.68-0.88,4.08-0.88c2.33,0,7.54,1.3,9.31,1.99C114.25,77.85,113.09,76.85,113.09,76.85
					z" class="color1c0405 svgShape"/><circle cx="104.21" cy="78.04" r="3.21" fill="#1c0405" class="color1c0405 svgShape"/><path fill="#1c0405" d="M84.03 72.3c0 0-5-3.05-9.7-2.89-4.93.16-7.82.56-10.01 1.8.23.05 2.11-3.44 9.7-3.91 5.53-.34 10.2 2.86 10.71 3.6C85.1 71.42 84.93 72.12 84.03 72.3zM94.99 71.86c0 0 5-3.05 9.7-2.89 4.93.16 7.82.56 10.01 1.8-.23.05-2.11-3.44-9.7-3.91-5.53-.34-10.2 2.86-10.71 3.6C93.92 70.98 94.09 71.69 94.99 71.86z" class="color1c0405 svgShape"/><path fill="#ae6a59" d="M121.36,83.03c-0.35,4.65-1.57,8.81,0.87,9.09c3.05,0.35,7.7-4.57,8.05-9.22c0.35-4.65-1.37-8.39-3.83-8.35
					C123.99,74.59,121.71,78.38,121.36,83.03z" class="colorae6a59 svgShape"/><path fill="none" stroke="#804639" stroke-miterlimit="10" stroke-width=".54" d="M122.13 80.62c0 0 3.55-5.94 6.9.38M123.28 79.57c0 0 3.45 2.59 3.93 7.86" class="colorStroke804639 svgStroke"/><path fill="#ae6a59" d="M57.34,83.03c0.35,4.65,1.57,8.81-0.87,9.09c-3.05,0.35-7.7-4.57-8.05-9.22c-0.35-4.65,1.37-8.39,3.83-8.35
					C54.71,74.59,56.99,78.38,57.34,83.03z" class="colorae6a59 svgShape"/><path fill="none" stroke="#804639" stroke-miterlimit="10" stroke-width=".54" d="M56.57 80.62c0 0-3.55-5.94-6.9.38M55.42 79.57c0 0-3.45 2.59-3.93 7.86" class="colorStroke804639 svgStroke"/><g fill="#000000" class="color000 svgShape"><path fill="#a95e4b" d="M120.78,142.37c0,0,9.2,7.07,9.34,12.23c0.03,0.99-1.84,2.68-5.18,4.5" class="colora95e4b svgShape"/><path fill="#833c7b" d="M120.78,142.37c0,0-8.56-5.85-14.78-7.14c-0.51-0.11-1.15,0.11-1.69,0.61c0,0-5.19,4.04-14.35,4.04
					c-7.28,0-12.06-2.69-13.73-3.8c-0.64-0.74-1.25-1.12-1.82-1.01c-6.56,1.28-15.79,7.54-15.79,7.54l-2.17,17.61
					c6.61,3.25,17.47,6.54,30.65,6.89c0,0,1.45,0.05,2.97,0.03c1.55-0.01,3.32-0.09,3.32-0.09c13.85-0.65,25.29-4.53,31.55-7.94
					L120.78,142.37z" class="color833c7b svgShape"/><path fill="#a95e4b" d="M58.62,142.61c0,0-9.1,6.84-9.14,12c-0.01,1.25,2.51,3.43,6.97,5.62" class="colora95e4b svgShape"/></g><polyline fill="none" stroke="#804639" stroke-miterlimit="10" stroke-width=".72" points="93.3 69.6 90.61 73.82 90.96 91.59 96.04 90.36 95.16 94.93 91.99 96.16"/><g fill="#000000" class="color000 svgShape"><line x1="80.66" x2="79.3" y1="101.49" y2="102.97" fill="none" stroke="#1c0405" stroke-linecap="round" stroke-linejoin="round" stroke-miterlimit="10" stroke-width=".9" class="colorStroke1c0405 svgStroke"/><line x1="98.46" x2="99.82" y1="101.49" y2="102.97" fill="none" stroke="#1c0405" stroke-linecap="round" stroke-linejoin="round" stroke-miterlimit="10" stroke-width=".9" class="colorStroke1c0405 svgStroke"/><path fill="none" stroke="#1c0405" stroke-linecap="round" stroke-linejoin="round" stroke-miterlimit="10" stroke-width=".9" d="M99.03,102.21c-1.66,1.77-5.32,3-9.56,3c-4.05,0-7.57-1.12-9.33-2.77" class="colorStroke1c0405 svgStroke"/></g></svg>