<svg xmlns="http://www.w3.org/2000/svg" xmlns:xlink="http://www.w3.org/1999/xlink" enable-background="new 0 0 72 72" viewBox="0 0 72 72" width="100" height="100">
  <path fill="#b3747f" d="M71,36.055c0,19.277-15.6251,35-35,35c-19.3618,0-35-15.7101-35-35c0-19.33,15.6699-35,35-35
		C55.33,1.055,71,16.7251,71,36.055z" class="colorB3747F svgShape"/>
  <defs>
    <path id="a" d="M71,35.945c0,19.277-15.6251,35-35,35c-19.3618,0-35-15.7101-35-35c0-19.33,15.6699-35,35-35
				C55.33,0.945,71,16.615,71,35.945z" fill="#000000" class="color000 svgShape"/>
  </defs>
  <clipPath id="b">
    <use overflow="visible" xlink:href="#a"/>
  </clipPath>
  <g clip-path="url(#b)" fill="#000000" class="color000 svgShape">
    <path fill="#ced7dc" d="M66.2012,71.055H5.633c0-8.8974,6.1827-16.5871,14.8634-18.507
				c2.0127-0.4438,4.0461-0.7948,6.0898-1.0632c3.0965-0.4128,6.2137-0.6193,9.3309-0.6193c3.1171,0,6.2343,0.2064,9.3309,0.6193
				c2.0334,0.2684,4.0668,0.6193,6.0795,1.0632h0.0103C60.0185,54.4679,66.2012,62.1576,66.2012,71.055z" class="colorCED7DC svgShape"/>
    <path fill="#5f566a" d="M45.2583,51.8152c0,5.1609-4.1803,9.3412-9.3412,9.3412s-9.3413-4.1803-9.3413-9.3412
				c0-0.1135,0-0.2167,0.0103-0.3303c3.0965-0.4128,6.2137-0.6193,9.3309-0.6193c3.1171,0,6.2343,0.2064,9.3309,0.6193
				C45.2583,51.5985,45.2583,51.7017,45.2583,51.8152z" class="color5F566A svgShape"/>
    <path fill="#f8a771" d="M42.5155,41.3298v9.4982c0,3.877-2.8655,7.0186-6.4019,7.0186h-0.3929
				c-3.5364,0-6.402-3.1415-6.402-7.0186v-9.4982H42.5155z" class="colorF8A771 svgShape"/>
    <ellipse cx="35.917" cy="30.392" fill="#fab687" rx="14.951" ry="19.048" class="colorFAB687 svgShape"/>
    <circle cx="31.231" cy="31.741" r="1.62" fill="#3d2f46" class="color3D2F46 svgShape"/>
    <circle cx="40.603" cy="31.741" r="1.62" fill="#3d2f46" class="color3D2F46 svgShape"/>
    <path fill="#3d2f46" d="M32.5652 27.4343l-.0162-.083c-.0813-.415-.4836-.6855-.8987-.6042l-3.3745.6611c-.415.0814-.6855.4836-.6042.8987l.0162.0829c.0813.415.4836.6855.8987.6042l3.3745-.6611C32.376 28.2516 32.6465 27.8493 32.5652 27.4343zM43.5583 27.4081l-3.3745-.6611c-.415-.0813-.8173.1893-.8986.6042l-.0162.083c-.0813.415.1892.8173.6042.8986l3.3745.6611c.415.0813.8174-.1892.8987-.6042l.0162-.0829C44.2439 27.8918 43.9733 27.4895 43.5583 27.4081z" class="color3D2F46 svgShape"/>
    <path fill="#3d2f46" d="M53.8893,29.2975c-0.1731,1.1153-0.4807,2.1825-0.8845,3.192h-4.3553
				c-0.1827-0.4039-0.3462-0.798-0.4423-1.2114c-0.0481-0.1923-0.0769-0.3942-0.0866-0.5961
				c-0.0673-0.9326,0.8653-1.6825,1.0096-2.6729c0.5768-3.7785-2.0287-7.307-5.8168-7.8743
				c-0.5768-0.0961-1.1537-0.1057-1.721-0.0481v0.0096c-0.3557,0.0384-0.7018,0.1057-1.048,0.1827
				c-0.0096,0.0096-0.0096,0.0096-0.0192,0c-0.1635,0.0481-0.3269,0.0961-0.4807,0.1538c-0.1731,0.0577-0.3269,0.1154-0.4903,0.1827
				c-1.7595,0.7596-3.7401,0.4903-5.4226-0.4134c-0.6538-0.3461-1.4037-0.5961-2.1825-0.7211
				c-3.7689-0.5768-7.307,2.0383-7.8838,5.8168c-0.2115,1.4037,0.673,2.644,0.5865,3.9516
				c-0.0866,1.1056-0.7403,2.1248-1.2884,3.2401h-3.192c-0.0384-0.4423-0.0672-0.9038-0.0481-1.3749
				c-0.8749-2.1056-1.3652-4.4515-1.3652-6.9225c0-6.1148,2.9805-11.4701,7.432-14.4218c2.9902-2.1248,6.7782-3.144,10.6913-2.5479
				c4.9515,0.7596,8.9415,3.9131,10.9702,8.0858C52.2261,18.3273,54.7354,23.6826,53.8893,29.2975z" class="color3D2F46 svgShape"/>
    <path fill="#fab687" d="M50.8685 28.792c-1.7034 0-3.2331 1.811-3.4117 3.9833-.1732 2.1071.9968 3.7693 2.6086 3.7693 1.6119 0 3.1262-1.6622 3.3895-3.7693C53.7265 30.6029 52.5719 28.792 50.8685 28.792zM20.9657 28.792c-1.7034 0-2.8579 1.811-2.5865 3.9833.2633 2.1071 1.7776 3.7693 3.3895 3.7693 1.6118 0 2.7819-1.6622 2.6086-3.7693C24.1987 30.6029 22.669 28.792 20.9657 28.792z" class="colorFAB687 svgShape"/>
    <path fill="#663430" d="M40.612,39.8881c-0.0624,1.0879-0.5261,2.0599-1.2306,2.7911
						c-0.0178,0.0089-0.0267,0.0178-0.0446,0.0356c-0.0891,0.0892-0.1784,0.1784-0.2854,0.2586
						c-0.1605,0.1427-0.3299,0.2675-0.5172,0.3834c-0.0446,0.0356-0.0981,0.0714-0.1516,0.0981
						c-0.5885,0.3567-1.2662,0.5796-1.9974,0.6509c-0.1427,0.0089-0.3121,0.0179-0.4637,0.0179
						c-0.2229,0-0.4459-0.0179-0.6599-0.0356c-0.2051-0.0357-0.4013-0.0803-0.5885-0.1338c-0.0178,0-0.0268-0.0089-0.0446-0.0089
						c-0.0357-0.0089-0.0714-0.0267-0.1071-0.0356c-0.3745-0.107-0.7312-0.2586-1.0611-0.4548
						c-0.0536-0.0267-0.0981-0.0624-0.1516-0.0981c-1.1859-0.7312-1.9974-1.9974-2.0866-3.4688H40.612z" class="color663430 svgShape"/>
    <path fill="#ef4f63" d="M38.5343,43.3569c-0.0446,0.0356-0.0981,0.0714-0.1516,0.0981
					c-0.5885,0.3567-1.2662,0.5796-1.9974,0.6509c-0.1427,0.0089-0.3121,0.0179-0.4637,0.0179
					c-0.2229,0-0.4459-0.0179-0.6599-0.0356c-0.2051-0.0357-0.4013-0.0803-0.5885-0.1338c-0.0178,0-0.0268-0.0089-0.0446-0.0089
					c-0.0357-0.0089-0.0714-0.0267-0.1071-0.0356c-0.3745-0.107-0.7312-0.2586-1.0611-0.4548
					c-0.0536-0.0267-0.0981-0.0624-0.1516-0.0981c0.6242-0.8293,1.5605-1.3554,2.6127-1.3554S37.9101,42.5276,38.5343,43.3569z" class="colorEF4F63 svgShape"/>
    <g fill="#000000" class="color000 svgShape">
      <path fill="#3d2f46" d="M48.3037,41.0676c-0.0674,0.1347-0.1443,0.2598-0.2117,0.3944c-0.1443,0.2405-0.279,0.481-0.4233,0.7215
					c-0.5291,0.8659-1.3084,1.8857-2.078,2.7996c-1.7991,2.1743-4.0792,3.9253-6.6864,4.9931
					c-0.0977,0.0391-0.2328,0.0817-0.3925,0.1262c-1.6973,0.473-3.5008,0.4738-5.1973-0.002
					c-0.1561-0.0438-0.2884-0.0857-0.3846-0.1242c-2.6169-1.0679-4.8969-2.8189-6.696-4.9931
					c-0.76-0.914-1.5489-1.9338-2.078-2.7996c-0.1347-0.2405-0.279-0.481-0.4233-0.7215c-0.0674-0.1346-0.1347-0.2597-0.2021-0.3944
					c1.9915,2.8285,6.2342,5.4838,8.0621,6.5517c0.5388,0.3079,1.1833,0.3944,1.7894,0.2309h0.0096
					c0.4714-0.1347,0.6831-0.6735,0.4233-1.0871l-0.3463-0.5484c-0.2309-0.3656,0.0288-0.8562,0.4714-0.8562h3.9445
					c0.4426,0,0.7119,0.4906,0.4714,0.8562l-0.3463,0.5484c-0.2598,0.4137-0.0481,0.9524,0.4233,1.0871h0.0096
					c0.6061,0.1635,1.2507,0.077,1.7991-0.2309C42.0695,46.5514,46.3122,43.8961,48.3037,41.0676z" class="color3D2F46 svgShape"/>
    </g>
  </g>
</svg>
