<svg xmlns="http://www.w3.org/2000/svg" xmlns:xlink="http://www.w3.org/1999/xlink" enable-background="new 0 0 72 72" viewBox="0 0 72 72" width="100" height="100">
  <path fill="#6774b6" d="M71,36c0,19.2839-15.6113,35-35,35C16.4346,71,1,55.1044,1,36C1,16.67,16.67,1,36,1S71,16.67,71,36z" class="color6774B6 svgShape"/>
  <defs>
    <path id="a" d="M71,36c0,19.3361-15.6679,35-35,35C16.6444,71,1,55.3142,1,36C1,16.67,16.67,1,36,1S71,16.67,71,36z" fill="#000000" class="color000 svgShape"/>
  </defs>
  <clipPath id="b">
    <use overflow="visible" xlink:href="#a"/>
  </clipPath>
  <g clip-path="url(#b)" fill="#000000" class="color000 svgShape">
    <path fill="#fbba6d" d="M64.1395,71H7.8605l2.8387-11.1674c1.5182-5.1363,6.8826-8.8967,12.2813-9.1707
						c0.0409,0,0.8525-0.007,2.187,0h3.7351c0.5078,0,1.0406-0.007,1.589,0c3.4567-0.007,7.5519-0.007,11.0086,0
						c0.5484-0.007,1.0812,0,1.5972,0h3.7269c1.3344-0.007,2.1542,0,2.1952,0c5.4151,0.274,10.7561,4.0419,12.2549,9.1707
						L64.1395,71z" class="colorFBBA6D svgShape"/>
    <path fill="#dd6e26" d="M34.3496 71h-3.4155l-7.6008-10.5167 3.7103-2.2278-3.4155-1.8838c2.2442-2.3261 3.6858-4.2509 5.2747-5.7089.7945-.7371 1.6299-1.3596 2.621-1.8429-.0901.1065-.1802.2212-.2621.3358-.3358.4587-.5979.9747-.7699 1.507-.3522 1.0648-.3931 2.2279-.1311 3.3418L34.3496 71zM48.6586 60.4832L41.0577 71h-3.4155l3.9888-16.9955c.2621-1.1139.2294-2.277-.131-3.3418-.172-.5324-.4341-1.0402-.7699-1.507-.0819-.1147-.172-.2294-.2621-.3358.9911.4915 1.8265 1.1058 2.6292 1.8429 1.589 1.458 3.0305 3.3909 5.2665 5.7089l-3.4155 1.8838L48.6586 60.4832z" class="colorDD6E26 svgShape"/>
    <path fill="#d2dbe0" d="M41.631,54.0045L37.6422,71h-3.2926l-3.9889-16.9955c-0.2621-1.1139-0.2211-2.277,0.1311-3.3418
								c0.172-0.5324,0.4341-1.0484,0.7699-1.507c0.0819-0.1147,0.172-0.2294,0.2621-0.3358
								c1.5316-0.7453,3.0223-1.073,4.472-0.8354c1.458-0.2376,2.9404,0.0901,4.4721,0.8354
								c0.0901,0.1065,0.1802,0.2212,0.2621,0.3358c0.3358,0.4669,0.5979,0.9747,0.7699,1.507
								C41.8604,51.7276,41.8931,52.8906,41.631,54.0045z" class="colorD2DBE0 svgShape"/>
    <path fill="#fab687" d="M41.7831,42.9704v8.3246c0,3.398-2.5115,6.1514-5.6109,6.1514h-0.3444
					c-3.0994,0-5.611-2.7534-5.611-6.1514v-8.3246H41.7831z" class="colorFAB687 svgShape"/>
    <ellipse cx="36" cy="28.541" fill="#fab687" rx="12.508" ry="17.177" class="colorFAB687 svgShape"/>
    <circle cx="31.658" cy="32.914" r="1.501" fill="#3d2f46" class="color3D2F46 svgShape"/>
    <circle cx="40.342" cy="32.914" r="1.501" fill="#3d2f46" class="color3D2F46 svgShape"/>
    <path fill="#3d2f46" d="M32.8942 28.9229l-.0145-.0739c-.0755-.3854-.449-.6365-.8344-.561l-3.1234.6119c-.3854.0755-.6365.4491-.561.8344l.0145.0739c.0755.3854.449.6365.8344.561l3.1234-.6119C32.7185 29.6818 32.9697 29.3083 32.8942 28.9229zM43.0781 28.8999l-3.1234-.6119c-.3854-.0755-.7589.1757-.8344.561l-.0145.0739c-.0755.3854.1757.7589.561.8344l3.1234.6119c.3854.0755.7589-.1757.8344-.561l.0145-.0739C43.7147 29.349 43.4634 28.9754 43.0781 28.8999z" class="color3D2F46 svgShape"/>
    <path fill="#3d2f46" d="M53.3843,31.5446c-0.43,1.5548-1.8031,2.6068-3.404,2.7101c-1.9464,0.1255-1.5765-1.1001-1.887-2.8269
						l-1.4518-5.9255c-0.2157-1.2746-0.8205-2.4499-1.7305-3.3629l0,0c-1.1599-1.1638-2.7313-1.8174-4.3694-1.8174H31.46
						c-1.6382,0-3.2095,0.6536-4.3694,1.8174l0,0c-0.9099,0.913-1.5147,2.0883-1.7305,3.3629l-1.4518,5.9255
						c-0.2958,1.6454,0.0261,2.8357-1.6268,2.8357s-3.184-1.0503-3.6451-2.6519c-0.4437-1.5142-0.0174-2.9145,0.8961-3.8773
						c-0.6612-0.6914-1.0701-1.6367-1.0701-2.6782c0-1.6804,1.0614-3.1158,2.5577-3.6322
						c-0.4089-0.6127-0.6525-1.3566-0.6525-2.1531c0-1.7067,1.1049-3.1508,2.636-3.6585c-0.0363-0.3036-0.0557-0.6073-0.0352-0.9344
						c0.0675-1.0744,0.6427-2.0659,1.4974-2.7137c1.1459-0.8686,2.4118-0.9461,3.4183-0.6319
						c0.4611-1.6016,1.9313-2.7832,3.6712-2.7832c0.435,0,0.8526,0.0788,1.2354,0.2188C33.4779,7.7177,34.6523,7.0088,35.9921,7
						c0.0087,0,0.0087,0,0.0174,0c1.3398,0.0088,2.5142,0.7177,3.1928,1.768c0.3915-0.14,0.8091-0.2188,1.2353-0.2188
						c1.7486,0,3.2189,1.1816,3.6799,2.7832c1.0076-0.3146,2.2754-0.2365,3.4223,0.6349c0.2614,0.1986,0.4773,0.4562,0.6541,0.7337
						c0.8128,1.2755,0.9254,2.0934,0.7954,2.9113c1.5311,0.5076,2.636,1.9517,2.636,3.6585c0,0.7965-0.2436,1.5404-0.6525,2.1531
						c1.4964,0.5164,2.5664,1.9517,2.5664,3.6322c0,1.0415-0.4089,1.9868-1.0787,2.6782
						C53.3605,28.6828,53.796,30.0561,53.3843,31.5446z" class="color3D2F46 svgShape"/>
    <ellipse cx="49.036" cy="32.396" fill="#fab687" rx="2.689" ry="3.636" class="colorFAB687 svgShape"/>
    <ellipse cx="22.964" cy="32.396" fill="#fab687" rx="2.689" ry="3.636" class="colorFAB687 svgShape"/>
    <path fill="#3d2f46" d="M48.0176,32.9145v3.6734c0,6.6637-3.3314,12.7921-8.682,15.9486l0,0
					c-2.0599,1.2182-4.6197,1.2182-6.6796,0l0,0c-5.342-3.1565-8.6735-9.2849-8.6735-15.9486v-3.6734
					c1.4217,4.9958,4.8287,7.1202,10.221,6.3798c1.1904-0.1634,2.3942-0.1635,3.5846,0
					C43.1819,40.0348,46.5959,37.9104,48.0176,32.9145z" class="color3D2F46 svgShape"/>
    <path fill="#663430" d="M40.2573,42.3116c-0.07,1-0.48,1.8701-1.12,2.53l-0.04,0.03c-0.08,0.08-0.16,0.16-0.2599,0.24
						c-0.17,0.16-0.36,0.3-0.57,0.42c-0.54,0.33-1.17,0.54-1.85,0.61c-0.12,0-0.28,0.01-0.41,0.01c-0.21,0-0.4-0.01-0.6-0.03
						c-0.09-0.02-0.1801-0.04-0.27-0.0601c-0.1-0.0099-0.21-0.04-0.3-0.0699h-0.01c-0.03-0.01-0.06-0.02-0.09-0.03
						c-0.35-0.1-0.68-0.25-0.99-0.43c-1.13-0.67-1.92-1.84-2-3.22H40.2573z" class="color663430 svgShape"/>
    <path fill="#ee432c" d="M38.2673,45.5316c-0.54,0.33-1.17,0.54-1.85,0.61c-0.12,0-0.28,0.01-0.41,0.01c-0.21,0-0.4-0.01-0.6-0.03
				c-0.09-0.02-0.1801-0.04-0.27-0.0601c-0.1-0.0099-0.21-0.04-0.3-0.0699h-0.01c-0.03-0.01-0.06-0.02-0.09-0.03
				c-0.35-0.1-0.68-0.25-0.99-0.43c0.59-0.56,1.38-0.9,2.25-0.9S37.6773,44.9716,38.2673,45.5316z" class="colorEE432C svgShape"/>
    <path fill="#e2ebf1" d="M38.2673,42.3116v0.6757c0,0.21-0.17,0.39-0.38,0.39h-3.77c-0.21,0-0.38-0.18-0.38-0.39v-0.6757H38.2673z
				" class="colorE2EBF1 svgShape"/>
  </g>
</svg>
