<svg xmlns="http://www.w3.org/2000/svg" xmlns:xlink="http://www.w3.org/1999/xlink" enable-background="new 0 0 72 72" viewBox="0 0 72 72" width="100" height="100">
  <path fill="#64596b" d="M71,36c0,19.4164-15.7548,35-35,35C16.5727,71,1,55.2342,1,36C1,16.67,16.6702,1,36,1
		C55.3301,1,71,16.67,71,36z" class="color64596B svgShape"/>
  <defs>
    <path id="a" d="M71,36c0,19.2419-15.5793,35-35,35C16.6346,71,1,55.2977,1,36C1,16.67,16.6702,1,36,1
				C55.3301,1,71,16.67,71,36z" fill="#000000" class="color000 svgShape"/>
  </defs>
  <clipPath id="b">
    <use overflow="visible" xlink:href="#a"/>
  </clipPath>
  <g clip-path="url(#b)" fill="#000000" class="color000 svgShape">
    <path fill="#6ac9e8" d="M65.9949,71H5.9709c0-8.8171,6.1313-16.4405,14.7313-18.3396l0,0
				c10.0621-2.2162,20.4859-2.2171,30.5484-0.0028l0.013,0.0029C59.8636,54.5595,65.9949,62.1829,65.9949,71z" class="color6AC9E8 svgShape"/>
    <path fill="#ced7dc" d="M46.3228,53.1939v9.1083l-10.3399-3.3557l-10.3399,3.3557v-9.1083c0-2.7229,2.5034-4.9472,5.6162-4.9472
				h9.4256C43.7978,48.2467,46.3228,50.471,46.3228,53.1939z" class="colorCED7DC svgShape"/>
    <path fill="#f8a771" d="M42.5213,41.5461v9.4117c0,3.8418-2.8395,6.9547-6.3437,6.9547h-0.3893
				c-3.5042,0-6.3437-3.1129-6.3437-6.9547v-9.4117H42.5213z" class="colorF8A771 svgShape"/>
    <rect width="5.139" height="13.088" x="33.413" y="57.913" fill="#ced7dc" class="colorCED7DC svgShape"/>
    <circle cx="35.983" cy="62.252" r="1.254" fill="#000000" class="color000 svgShape"/>
    <circle cx="35.983" cy="67.864" r="1.254" fill="#000000" class="color000 svgShape"/>
    <path fill="#fab687" d="M47.0177,15.9409c-2.8331-3.4365-6.7299-5.564-11.0359-5.564c-4.3059,0-8.2028,2.1274-11.0358,5.564
				c-2.8434,3.457-4.6025,8.2232-4.6025,13.5008c0,1.3091,0.1125,2.5978,0.3171,3.8354
				c1.4626,8.6937,7.7629,15.2293,15.3213,15.2293c7.5584,0,13.8588-6.5356,15.3214-15.2293
				c0.2046-1.2376,0.3171-2.5263,0.3171-3.8354C51.6202,24.1641,49.861,19.3979,47.0177,15.9409z" class="colorFAB687 svgShape"/>
    <circle cx="30.808" cy="32.682" r="1.614" fill="#3d2f46" class="color3D2F46 svgShape"/>
    <circle cx="41.156" cy="32.682" r="1.614" fill="#3d2f46" class="color3D2F46 svgShape"/>
    <path fill="#3d2f46" d="M32.1447 28.7667l-.0316-.1611c-.0768-.3918-.4566-.6473-.8484-.5705l-3.4406.674c-.3918.0768-.6472.4566-.5705.8484l.0316.1611c.0768.3918.4567.6473.8485.5706l3.4405-.6741C31.9661 29.5384 32.2215 29.1585 32.1447 28.7667zM44.1394 28.7091l-3.4406-.674c-.3918-.0768-.7717.1786-.8484.5705l-.0316.1611c-.0767.3918.1786.7717.5705.8484l3.4405.6741c.3918.0767.7717-.1787.8485-.5706l.0316-.1611C44.7866 29.1657 44.5312 28.7859 44.1394 28.7091z" class="color3D2F46 svgShape"/>
    <path fill="#3d2f46" d="M21.5713,28.8838l2.0715-3.5512c0.2312-0.3994,0.3994-0.8408,0.494-1.3033l0.7988-4.1095
				c0.4414-2.3018,2.6907-3.7838,4.9714-3.2898l4.6502,0.9994c0.9322,0.2003,1.8963,0.2001,2.8284-0.0005l4.6399-0.9989
				c2.2912-0.494,4.5405,0.988,4.9819,3.2898l0.7988,4.1095c0.0841,0.4625,0.2522,0.9039,0.494,1.3033l2.0716,3.5512h2.7205
				C52.4398,17.0044,47.8532,7.1589,35.9821,7.1496c-0.0105,0-0.0105,0-0.0211,0C24.09,7.1589,19.5033,17.0044,18.8508,28.8838
				H21.5713z" class="color3D2F46 svgShape"/>
    <path fill="#fab687" d="M19.6395 26.8689c-1.3176 0-2.0678 2.0342-1.6902 4.4504.3624 2.319 1.6373 4.1317 2.8606 4.1317s2.0038-1.8126 1.7337-4.1317C22.2622 28.9032 20.9571 26.8689 19.6395 26.8689zM52.3241 26.8689c-1.3176 0-2.6227 2.0342-2.9041 4.4504-.2701 2.319.5104 4.1317 1.7337 4.1317s2.4982-1.8126 2.8606-4.1317C54.3919 28.9032 53.6418 26.8689 52.3241 26.8689z" class="colorFAB687 svgShape"/>
    <path fill="#3d2f46" d="M43.5385,41.7775l0,2.6471c0,3.9079-3.1083,7.0994-7.0142,7.2254
					c-0.5008,0.0162-1.0045,0.0099-1.5032-0.0188c-3.7397-0.2149-6.596-3.4486-6.5959-7.1945l0-2.6593
					c0-1.3997,1.1347-2.5343,2.5343-2.5343h10.0447C42.4038,39.2432,43.5385,40.3779,43.5385,41.7775z" class="color3D2F46 svgShape"/>
    <path fill="#c6765f" d="M40.3896,42.9345c-0.1879,0.7359-0.5637,1.3857-1.0725,1.9025
					c-0.0157,0.0156-0.0235,0.0235-0.0391,0.0391c-0.0862,0.0861-0.1723,0.1722-0.274,0.2505
					c-0.6889,0.6028-1.5814,1.0021-2.5757,1.096c-0.1409,0.0078-0.2975,0.0157-0.4462,0.0157c-0.2114,0-0.4227-0.0157-0.6341-0.0391
					c-0.1957-0.0313-0.3836-0.0705-0.5715-0.1253c-0.0157,0-0.0235-0.0078-0.0392-0.0078
					c-0.0313-0.0078-0.0704-0.0235-0.1018-0.0313c-1.4953-0.4306-2.6853-1.6049-3.0611-3.0924
					c-0.1018-0.4071,0.2192-0.7907,0.6341-0.7907h7.547C40.1626,42.1516,40.4914,42.5353,40.3896,42.9345z" class="colorC6765F svgShape"/>
    <path fill="#ffffff" d="M38.2321,42.1483v0.8036c0,0.1872-0.1327,0.3276-0.2965,0.3276h-3.9319
					c-0.1638,0-0.3042-0.1404-0.3042-0.3276v-0.8036H38.2321z" class="colorFFF svgShape"/>
    <path fill="#ef4f63" d="M39.3165,44.8398c-0.0156,0.0156-0.0234,0.0234-0.039,0.039c-0.0858,0.0859-0.1716,0.1717-0.273,0.2497
					c-0.6865,0.6007-1.5837,0.9986-2.5744,1.0922c-0.1404,0.0078-0.2965,0.0156-0.4447,0.0156c-0.2185,0-0.4291-0.0156-0.6397-0.039
					c-0.2107-0.0312-0.4135-0.0702-0.6163-0.1248l0.0078-0.0078c0.1014-0.2497,0.2653-0.4759,0.4603-0.6865
					c0.5149-0.5695,1.2638-0.9284,2.0362-0.9907c0.6085-0.039,1.217,0.117,1.7943,0.3355
					C39.1215,44.7618,39.2229,44.793,39.3165,44.8398z" class="colorEF4F63 svgShape"/>
  </g>
</svg>