<svg xmlns="http://www.w3.org/2000/svg" xmlns:xlink="http://www.w3.org/1999/xlink" enable-background="new 0 0 72 72" viewBox="0 0 72 72" width="100" height="100">
  <circle cx="36" cy="36" r="35" fill="#58b57b" class="color58B57B svgShape"/>
  <defs>
    <circle id="a" cx="36" cy="36" r="35" fill="#000000" class="color000 svgShape"/>
  </defs>
  <clipPath id="b">
    <use overflow="visible" xlink:href="#a"/>
  </clipPath>
  <g clip-path="url(#b)" fill="#000000" class="color000 svgShape">
    <path fill="#d2dbe0" d="M67.39,71H4.61l3.32-12.21c1.04-5.0801,4.5-8.96,8.8199-10.23c0.78-0.23,1.58-0.3801,2.39-0.4302
				c0.25-0.02,0.49-0.0298,0.74-0.0298h23.76c0.01,0,0.01,0,0.01,0h8.46c0.25,0,0.5,0.0098,0.74,0.0298
				c0.83,0.05,1.63,0.2002,2.4,0.4302c4.32,1.27,7.79,5.1499,8.82,10.23L67.39,71z" class="colorD2DBE0 svgShape"/>
    <path fill="#b9c1c6" d="M45.4897,51.2192l0.3376,9.4878l-9.84-5.4839l-9.8178,5.4839l0.0178-9.2413
					c0.0042-2.198,1.3464-4.1719,3.3888-4.9841l0.1654-0.0658c0.6319-0.2513,1.3058-0.3803,1.9859-0.3803h8.3909
					c0.7344,0,1.461,0.1505,2.135,0.4422l0,0C44.1565,47.3015,45.416,49.1467,45.4897,51.2192z" class="colorB9C1C6 svgShape"/>
    <path fill="#445a6b" d="M52.85 48.1299V71h-2.63V48.1001h1.89C52.36 48.1001 52.61 48.1099 52.85 48.1299zM21.78 48.1001V71h-2.64V48.1299c.25-.02.49-.0298.74-.0298H21.78z" class="color445A6B svgShape"/>
    <path fill="#f8a771" d="M41.6172,36.9277V48.468c0,3.1032-2.5156,5.6189-5.6189,5.6189h0c-3.1032,0-5.6189-2.5156-5.6189-5.6189
				V36.9277H41.6172z" class="colorF8A771 svgShape"/>
    <path fill="#fab687" d="M49.671,28.7606c0,1.2233-0.0984,2.4275-0.2772,3.5839C48.1151,40.468,42.6067,46.575,35.9984,46.575
				s-12.1167-6.107-13.3955-14.2305c-0.1789-1.1564-0.2772-2.3606-0.2772-3.5839c0-4.9315,1.538-9.385,4.024-12.6153
				c2.477-3.2112,5.884-5.199,9.6487-5.199c3.7647,0,7.1717,1.9879,9.6486,5.199C48.133,19.3756,49.671,23.8292,49.671,28.7606z" class="colorFAB687 svgShape"/>
    <path fill="#fab687" d="M50.2481 25.7248c-1.4283 0-2.6913 1.9835-2.8185 4.3817-.1243 2.3459.8895 4.2107 2.2621 4.2107s2.6279-1.8647 2.8074-4.2107C52.6825 27.7083 51.6764 25.7248 50.2481 25.7248zM21.7487 25.7248c-1.4283 0-2.4344 1.9835-2.251 4.3817.1794 2.3459 1.4348 4.2107 2.8073 4.2107s2.3864-1.8647 2.2621-4.2107C24.44 27.7083 23.177 25.7248 21.7487 25.7248z" class="colorFAB687 svgShape"/>
    <path fill="#3d2f46" d="M48.7294,35.1372c0.8098-7.5708-2.6178-7.0623-2.1657-15.1605c0.0187-0.4331-0.5054-0.7902-0.8475-0.4896
				c-4.7076,3.2002-13.5034,3.2002-19.4355,0c-0.3478-0.2941-0.8663,0.0564-0.8475,0.4896
				c0.452,8.0982-2.9756,7.5897-2.1657,15.1605c-1.5067-2.8438-2.3918-6.2338-2.3918-9.8684
				c0-10.0946,6.7798-18.2678,15.1227-18.2678s15.1228,8.1732,15.1228,18.2678C51.1212,28.9035,50.236,32.2935,48.7294,35.1372z" class="color3D2F46 svgShape"/>
    <path fill="#3d2f46" d="M49.8059,34.2491c-0.37,6.997-6.8183,16.5228-13.8142,16.5228s-13.4342-9.5257-13.7942-16.5228
					c-0.1398-2.4492-0.0499-4.778,0.2599-6.4772c1.3795,9.8657,3.6086,12.9144,5.8975,12.9144
					c0.3798-3.0187,2.5789-4.5981,7.6368-3.6986c0.01,0,0.01,0,0.01,0c5.0679-0.8995,7.2669,0.6799,7.6468,3.6986
					c2.2789,0,4.508-3.0488,5.8875-12.9144C49.8458,29.4711,49.9357,31.8,49.8059,34.2491z" class="color3D2F46 svgShape"/>
    <path fill="#fab687" d="M30.6491,42.817l0.5177,1.7111c0.2536,1.1701,1.1491,2.1299,2.3224,2.3683
				c1.6966,0.3447,3.3744,0.3475,5.0334,0.0088c1.1666-0.2381,2.0521-1.1988,2.3043-2.3624l0.5222-1.7317
				c0.3082-1.4219-0.581-2.8431-2.0002-3.1638c-2.2253-0.5029-4.4569-0.4985-6.6946,0.0049
				C31.233,39.9719,30.3405,41.3932,30.6491,42.817z" class="colorFAB687 svgShape"/>
    <circle cx="30.936" cy="31.505" r="1.579" fill="#3d2f46" class="color3D2F46 svgShape"/>
    <circle cx="41.058" cy="31.505" r="1.579" fill="#3d2f46" class="color3D2F46 svgShape"/>
    <path fill="#3d2f46" d="M32.2433 27.7425c0-.05 0-.1001-.01-.1501-.09-.4199-.5-.7-.93-.6199l-3.21.6299c-.3701.0701-.63.4102-.63.78 0 .05 0 .0999.0099.1499.09.4202.5.7.9301.6201l3.2-.6301C31.9833 28.4425 32.2433 28.1124 32.2433 27.7425zM43.8934 27.6024l-3.2-.6299c-.43-.0801-.84.2-.93.6199-.01.05-.01.1001-.01.1501 0 .3699.26.7.63.7798l3.21.6301c.43.0798.84-.2.93-.6201.01-.05.01-.0999.01-.1499C44.5334 28.0125 44.2734 27.6725 43.8934 27.6024z" class="color3D2F46 svgShape"/>
    <g fill="#000000" class="color000 svgShape">
      <path fill="#663430" d="M40.5932,42.3042c-0.4145,1.5313-1.5162,2.7561-2.9313,3.3052
					c-0.5155,0.2111-1.0815,0.3168-1.6678,0.3168c-1.1422,0-2.1934-0.4225-3.0121-1.1194c-0.748-0.6337-1.3039-1.5102-1.5768-2.5027
					c-0.1819-0.6863,0.3032-1.3622,0.9804-1.3622h7.2271C40.2899,40.942,40.7751,41.6179,40.5932,42.3042z" class="color663430 svgShape"/>
      <path fill="#ef4f63" d="M37.6619,45.6094c-0.5155,0.2111-1.0815,0.3168-1.6678,0.3168c-1.1422,0-2.1934-0.4225-3.0121-1.1194
					c0.7379-0.4331,1.5869-0.602,2.4461-0.4646C36.3175,44.4795,37.0958,44.9441,37.6619,45.6094z" class="colorEF4F63 svgShape"/>
      <path fill="#ffffff" d="M38.9253,40.942v0.4754c0,0.38-0.2426,0.7285-0.5863,0.8131c-1.5566,0.4117-3.1233,0.4117-4.6799,0
					c-0.3436-0.0846-0.5862-0.4331-0.5862-0.8131V40.942H38.9253z" class="colorFFF svgShape"/>
    </g>
  </g>
</svg>