<svg xmlns="http://www.w3.org/2000/svg" viewBox="0 0 136 136" width="100" height="100">
  <circle cx="68" cy="68" r="64" fill="#5e86c3" class="color5E86C3 svgShape"/>
  <circle cx="68" cy="68" r="64" fill="#5e86c3" class="color5E86C3 svgShape"/>
  <path fill="#f1b97c" d="M53.6 67h28.6v20.9H53.6z" class="colorF1B97C svgShape"/>
  <path fill="#f8cfa3" d="M90 41.6h-.3c-1.6-18-13.4-21.6-18.4-22.4V19H60.4c-5 .7-12.7 4.6-14.3 22.5h-.3c-2 .4-3 4-2.2 8.1.8 3.8 2.8 6.7 4.8 6.7 1.3 3.8 2.8 7.8 3.5 8.4 0 0 7 11.5 16 11.6 9-.1 16-11.6 16-11.6.7-.6 2.2-4.6 3.5-8.4 1.9 0 4-2.8 4.8-6.7.8-4-.2-7.6-2.2-8z" class="colorF8CFA3 svgShape"/>
  <path fill="#d1d1d3" d="M90.1 87.4v40.7c-3.4 1.3-6.9 2.2-10.5 2.9-1.2.2-2.3.4-3.5.5h-.2l-2.7.3c-1.7.1-3.4.2-5.2.2-1.8 0-3.6-.1-5.4-.2-.8-.1-1.7-.1-2.5-.3h-.2c-1.2-.1-2.4-.3-3.5-.5-3.7-.7-7.3-1.7-10.8-3V87.4h44.5z" class="colorD1D1D3 svgShape"/>
  <path fill="#e34d30" d="m74 131-.8.8c-1.7.1-3.4.2-5.2.2-1.8 0-3.6-.1-5.4-.2l-.8-.8 3-35.8-.9-.5c-.3-1.8-.4-2.6-.7-4.3l2.2-2.4v-.1l.4-.5h4.4l.4.4 2 2.5c-.3 1.7-.4 2.5-.7 4.2l-1 .6L74 131z" class="colorE34D30 svgShape"/>
  <path fill="#fcfcfc" d="M81.2 94.8c1.5-8.9 2.2-16 1.7-18.2L68 87.4s9.1.6 13.2 7.4zM54.7 95.3c-1.7-8.5-2.4-16.2-1.5-18.7L68 87.4s-9.3 1-13.3 7.9z" class="colorFCFCFC svgShape"/>
  <path fill="#343843" d="M118 92.8s-6.8 9.7-9.6 24.8c-5.4 4.4-11.6 8-18.3 10.4-3.4 1.3-6.9 2.2-10.5 2.9-1.2.2-2.3.4-3.5.5l7.8-44.1.6-3.6-1.7-7v-.2c.7.5 21 13.3 35.2 16.3z" class="color343843 svgShape"/>
  <path fill="#343843" d="M120.8 104.2c-3.5 5.1-7.7 9.6-12.4 13.5 2.8-15.1 9.6-24.8 9.6-24.8s1.3 4.6 2.8 11.3z" class="color343843 svgShape"/>
  <path fill="#4c525e" d="m91.6 95 4.5 4.8-6 11.4L79.6 131c-1.2.2-2.3.4-3.5.5h-.2c1.5-9.5 3.7-24.6 5.2-36.7.3-2.5.6-4.8.8-6.9 0-.2 0-.3.1-.5 0-.4.1-.8.1-1.2.5-4.7.8-8.2.6-9.6L98 91.1 91.6 95z" class="color4C525E svgShape"/>
  <path fill="#343843" d="M59.9 131.5c-1.2-.1-2.4-.3-3.5-.5-3.7-.7-7.3-1.7-10.8-3-6.6-2.5-12.6-6-17.9-10.3-2.9-15.1-9.7-24.9-9.7-24.9 14.2-3 34.5-15.9 35.2-16.3l-.2.9-1.5 6.4.6 3.6 7.8 44.1z" class="color343843 svgShape"/>
  <path fill="#343843" d="M27.6 117.6c-4.8-3.9-8.9-8.4-12.4-13.5 1.4-6.7 2.8-11.4 2.8-11.4s6.8 9.9 9.6 24.9z" class="color343843 svgShape"/>
  <path fill="#4c525e" d="M60.1 131.5h-.2c-1.2-.1-2.4-.3-3.5-.5l-10.8-20.5-5.7-10.7 4.5-4.8-6.5-3.9 15.3-14.5c-.1 1.2 0 3.9.4 7.5.1 1 .2 2.1.3 3.3 0 .2 0 .3.1.5.2 2.2.5 4.6.9 7.1 1.5 12 3.7 27.1 5.2 36.5z" class="color4C525E svgShape"/>
  <path fill="#343843" d="M90.8 30.8S92.1 14.1 69 10.9c0 0-17.5-.3-17.7 9.4 0 0-9 6.3-6.7 23.4 0 0 2.2 4 2.4 6v12.4c0 .8.3 1.5.8 2.1l12.4 14.9c.6.7 1.5 1.1 2.4 1.1h10.8c.9 0 1.8-.4 2.4-1.1l12.4-14.9c.5-.6.8-1.3.8-2.1V50.9c-.1-.1 3.8-8.4 1.8-20.1zM73.4 65.4H62.6c-1 0-1.8-.8-1.8-1.8 0-1.6 2.5-2.9 4.1-2.9h6.2c1.6 0 4.1 1.3 4.1 2.9 0 1-.8 1.8-1.8 1.8zm8.9-5.1c-1.5 1.4-3.9.8-4.8-1.1-.3-.6-.7-1-1.2-1.3-.5-.3-1.1-.5-1.7-.5H61.3c-.6 0-1.2.2-1.7.5s-.9.8-1.2 1.3c-.9 1.9-3.3 2.4-4.8 1.1-1.9-1.6-3.1-3.5-3.9-5.5-1.3-3.1-1.6-6.6-1-9.9.5-2.8 1.2-5.8 2.4-6.5 0 0-3-6.7 2.5-11.7 0 0 1.7-5.9 12.4-3.1 0 0 6.4 2.9 13.5 2.7 0 0 7.5 1.8 8 13 0 0-.5 6.5 0 11.8-.8 3.2-1.9 6.4-5.2 9.2z" class="color343843 svgShape"/>
  <path fill="#343843" d="M87.3 42.6v1.6s-2.5.7-2.1 3.1c0 0 .4 6.4-5.8 7.2 0 0-9.6 2.1-10.4-5.8 0 0-.1-2.5-1.3-2.6-1.1.1-1.3 2.6-1.3 2.6-.8 7.9-10.4 5.8-10.4 5.8-6.2-.8-5.8-7.2-5.8-7.2.3-2.4-2.1-3.1-2.1-3.1v-1.6c3.4-.9 10-.5 10-.5 3.9 0 9.6 2.1 9.6 2.1s5.7-2.1 9.6-2.1c0 0 6.6-.4 10 .5z" class="color343843 svgShape"/>
</svg>
