<svg xmlns="http://www.w3.org/2000/svg" enable-background="new 0 0 180 180" viewBox="12.69000244140625 12.5 154.6199951171875 154.99159240722656" width="100" height="100"><circle cx="90" cy="89.81" r="77.31" fill="#872322" class="color872322 svgShape"/><path fill="#ecbf9b" d="M116.96,146.69c-12.53,0.44-21.34,21.1-27.22,20.02c-13.52-2.5-14-27.77-26.26-20.02		c17.59-11.12,22.16-22.69,13.37-33.81c8.79,11.12,18.43,3.19,26.74,0C94.79,124,99.37,135.57,116.96,146.69z" class="colorecbf9b svgShape"/><path fill="#f9cba4" d="M122.51,79.88c0,19.9-17.69,40.97-32.72,40.97c-14.99,0-32.72-21.07-32.72-40.97V59.85
		c0-19.9,14.73-36.18,32.72-36.18s32.72,16.28,32.72,36.18V79.88z" class="colorf9cba4 svgShape"/><ellipse cx="71.81" cy="88.77" fill="#f3a180" rx="4.59" ry="3.49" class="colorf3a180 svgShape"/><ellipse cx="109.26" cy="88.77" fill="#f3a180" rx="4.59" ry="3.49" class="colorf3a180 svgShape"/><path fill="#fde7d9" d="M82.01,79.3c-0.54,1.44-3.8,2.85-7.26,2.7c-2.73-0.12-8.52-3.67-9.54-4.98c2.28-1.19,7.36-1.68,10.02-1.62
					C78.02,75.48,82.46,78.12,82.01,79.3z" class="colorfde7d9 svgShape"/><path fill="#553819" d="M65.22,77.03c0,0,9.59-5.29,15.85,0.32c0.95,1,1.02,2.01,0.95,1.95c-0.46-0.38-0.9-0.78-1.38-1.13
					c-0.5-0.36-1.06-0.6-1.62-0.83c-1.29-0.52-2.68-0.88-4.08-0.88c-2.33,0-6.19,1.18-7.96,1.88
					C66.51,78.52,65.22,77.03,65.22,77.03z" class="color553819 svgShape"/><circle cx="75.2" cy="78.83" r="3.21" fill="#553819" class="color553819 svgShape"/><path fill="#fde7d9" d="M98.61,79.3c0.54,1.44,3.8,2.85,7.26,2.7c2.73-0.12,8.52-3.67,9.54-4.98c-2.28-1.19-7.36-1.68-10.02-1.62
					C102.61,75.48,98.17,78.12,98.61,79.3z" class="colorfde7d9 svgShape"/><path fill="#553819" d="M115.41,77.03c0,0-9.59-5.29-15.85,0.32c-0.95,1-1.02,2.01-0.95,1.95c0.46-0.38,0.9-0.78,1.38-1.13
					c0.5-0.36,1.06-0.6,1.62-0.83c1.29-0.52,2.68-0.88,4.08-0.88c2.33,0,6.19,1.18,7.96,1.88
					C114.12,78.52,115.41,77.03,115.41,77.03z" class="color553819 svgShape"/><circle cx="105.42" cy="78.83" r="3.21" fill="#553819" class="color553819 svgShape"/><path fill="#553819" d="M84.25 71.62c0 0-16.36-4.52-21.09-1.83.23.05 1.03-2.47 11.96-1.85 6.35.36 8.57 1.11 9.39 1.47C84.88 69.58 85.03 71.06 84.25 71.62zM96.38 71.62c0 0 16.36-4.52 21.09-1.83-.23.05-1.03-2.47-11.96-1.85-6.35.36-8.57 1.11-9.39 1.47C95.75 69.58 95.6 71.06 96.38 71.62z" class="color553819 svgShape"/><path fill="#ecbf9b" d="M57.89,83.38c0.35,4.65,1.57,8.81-0.87,9.09c-3.05,0.35-7.7-4.57-8.05-9.22c-0.35-4.65,1.37-8.39,3.83-8.35
					C55.27,74.94,57.55,78.73,57.89,83.38z" class="colorecbf9b svgShape"/><path fill="none" stroke="#c89c79" stroke-linecap="round" stroke-linejoin="round" stroke-miterlimit="10" stroke-width=".54" d="M57 80.2c0 0-3.06-5.17-6.42 1.15M56.33 79.92c0 0-3.45 2.59-3.93 7.86" class="colorStrokec89c79 svgStroke"/><circle cx="56.47" cy="92.55" r="3.02" fill="#327597" class="color327597 svgShape"/><path fill="#ecbf9b" d="M121.75,83.38c-0.35,4.65-1.57,8.81,0.87,9.09c3.05,0.35,7.7-4.57,8.05-9.22c0.35-4.65-1.37-8.39-3.83-8.35
					C124.38,74.94,122.1,78.73,121.75,83.38z" class="colorecbf9b svgShape"/><path fill="none" stroke="#c89c79" stroke-linecap="round" stroke-linejoin="round" stroke-miterlimit="10" stroke-width=".54" d="M122.52 80.98c0 0 3.55-5.94 6.9.38M123.67 79.92c0 0 3.45 2.59 3.93 7.86" class="colorStrokec89c79 svgStroke"/><circle cx="123.17" cy="92.55" r="3.02" fill="#327597" class="color327597 svgShape"/><g fill="#000000" class="color000 svgShape"><path fill="#bd7b19" d="M87.05,50.95c0.22-0.06,9.51-4.37,9.71-4.48c6.09-3.4,10.34-10.23,8.12-17.1
			c-3.69-11.44-36.38-8.25-53.19,8.92c-16.42,16.77-13.37,36.71-8.44,46.8c5.58,11.43,20.41,20.06,23.93,18.82
			c-9.85-12.2-13.55-41.87,4.05-49.26C76.34,52.5,79.14,53.06,87.05,50.95z" class="colorbd7b19 svgShape"/><path fill="none" stroke="#d68b14" stroke-linecap="round" stroke-linejoin="round" stroke-miterlimit="10" stroke-width=".72" d="M97.43 31.34c0 0-1.29 12.9-42.57 20.76M97.43 31.34c-3.81 3.34-10.56 9.15-28.5 7.74" opacity=".5" class="colorStroked68b14 svgStroke"/><path fill="#bd7b19" d="M103.77,27.73c0,0-3.36,9.72,0.21,17.87c1.73,3.94,6.85,7.48,10.52,10.63c7.8,6.69,8.02,23.65,8.02,23.65
			s9.4-12.68,6.35-30.68c-1.4-9.06-7.98-17.83-16.21-21.89C104.94,23.51,103.77,27.73,103.77,27.73z" class="colorbd7b19 svgShape"/><path fill="none" stroke="#d68b14" stroke-linecap="round" stroke-linejoin="round" stroke-miterlimit="10" stroke-width=".72" d="M107.28,36.62c0,0,2.47,8.88,14.79,17.85" opacity=".5" class="colorStroked68b14 svgStroke"/><path fill="#bd7b19" d="M85.47,50.13c0,0-6.33,4.22-13.84,6.1c-3.44,0.86,23.45-2.67,30.48-14.17
			C109.15,30.57,85.47,50.13,85.47,50.13z" class="colorbd7b19 svgShape"/></g><g fill="#000000" class="color000 svgShape"><path fill="#327597" d="M93.79,167.4c0,0-1.78,0.08-3.32,0.09c-1.52,0.01-2.97-0.03-2.97-0.03l-11.53-31.5c0,0,5.39,5.65,14.55,5.65
			s14.8-5.43,14.8-5.43L93.79,167.4z" class="color327597 svgShape"/><path fill="#327597" d="M106.39 135.58c6.23 1.29 14.78 7.14 14.78 7.14s9.2 7.07 9.34 12.23c.08 2.86-15.48 11.45-36.73 12.44C93.54 167.41 102.63 134.8 106.39 135.58zM74.8 135.42c-6.56 1.28-15.79 7.54-15.79 7.54s-9.1 6.84-9.14 12c-.02 3.1 15.56 11.92 37.62 12.51C87.51 167.46 79.57 134.49 74.8 135.42z" class="color327597 svgShape"/><path fill="#ecbf9b" d="M91.06,167.48l13.73-30.82l-0.38-0.02c-2.23,1.24-7.33,3.59-14.06,3.59c-9.16,0-14.09-4.2-14.09-4.2
					l0.15,0.41L91.06,167.48C91.05,167.48,91.06,167.48,91.06,167.48z" class="colorecbf9b svgShape"/><polygon fill="#b4e0f2" points="76.26 136.03 90.94 159.79 104.79 136.66 91.06 167.49" class="colorb4e0f2 svgShape"/><path fill="#e2f2f8" d="M75.97,135.59l-15.87,12.9c0,0,23.57-3.52,30.85,11.61C91.58,158.7,75.97,135.59,75.97,135.59z" class="colore2f2f8 svgShape"/><path fill="#e2f2f8" d="M105.31,135.83l16.56,12.67c0,0-23.57-3.52-30.85,11.61C90.38,158.7,105.31,135.83,105.31,135.83z" class="colore2f2f8 svgShape"/></g><polyline fill="none" stroke="#b47f55" stroke-linecap="round" stroke-linejoin="round" stroke-miterlimit="10" stroke-width=".72" points="93.69 69.95 91 74.17 91.35 91.94 96.43 90.71 95.55 95.28 92.38 96.52"/><g fill="#000000" class="color000 svgShape"><line x1="81.05" x2="79.69" y1="101.84" y2="103.33" fill="none" stroke="#553819" stroke-linecap="round" stroke-miterlimit="10" stroke-width=".9" class="colorStroke553819 svgStroke"/><line x1="98.85" x2="100.21" y1="101.84" y2="103.33" fill="none" stroke="#553819" stroke-linecap="round" stroke-miterlimit="10" stroke-width=".9" class="colorStroke553819 svgStroke"/><path fill="none" stroke="#553819" stroke-linecap="round" stroke-miterlimit="10" stroke-width=".9" d="M99.42,102.56c-1.66,1.77-5.32,3-9.56,3c-4.15,0-7.73-1.17-9.44-2.88" class="colorStroke553819 svgStroke"/></g></svg>