<svg xmlns="http://www.w3.org/2000/svg" viewBox="12.69000244140625 12.5 154.6199951171875 155" width="100" height="100"><circle cx="90" cy="89.81" r="77.31" fill="#a6af30" class="colora6af30 svgShape"/><path fill="#e9af7e" d="M116.96,146.7c-12.53,0.44-21.34,21.1-27.22,20.02c-13.52-2.5-14-27.77-26.26-20.02		c17.59-11.12,22.16-22.69,13.37-33.81c8.79,11.12,18.43,3.19,26.74,0C94.8,124,99.37,135.58,116.96,146.7z" class="colore9af7e svgShape"/><path fill="#f7b680" d="M122.52,79.88c0,19.9-17.69,40.97-32.72,40.97c-14.99,0-32.72-21.07-32.72-40.97V59.86
		c0-19.9,14.73-36.18,32.72-36.18s32.72,16.28,32.72,36.18V79.88z" class="colorf7b680 svgShape"/><path fill="#43210d" d="M57.07,79.88V59.86c0-17.59,11.51-32.35,26.61-35.53l1.12-1.76c-22.37,4-34.75,22.03-43.26,45.9
			c-0.13,0.36-0.21,0.74-0.31,1.11c-2.9,10.48-6.17,24.62-0.06,34.68c3.47,5.71,9.75,9.3,16.25,10.34c3.36,0.54,6.8,0.45,10.15-0.04
			c0.57-0.08,3-0.81,5.24-1.45C63.98,105.17,57.07,92.3,57.07,79.88z" class="color43210d svgShape"/><path fill="#43210d" d="M84.81,22.57l4.51,18.51c0,0-5.68,10.89-32.42,21.76c-3.52,1.43-4.27-10.05,1.33-19.55
			c3.81-6.46,9.92-12.62,15.61-16.18c4.11-2.58,7.4-3.02,9.25-3.5C83.8,23.43,84.81,22.57,84.81,22.57z" class="color43210d svgShape"/><path fill="#43210d" d="M84.81,22.57c27.58-3.82,41.16,15.62,50.2,33.7c18.36,36.71-0.23,61.93-31.43,58.64
			c-1.17-1.88,21.09-10.14,15.67-34.98c-6.83-31.32-29.94-38.85-29.94-38.85L84.81,22.57z" class="color43210d svgShape"/><path fill="none" stroke="#582e15" stroke-linecap="round" stroke-linejoin="round" stroke-miterlimit="10" stroke-width=".72" d="M55.73 63.54c0 0-20.06 39.02 13.71 47.94M81.25 29.05c0 0-15.31 3.42-22.36 16.63M127.02 88.12c-1.05 7.77-4.35 16.17-15.56 21.25M128.8 64.87c7.39 17.83 8.01 37.55-16.54 47.93" class="colorStroke582e15 svgStroke"/><path fill="#43210d" d="M63.52,61.78c0,0,23.28-5.39,28.34-18.79c6.84-18.12-5.71-1.64-5.71-1.64S90.56,47.12,63.52,61.78z" class="color43210d svgShape"/><ellipse cx="74.91" cy="92.03" fill="#f3a180" rx="4.59" ry="3.49" class="colorf3a180 svgShape"/><ellipse cx="106.16" cy="92.03" fill="#f3a180" rx="4.59" ry="3.49" class="colorf3a180 svgShape"/><path fill="#f9ccaa" d="M81.17,82.12c-0.47,1.46-5.01,3.18-8.47,2.97c-2.73-0.17-6.52-2.8-6.29-4.25c0.24-1.47,4.25-2.45,6.91-2.33
					C76.1,78.63,81.65,80.64,81.17,82.12z" class="colorf9ccaa svgShape"/><path fill="#43210d" d="M66.5,80.2c1.76-2.19,5.6-2.5,8.19-2.14c2.34,0.32,4.98,1.69,6.49,3.6c0,0-3.69-2.83-8-2.95
					C69.24,78.61,66.5,80.2,66.5,80.2z" class="color43210d svgShape"/><path fill="#43210d" d="M66.65 79.46c.17.12.36.21.56.23s.42-.06.53-.23c.02-.03.03-.05.04-.08.02-.14-.14-.23-.28-.28-.82-.29-1.52-.81-1.94-1.58C65.51 78.25 66.07 79.06 66.65 79.46zM68.2 79.04c.17.12.36.21.56.23.2.02.42-.06.53-.23.02-.03.03-.05.04-.08.02-.14-.14-.23-.28-.28-.82-.29-1.52-.81-1.94-1.58C67.06 77.82 67.61 78.63 68.2 79.04z" class="color43210d svgShape"/><circle cx="74.12" cy="81.77" r="3.16" fill="#43210d" class="color43210d svgShape"/><path fill="#f9ccaa" d="M98.47,82.12c0.47,1.46,5.01,3.18,8.47,2.97c2.73-0.17,6.52-2.8,6.29-4.25c-0.24-1.47-4.25-2.45-6.91-2.33
					C103.54,78.63,98,80.64,98.47,82.12z" class="colorf9ccaa svgShape"/><path fill="#43210d" d="M113.14,80.2c-1.76-2.19-5.6-2.5-8.19-2.14c-2.34,0.32-4.98,1.69-6.49,3.6c0,0,3.69-2.83,8-2.95
					C110.4,78.61,113.14,80.2,113.14,80.2z" class="color43210d svgShape"/><path fill="#43210d" d="M112.99 79.46c-.17.12-.36.21-.56.23-.2.02-.42-.06-.53-.23-.02-.03-.03-.05-.04-.08-.02-.14.14-.23.28-.28.82-.29 1.52-.81 1.94-1.58C114.13 78.25 113.57 79.06 112.99 79.46zM111.45 79.04c-.17.12-.36.21-.56.23-.2.02-.42-.06-.53-.23-.02-.03-.03-.05-.04-.08-.02-.14.14-.23.28-.28.82-.29 1.52-.81 1.94-1.58C112.59 77.82 112.03 78.63 111.45 79.04z" class="color43210d svgShape"/><circle cx="105.53" cy="81.77" r="3.16" fill="#43210d" class="color43210d svgShape"/><g fill="#000000" class="color000 svgShape"><path fill="#43210d" d="M83.78 68.86c0 0-14.54-3.28-20.64.94 0 0 16.88-.23 19 2.11C83.21 71.75 83.78 68.86 83.78 68.86zM95.87 68.86c0 0 14.54-3.28 20.64.94 0 0-16.88-.23-19 2.11C96.43 71.75 95.87 68.86 95.87 68.86z" class="color43210d svgShape"/></g><g fill="#000000" class="color000 svgShape"><path fill="#e29860" d="M62.31,85c0.03,0.18,0.07,0.35,0.11,0.53c0.25,1.11,0.65,2.26,1.58,3.09c2.09,1.85,5.16,2.43,7.85,2.65
				c4.02,0.33,8.47,0.24,11.31-3.01c2.07-2.37,3.92-6.53,1.88-9.46c-1.96-2.82-5.34-3.92-8.95-4.21c-3.53-0.29-9.22-0.89-12.13,1.28
				c-1.24,0.92-1.65,2.37-1.83,3.74C61.91,81.39,61.96,83.21,62.31,85z" opacity=".23" class="colore29860 svgShape"/><path fill="#fcdfc9" d="M64.56,88.95c-0.62-0.46-0.95-0.96-1.33-1.64c-0.33-0.6-0.69-1.67-0.92-2.31c-0.61-1.74-0.42-2.89-0.25-4.72
				c0.16-1.68,0.25-3.17,1.56-4.38c1.68-1.54,4.06-1.4,6.18-1.56c1.35-0.1,2.59-0.41,3.91,0c1.38,0.43,1.97,0.04,1.92,0.55
				l-6.06,16.03C69.53,91.12,66.29,90.24,64.56,88.95z" opacity=".42" class="colorfcdfc9 svgShape"/><path fill="none" stroke="#43210d" stroke-miterlimit="10" stroke-width=".9" d="M62.31,85c0.03,0.18,0.07,0.35,0.11,0.53c0.25,1.11,0.65,2.26,1.58,3.09c2.09,1.85,5.16,2.43,7.85,2.65
				c4.02,0.33,8.47,0.24,11.31-3.01c2.07-2.37,3.92-6.53,1.88-9.46c-1.96-2.82-5.34-3.92-8.95-4.21c-3.53-0.29-9.22-0.89-12.13,1.28
				c-1.24,0.92-1.65,2.37-1.83,3.74C61.91,81.39,61.96,83.21,62.31,85z" class="colorStroke43210d svgStroke"/><path fill="#e29860" d="M117.34,85c-0.03,0.18-0.07,0.35-0.11,0.53c-0.25,1.11-0.65,2.26-1.58,3.09c-2.09,1.85-5.16,2.43-7.85,2.65
				c-4.02,0.33-8.47,0.24-11.31-3.01c-2.07-2.37-3.92-6.53-1.88-9.46c1.96-2.82,5.34-3.92,8.95-4.21c3.53-0.29,9.22-0.89,12.13,1.28
				c1.24,0.92,1.65,2.37,1.83,3.74C117.74,81.39,117.68,83.21,117.34,85z" opacity=".23" class="colore29860 svgShape"/><path fill="#fcdfc9" d="M107.43,74.45l-5.86,16.58l-1.25-0.31c0,0-4.69-1.8-5.86-5.4c-1.17-3.6-0.17-6.23,1.09-7.58
				c1.09-1.17,3.86-2.49,5.55-2.81C102.74,74.6,107.43,74.45,107.43,74.45z" opacity=".42" class="colorfcdfc9 svgShape"/><path fill="none" stroke="#43210d" stroke-miterlimit="10" stroke-width=".9" d="M117.34,85c-0.03,0.18-0.07,0.35-0.11,0.53c-0.25,1.11-0.65,2.26-1.58,3.09c-2.09,1.85-5.16,2.43-7.85,2.65
				c-4.02,0.33-8.47,0.24-11.31-3.01c-2.07-2.37-3.92-6.53-1.88-9.46c1.96-2.82,5.34-3.92,8.95-4.21c3.53-0.29,9.22-0.89,12.13,1.28
				c1.24,0.92,1.65,2.37,1.83,3.74C117.74,81.39,117.68,83.21,117.34,85z" class="colorStroke43210d svgStroke"/><line x1="94.6" x2="85.05" y1="78.79" y2="78.79" fill="none" stroke="#43210d" stroke-miterlimit="10" stroke-width="1.26" class="colorStroke43210d svgStroke"/><polyline fill="none" stroke="#43210d" stroke-miterlimit="10" stroke-width=".9" points="66.09 74.84 57.84 76.44 56.43 77.68"/><polyline fill="none" stroke="#43210d" stroke-miterlimit="10" stroke-width=".9" points="113.57 74.84 121.81 76.44 123.22 77.68"/></g><g fill="#000000" class="color000 svgShape"><path fill="#e8a773" d="M57.9,83.39c0.35,4.65,1.57,8.81-0.87,9.09c-3.05,0.35-7.7-4.57-8.05-9.22s1.37-8.39,3.83-8.35
				C55.27,74.94,57.55,78.74,57.9,83.39z" class="colore8a773 svgShape"/><path fill="none" stroke="#c4875a" stroke-linecap="round" stroke-linejoin="round" stroke-miterlimit="10" stroke-width=".54" d="M57.49 80.98c0 0-3.55-5.94-6.9.38M56.34 79.93c0 0-3.45 2.59-3.93 7.86" class="colorStrokec4875a svgStroke"/><circle cx="56.48" cy="92.55" r="2.29" fill="#c7cc39" display="none" class="colorc7cc39 svgShape"/></g><g fill="#000000" class="color000 svgShape"><path fill="#322e13" d="M130.16,154.96c0.08,3.04-17.47,12.54-40.73,12.54s-39.94-9.32-39.91-12.54c0.04-5.16,9.14-12,9.14-12
			s9.23-6.26,15.79-7.54c0.38-0.08,0.79,0.03,1.22,0.29c4.85,2.97,14.25,25.73,14.12,25.88c0.12-0.15,8.82-21.47,13.78-26.04
			c0.72-0.67,1.83-0.1,2.46,0.03c6.23,1.29,14.78,7.14,14.78,7.14S130.02,149.8,130.16,154.96z" class="color322e13 svgShape"/><path fill="#d3d3d3" d="M67.37,153.81c0.68-1.99,4.21-2.48,5.93-2.6c5.87-0.39,10.58,2.02,14.13,6.62c0.65,0.85,2.48,3.62,2.48,3.62
			c-0.59-3.02-1.91-5.94-2.91-8.84c-1.71-4.97-3.61-9.1-5.96-13.8c-0.73-1.4-2.74-4.46-3.73-4.24c-1.45,0.31-2.48,0.7-2.86,0.85
			c-1.09,0.78-3.24,5.44-4.12,8.18C69.21,147.04,68.54,150.38,67.37,153.81z" class="colord3d3d3 svgShape"/><path fill="#d3d3d3" d="M112.42,153.81c-0.68-1.99-4.21-2.48-5.93-2.6c-5.87-0.39-10.58,2.02-14.13,6.62
			c-0.65,0.85-2.48,3.62-2.48,3.62c0.59-3.02,1.91-5.94,2.91-8.84c1.71-4.97,3.61-9.1,5.96-13.8c0.73-1.4,2.74-4.46,3.73-4.24
			c1.45,0.31,2.48,0.7,2.86,0.85c1.09,0.78,3.24,5.44,4.12,8.18C110.58,147.04,111.24,150.38,112.42,153.81z" class="colord3d3d3 svgShape"/></g><polyline fill="none" stroke="#c4875a" stroke-linecap="round" stroke-linejoin="round" stroke-miterlimit="10" stroke-width=".72" points="93.7 69.95 91 74.18 91.35 91.94 96.43 90.71 95.55 95.29 92.38 96.52"/><g fill="#000000" class="color000 svgShape"><line x1="81.42" x2="80.06" y1="101.85" y2="103.33" fill="none" stroke="#64463b" stroke-linecap="round" stroke-miterlimit="10" stroke-width=".9" class="colorStroke64463b svgStroke"/><line x1="99.21" x2="100.58" y1="101.85" y2="103.33" fill="none" stroke="#64463b" stroke-linecap="round" stroke-miterlimit="10" stroke-width=".9" class="colorStroke64463b svgStroke"/><path fill="none" stroke="#64463b" stroke-miterlimit="10" stroke-width=".9" d="M99.78,102.56c-1.66,1.77-5.32,3-9.56,3c-4.23,0-7.87-1.22-9.54-2.98" class="colorStroke64463b svgStroke"/></g></svg>