<svg xmlns="http://www.w3.org/2000/svg" xmlns:xlink="http://www.w3.org/1999/xlink" enable-background="new 0 0 72 72" viewBox="0 0 72 72" width="100" height="100">
  <circle cx="36" cy="36" r="35" fill="#58b57b" class="color58B57B svgShape"/>
  <defs>
    <circle id="a" cx="36" cy="36" r="35" fill="#000000" class="color000 svgShape"/>
  </defs>
  <clipPath id="b">
    <use overflow="visible" xlink:href="#a"/>
  </clipPath>
  <g clip-path="url(#b)" fill="#000000" class="color000 svgShape">
    <path fill="#ee432c" d="M66.1954,71H5.8046c0-8.4893,6.1651-15.8263,14.8219-17.6582c0.128-0.0296,0.2462-0.0493,0.3742-0.069
				c0.5811-0.1181,1.172-0.2164,1.7629-0.3248l9.9568,9.9569c1.8121,1.812,4.747,1.812,6.5591,0l9.9666-9.9569
				c0.5811,0.1084,1.1621,0.2068,1.7531,0.3248c0.1182,0.0197,0.2462,0.0394,0.3644,0.069h0.0099
				C60.0303,55.1737,66.1954,62.5107,66.1954,71z" class="colorEE432C svgShape"/>
    <path fill="#5f566a" d="M50.9992,53.2728L40.3235,63.9486c-1.1523,1.162-2.6886,1.7925-4.3235,1.7925
				c-1.6348,0-3.1712-0.6304-4.3234-1.7925L21.0008,53.2728c0.5811-0.1181,1.172-0.2164,1.7629-0.3248l9.9568,9.9569
				c1.8121,1.812,4.747,1.812,6.5591,0l9.9666-9.9569C49.8273,53.0564,50.4083,53.1547,50.9992,53.2728z" class="color5F566A svgShape"/>
    <path fill="#fab687" d="M49.2414,52.9486c-8.7527-1.5792-17.7295-1.5792-26.4819,0l9.9595,9.9596
				c1.8123,1.8123,4.7506,1.8123,6.5629,0L49.2414,52.9486z" class="colorFAB687 svgShape"/>
    <path fill="#fab687" d="M42.2963,43.8846v9.0626c0,3.6992-2.7341,6.6967-6.1083,6.6967H35.813
				c-3.3742,0-6.1084-2.9975-6.1084-6.6967v-9.0626H42.2963z" class="colorFAB687 svgShape"/>
    <path fill="#f8a771" d="M28.67,38.0984l1.0521,7.6392c0.5046,3.6644,3.1622,6.3541,6.2784,6.3541s5.7738-2.6897,6.2784-6.3541
				l1.052-7.6392H28.67z" class="colorF8A771 svgShape"/>
    <path fill="#fab687" d="M49.9903,31.4586c0,1.4129-0.1006,2.8037-0.2836,4.1394c-0.782,5.6081-5.5259,10.3841-9.2161,13.3191
				c-2.6341,2.0951-6.3461,2.0951-8.9802,0c-3.6902-2.9351-8.4341-7.7111-9.2161-13.3191c-0.183-1.3357-0.2836-2.7265-0.2836-4.1394
				c0-5.6958,1.5737-10.8396,4.1174-14.5706c2.5344-3.7089,6.0205-6.0048,9.8725-6.0048s7.3381,2.296,9.8725,6.0048
				C48.4166,20.619,49.9903,25.7628,49.9903,31.4586z" class="colorFAB687 svgShape"/>
    <path fill="#3d2f46" d="M29.1791,11.1873c4.9132-10.193,23.608,0.5819,22.5718,7.3698
				c-0.6707,4.3942-1.3588,11.2469-2.7724,17.5628c0.0551-2.6745-0.0859-5.0498-0.5438-6.941
				c-0.3254-1.3439-0.4073-2.7293-0.2736-4.1056c0.0526-0.5419,0.0768-1.0721,0.0682-1.5887
				c-0.0387-2.3056-2.047-4.0738-4.3459-3.8935c-5.2556,0.4123-10.3249,0.1532-15.1572-0.9612
				c-1.6999-0.392-3.5075,0.3903-4.3222,1.9329c-0.6023,1.1404-0.8178,2.5898-0.7086,4.2986
				c0.0691,1.0808,0.0537,2.1585-0.1274,3.2262c-0.3953,2.3302-0.3673,5.0698-0.1088,8.0321
				C16.9808,21.7103,20.8561,8.2907,29.1791,11.1873z" class="color3D2F46 svgShape"/>
    <path fill="#fab687" d="M50.5602 28.506c-1.4739 0-2.7887 1.9943-2.9349 4.4232-.1442 2.3953.9054 4.3129 2.3424 4.3129 1.4371 0 2.7467-1.9176 2.9274-4.3129C53.0784 30.5002 52.034 28.506 50.5602 28.506zM21.4407 28.506c-1.4738 0-2.5182 1.9943-2.3349 4.4232.1807 2.3953 1.4903 4.3129 2.9274 4.3129 1.437 0 2.4866-1.9176 2.3424-4.3129C24.2294 30.5002 22.9146 28.506 21.4407 28.506zM27.8366 36.8993l1.1716 7.6392c.562 3.6644 3.5218 6.3541 6.9922 6.3541s6.4302-2.6897 6.9922-6.3541l1.1716-7.6392H27.8366z" class="colorFAB687 svgShape"/>
    <circle cx="31.015" cy="34.335" r="1.555" fill="#3d2f46" class="color3D2F46 svgShape"/>
    <circle cx="40.983" cy="34.335" r="1.555" fill="#3d2f46" class="color3D2F46 svgShape"/>
    <path fill="#3d2f46" d="M32.3023 30.63c0-.0492 0-.0985-.0099-.1478-.0886-.4136-.4924-.6895-.9159-.6106l-3.1613.6204c-.3644.0691-.6205.4041-.6205.7683 0 .0493 0 .0984.0098.1476.0887.4138.4924.6893.916.6107l3.1515-.6206C32.0462 31.3193 32.3023 30.9942 32.3023 30.63zM43.7758 30.4919l-3.1515-.6204c-.4235-.0789-.8273.197-.9159.6106-.0099.0493-.0099.0986-.0099.1478 0 .3643.2561.6893.6205.7679l3.1614.6206c.4235.0786.8272-.1969.9159-.6107.0098-.0492.0098-.0983.0098-.1476C44.4061 30.896 44.1501 30.561 43.7758 30.4919z" class="color3D2F46 svgShape"/>
    <path fill="#663430" d="M40.782,43.9228c-0.2167,0.7288-0.6008,1.3885-1.1227,1.9105
					c-0.0099,0.0197-0.0197,0.0296-0.0394,0.0394c-0.0985,0.0986-0.1871,0.1871-0.3053,0.2758
					c-0.2561,0.2265-0.5417,0.4333-0.8569,0.5908c-0.0295,0.0197-0.0591,0.0296-0.0886,0.0394
					c-0.5614,0.3054-1.2015,0.5023-1.8811,0.5713c-0.1477,0.0099-0.325,0.0197-0.4826,0.0197c-0.2462,0-0.4727-0.0197-0.7091-0.0493
					c-0.2068-0.0296-0.4136-0.0789-0.6205-0.1378h-0.0394c-0.0394-0.0101-0.0788-0.0298-0.1182-0.0394
					c-0.3151-0.0887-0.6106-0.2169-0.8962-0.3645c-0.0295-0.0099-0.0492-0.0296-0.0788-0.0394
					c-1.1129-0.5908-1.9697-1.5953-2.3341-2.8067c-0.1575-0.522,0.2068-1.0539,0.7584-1.0539h8.056
					C40.5653,42.8788,40.9396,43.4106,40.782,43.9228z" class="color663430 svgShape"/>
    <path fill="#ffffff" d="M38.4711,42.8766v0.8826c0,0.2056-0.1457,0.3599-0.3256,0.3599h-4.3184
					c-0.1799,0-0.3341-0.1542-0.3341-0.3599v-0.8826H38.4711z" class="colorFFF svgShape"/>
    <path fill="#ef4f63" d="M38.3691,46.7787c-0.5614,0.3054-1.2015,0.5023-1.8811,0.5713c-0.1477,0.0099-0.325,0.0197-0.4826,0.0197
				c-0.2462,0-0.4727-0.0197-0.7091-0.0493c-0.2068-0.0296-0.4136-0.0789-0.6205-0.1378h-0.0394
				c-0.0394-0.0101-0.0788-0.0298-0.1182-0.0394c-0.3151-0.0887-0.6106-0.2169-0.8962-0.3645
				c0.6007-0.6696,1.4478-1.0834,2.3735-1.0834C36.9312,45.6953,37.7684,46.1091,38.3691,46.7787z" class="colorEF4F63 svgShape"/>
  </g>
</svg>
