<svg xmlns="http://www.w3.org/2000/svg" enable-background="new 0 0 180 180" viewBox="12.69000244140625 12.389999389648438 154.6199951171875 155.2115936279297" width="100" height="100"><circle cx="90" cy="89.7" r="77.31" fill="#f5c342" class="colorf5c342 svgShape"/><path fill="#ebb384" d="M116.96,146.8c-12.53,0.44-21.34,21.1-27.22,20.02c-13.52-2.5-14-27.77-26.26-20.02		c17.59-11.12,22.16-22.69,13.37-33.81c8.79,11.12,18.43,3.19,26.74,0C94.79,124.11,99.37,135.68,116.96,146.8z" class="colorebb384 svgShape"/><path fill="#f8bd8a" d="M122.51,79.99c0,19.9-17.69,40.97-32.72,40.97c-14.99,0-32.72-21.07-32.72-40.97V59.96
		c0-19.9,14.73-36.18,32.72-36.18s32.72,16.28,32.72,36.18V79.99z" class="colorf8bd8a svgShape"/><ellipse cx="71.81" cy="88.88" fill="#f3a180" rx="4.59" ry="3.49" class="colorf3a180 svgShape"/><ellipse cx="109.26" cy="88.88" fill="#f3a180" rx="4.59" ry="3.49" class="colorf3a180 svgShape"/><path fill="#64463b" d="M84.45 70.39c0 0-16.81-2.34-21.15.94.23.02.7-2.58 11.61-3.4 6.35-.48 8.64-.02 9.5.23C84.8 68.28 85.15 69.72 84.45 70.39zM95.25 70.39c0 0 16.81-2.34 21.15.94-.23.02-.7-2.58-11.61-3.4-6.35-.48-8.64-.02-9.5.23C94.89 68.28 94.55 69.72 95.25 70.39z" class="color64463b svgShape"/><path fill="#fde7d9" d="M82.06,78.42c-0.36,1.49-3.41,3.3-6.86,3.59c-2.73,0.23-7.5-1.65-8.68-2.82c2.11-1.47,5.69-3.51,8.33-3.78
				C77.62,75.12,82.35,77.19,82.06,78.42z" class="colorfde7d9 svgShape"/><circle cx="75.24" cy="78.8" r="3.21" fill="#64463b" class="color64463b svgShape"/><path fill="none" stroke="#d59864" stroke-linecap="round" stroke-miterlimit="10" stroke-width=".54" d="M66.29,78.13c0,0,4.32-4.34,10.3-3.99c4.16,0.23,5.94,3.05,5.94,3.05" class="colorStroked59864 svgStroke"/><path fill="#64463b" d="M68.64 77.69c0 0-2.51-1.08-3.3-2.81 0 0 .54 2.44 2.53 3.29C68.38 78.38 68.64 77.69 68.64 77.69zM70.63 76.57c0 0-2.6-.61-3.43-2.45 0 0 .5 2.06 2.62 2.95C70.35 77.3 70.63 76.57 70.63 76.57z" class="color64463b svgShape"/><path fill="#64463b" d="M73.02 75.84c0 0-2.48-.59-3.27-2.33 0 0 .48 1.97 2.5 2.82C72.76 76.54 73.02 75.84 73.02 75.84zM80.31 76.78c0 0 2.48-.59 3.27-2.33 0 0-.48 1.97-2.5 2.82C80.57 77.47 80.31 76.78 80.31 76.78z" display="none" class="color64463b svgShape"/><path fill="#64463b" d="M66.19,79.5c0,0,7.78-7.68,14.69-2.89c1.06,0.88,1.27,1.87,1.18,1.82c-0.5-0.32-0.99-0.66-1.52-0.95
				c-0.54-0.3-1.12-0.47-1.72-0.62c-1.35-0.35-2.77-0.54-4.16-0.36c-2.31,0.29-5.99,1.94-7.66,2.85
				C66.58,79.58,66.19,79.5,66.19,79.5z" class="color64463b svgShape"/><path fill="#fde7d9" d="M97.64,78.42c0.36,1.49,3.41,3.3,6.86,3.59c2.73,0.23,7.5-1.65,8.68-2.82c-2.11-1.47-5.69-3.51-8.33-3.78
				C102.08,75.12,97.34,77.19,97.64,78.42z" class="colorfde7d9 svgShape"/><circle cx="104.45" cy="78.8" r="3.21" fill="#64463b" class="color64463b svgShape"/><path fill="none" stroke="#d59864" stroke-linecap="round" stroke-miterlimit="10" stroke-width=".54" d="M113.41,78.13c0,0-4.26-4.34-10.24-3.99c-4.16,0.23-6.01,3.05-6.01,3.05" class="colorStroked59864 svgStroke"/><path fill="#64463b" d="M111.06 77.69c0 0 2.51-1.08 3.3-2.81 0 0-.54 2.44-2.53 3.29C111.32 78.38 111.06 77.69 111.06 77.69zM109.07 76.57c0 0 2.6-.61 3.43-2.45 0 0-.5 2.06-2.62 2.95C109.35 77.3 109.07 76.57 109.07 76.57z" class="color64463b svgShape"/><path fill="#64463b" d="M113.51,79.5c0,0-7.78-7.68-14.69-2.89c-1.06,0.88-1.27,1.87-1.18,1.82c0.5-0.32,0.99-0.66,1.52-0.95
				c0.54-0.3,1.12-0.47,1.72-0.62c1.35-0.35,2.77-0.54,4.16-0.36c2.31,0.29,5.99,1.94,7.66,2.85
				C113.12,79.58,113.51,79.5,113.51,79.5z" class="color64463b svgShape"/><path fill="#e8a773" d="M57.89,83.49c0.35,4.65,1.57,8.81-0.87,9.09c-3.05,0.35-7.7-4.57-8.05-9.22c-0.35-4.65,1.37-8.39,3.83-8.35
				C55.27,75.05,57.55,78.84,57.89,83.49z" class="colore8a773 svgShape"/><path fill="none" stroke="#c4875a" stroke-linecap="round" stroke-linejoin="round" stroke-miterlimit="10" stroke-width=".54" d="M57.48 81.09c0 0-3.55-5.94-6.9.38M56.33 80.03c0 0-3.45 2.59-3.93 7.86" class="colorStrokec4875a svgStroke"/><circle cx="56.47" cy="92.66" r="2.29" fill="#7c74b4" class="color7c74b4 svgShape"/><g fill="#000000" class="color000 svgShape"><path fill="#944123" d="M57.07,79.99V59.96c0-0.52,0.02-1.03,0.04-1.54c-5.59,7.72-10.7,16-10.7,20.53
					c0,21.11,5.81,10.61-1.06,40.82c-5.28,23.22,5.98,34.48,5.98,34.48l19.71-12.92c9.06-7.64,12.09-15.42,8.96-23.06
					C68.03,111.99,57.07,95.63,57.07,79.99z M132.96,116.6c-3.17-15.13-2.11-22.17,0.7-46.8c2.81-24.63-11.49-38.82-17.96-42.39
					c-5.97-3.29-11.49-0.23-11.49-0.23l-0.1,0.28c10.87,5.9,18.4,18.27,18.4,32.5v20.02c0,15.16-10.27,30.98-21.81,37.66
					c-4.38,9.67,1.11,19.58,16.25,29.16c-3.39,0.12-6.5,1.72-9.36,3.96c6.26,6.16,12.69,10.75,16.57,8.76
					C130.16,156.45,138.97,145.27,132.96,116.6z" class="color944123 svgShape"/><path fill="#944123" d="M89.8,48.34c0.2-0.1,6.13-3.88,6.33-3.99c6.09-3.4,10.96-8,8.75-14.87c-3.69-11.44-33.02-12.77-48.62,5.49
				c-16.54,19.35-12.37,47.97-9.85,58.06c4.22,16.89,17.82,32.68,20.41,26.04c2.58-6.64-12.97-55.59,4.62-62.98
				C76.55,53.93,84.67,50.97,89.8,48.34z" class="color944123 svgShape"/><path fill="none" stroke="#a74f23" stroke-linecap="round" stroke-miterlimit="10" stroke-width=".54" d="M97.43 31.45c0 0-1.29 12.9-42.57 20.76M97.43 31.45c-3.81 3.34-10.56 9.15-28.5 7.74" class="colorStrokea74f23 svgStroke"/><path fill="#944123" d="M104.21,27.18c0,0-3.68,10.32-0.23,18.53c2.29,5.45,6.33,12.9,12.43,21.35s9.15,8.21,9.15,8.21l-0.69-25.17
				l-12.21-22.68L104.21,27.18z" class="color944123 svgShape"/><path fill="none" stroke="#a74f23" stroke-linecap="round" stroke-miterlimit="10" stroke-width=".54" d="M107.28,36.73c0,0,5.24,20.88,19.53,37.71" class="colorStrokea74f23 svgStroke"/></g><g fill="#000000" class="color000 svgShape"><path fill="#ebb384" d="M121.75,83.49c-0.35,4.65-1.57,8.81,0.87,9.09c3.05,0.35,7.7-4.57,8.05-9.22c0.35-4.65-1.37-8.39-3.83-8.35
				C124.38,75.05,122.1,78.84,121.75,83.49z" class="colorebb384 svgShape"/><path fill="none" stroke="#c4875a" stroke-linecap="round" stroke-linejoin="round" stroke-miterlimit="10" stroke-width=".54" d="M122.52 81.09c0 0 3.55-5.94 6.9.38M123.67 80.03c0 0 3.45 2.59 3.93 7.86" class="colorStrokec4875a svgStroke"/><circle cx="123.17" cy="92.66" r="2.29" fill="#7c74b4" class="color7c74b4 svgShape"/></g><g fill="#000000" class="color000 svgShape"><path fill="#f6ce60" d="M93.79,167.51c0,0-1.78,0.08-3.32,0.09c-1.52,0.01-2.97-0.03-2.97-0.03l-11.53-31.5c0,0,5.09,6.2,14.19,6.2
			s14.54-5.97,14.54-5.97L93.79,167.51z" class="colorf6ce60 svgShape"/><path fill="#584991" d="M106.39 135.69c6.23 1.29 14.78 7.14 14.78 7.14s9.2 7.07 9.34 12.23c.08 2.86-15.48 11.45-36.73 12.44C93.54 167.52 102.63 134.91 106.39 135.69zM74.8 135.53c-6.56 1.28-15.79 7.54-15.79 7.54s-9.1 6.84-9.14 12c-.02 3.1 15.56 11.92 37.62 12.51C87.51 167.57 79.57 134.6 74.8 135.53z" class="color584991 svgShape"/><path fill="#8073b3" d="M74.73 135.53l-9.63 8.04c0 0 2.34 3.26 6.57 7.74 3.99 4.22 9.01 15.81 9.01 15.81s2.53.2 3.2.27c.67.06 3.62.18 3.62.18S79.54 134.43 74.73 135.53zM105.79 135.53l9.63 8.04c0 0-2.34 3.26-6.57 7.74-3.99 4.22-8.91 15.72-8.91 15.72l-6.91.54C93.03 167.57 100.97 134.43 105.79 135.53z" class="color8073b3 svgShape"/></g><polyline fill="none" stroke="#c4875a" stroke-linecap="round" stroke-linejoin="round" stroke-miterlimit="10" stroke-width=".72" points="93.69 70.06 91 74.28 91.35 92.05 96.43 90.82 95.55 95.39 92.38 96.63"/><g fill="#000000" class="color000 svgShape"><line x1="81.05" x2="79.69" y1="101.95" y2="103.44" fill="none" stroke="#64463b" stroke-linecap="round" stroke-miterlimit="10" stroke-width=".9" class="colorStroke64463b svgStroke"/><line x1="98.85" x2="100.21" y1="101.95" y2="103.44" fill="none" stroke="#64463b" stroke-linecap="round" stroke-miterlimit="10" stroke-width=".9" class="colorStroke64463b svgStroke"/><path fill="none" stroke="#64463b" stroke-miterlimit="10" stroke-width=".9" d="M99.42,102.67c-1.66,1.77-5.32,3-9.56,3c-4.23,0-7.87-1.22-9.54-2.98" class="colorStroke64463b svgStroke"/></g></svg>