<svg xmlns="http://www.w3.org/2000/svg" xmlns:xlink="http://www.w3.org/1999/xlink" enable-background="new 0 0 72 72" viewBox="0 0 72 72" width="100" height="100">
  <circle cx="36" cy="36" r="35" fill="#329387" class="color329387 svgShape"/>
  <defs>
    <circle id="a" cx="36" cy="36" r="35" fill="#000000" class="color000 svgShape"/>
  </defs>
  <clipPath id="b">
    <use overflow="visible" xlink:href="#a"/>
  </clipPath>
  <g clip-path="url(#b)" fill="#000000" class="color000 svgShape">
    <ellipse cx="21.685" cy="25.22" fill="#372a3f" rx="8.101" ry="9.62" class="color372A3F svgShape"/>
    <path fill="#fab687" d="M67.9326,71h-64l2.4427-9.3403c0.2054-0.6894,0.4419-1.3723,0.7661-2.0144
					c0.1661-0.3289,0.3415-0.6513,0.5249-0.9657c0.1448-0.2586,0.2896-0.5068,0.4448-0.7446
					c3.0614-4.6956,8.1707-7.7362,13.8591-8.0983c0.3722-0.0207,0.755-0.0308,1.1273-0.0308h25.7531
					c0.362,0,0.7032,0.0101,1.0446,0.0412c0.4136,0.0207,0.8068,0.0621,1.21,0.1139c5.192,0.6825,9.8048,3.6096,12.6283,7.9741
					c0.1553,0.2379,0.3103,0.4861,0.4551,0.7446c0.1966,0.3103,0.3723,0.631,0.5275,0.9517
					c0.0017,0.0033,0.0033,0.0066,0.005,0.0099c0.3231,0.6465,0.5641,1.3307,0.7704,2.0233L67.9326,71z" class="colorFAB687 svgShape"/>
    <path fill="#5f566a" d="M67.9326,71h-64l2.4427-9.3403c0.2054-0.6894,0.4419-1.3723,0.7661-2.0144
					c0.1661-0.3289,0.3415-0.6513,0.5249-0.9657c0.1448-0.2586,0.2896-0.5068,0.4448-0.7446
					c3.0614-4.6956,8.1707-7.7362,13.8591-8.0983c0.3722-0.0207,0.755-0.0308,1.1273-0.0308h1.1066v3.2164
					c0,2.568,1.3461,4.9378,3.5367,6.2777c2.6374,1.6133,5.3785,3.8684,8.1919,3.8684c2.8133,0,5.5541-2.2551,8.1917-3.8684
					c2.1907-1.34,3.5368-3.7098,3.5368-6.2778v-3.2164h1.1894c0.362,0,0.7032,0.0101,1.0446,0.0412
					c0.4136,0.0207,0.8068,0.0621,1.21,0.1139c5.192,0.6825,9.8048,3.6096,12.6283,7.9741
					c0.1553,0.2379,0.3103,0.4861,0.4551,0.7446c0.1966,0.3103,0.3723,0.631,0.5275,0.9517
					c0.0017,0.0033,0.0033,0.0066,0.005,0.0099c0.3231,0.6465,0.5641,1.3307,0.7704,2.0233L67.9326,71z" class="color5F566A svgShape"/>
    <rect width="13.339" height="16.7" x="29.264" y="39.635" fill="#fab687" class="colorFAB687 svgShape"/>
    <path fill="#f8a771" d="M35.959,47.5991L35.959,47.5991c-3.187,0-5.9085-2.3153-6.1884-5.3705
				c-0.0472-0.5154-0.0712-1.0355-0.0712-1.5594c0-0.5202,0.0236-1.0361,0.07-1.547c0.2777-3.0556,3.001-5.3712,6.1883-5.3712
				h0.0013c3.4306,0,6.2117,2.6763,6.2117,5.9778v1.8925C42.1707,44.9227,39.3896,47.5991,35.959,47.5991z" class="colorF8A771 svgShape"/>
    <path fill="#fab687" d="M48.4835,29.4057c0,1.1759-0.0903,2.3335-0.2544,3.4452c-1.1737,7.809-6.2294,13.6796-12.2947,13.6796
				s-11.1211-5.8706-12.2947-13.6796c-0.1642-1.1117-0.2544-2.2692-0.2544-3.4452c0-4.7406,1.4117-9.0217,3.6933-12.127
				c2.2734-3.0868,5.4005-4.9978,8.8558-4.9978c3.4553,0,6.5824,1.9109,8.8558,4.9978
				C47.0719,20.384,48.4835,24.6651,48.4835,29.4057z" class="colorFAB687 svgShape"/>
    <path fill="#c0593a" d="M40.4292,40.8993c-0.23,0.5499-0.55,1.0399-0.95,1.45c-0.02,0.02-0.03,0.03-0.05,0.04
					c-0.09,0.09-0.18,0.1801-0.29,0.27c-0.2,0.17-0.43,0.34-0.67,0.48c-0.07,0.0399-0.15,0.09-0.23,0.12
					c-0.55,0.3-1.16,0.5-1.83,0.55c-0.15,0.01-0.31,0.02-0.47,0.02c-0.24,0-0.46-0.02-0.68-0.04c-0.21-0.04-0.4-0.0701-0.61-0.14
					c-0.02,0-0.02,0-0.03,0c-0.04-0.01-0.08-0.03-0.12-0.04c-0.19-0.0499-0.39-0.13-0.57-0.21c-0.27-0.12-0.53-0.25-0.77-0.41
					c-0.76-0.51-1.36-1.23-1.71-2.08c-0.28-0.67,0.23-1.42,0.97-1.42h7.03C40.1692,39.4893,40.6992,40.2293,40.4292,40.8993z" class="colorC0593A svgShape"/>
    <path d="M32.2704 26.0749l-3.5444.6971c-.4713.0885-.9328-.2157-1.0211-.6872-.0098-.0587-.0197-.1079-.0197-.1668 0-.4025.2945-.7757.707-.8541l3.5444-.6973c.4713-.0882.9229.216 1.0211.6872.0098.059.0197.1081.0197.1671C32.9773 25.6233 32.6828 25.9965 32.2704 26.0749zM40.9597 29.374c0 .9622.7855 1.7379 1.7476 1.7379.9622 0 1.7379-.7757 1.7379-1.7379 0-.9622-.7756-1.7477-1.7379-1.7477C41.7451 27.6263 40.9597 28.4118 40.9597 29.374zM29.7863 29.374c0 .9622.7756 1.7379 1.7379 1.7379.9622 0 1.7476-.7757 1.7476-1.7379 0-.9622-.7855-1.7477-1.7476-1.7477C30.562 27.6263 29.7863 28.4118 29.7863 29.374z" fill="#000000" class="color000 svgShape"/>
    <path fill="#3d2f46" d="M50.5432,23.9705c0,3.2707-0.8506,6.319-2.3087,8.9111c-0.0405,0.0608-0.0709,0.1318-0.1215,0.1926
				c-8.263-4.1214-4.1315-9.8023-12.0603-14.906c-2.6024-1.6809-4.8099-0.1214-4.8099-0.1214
				c-5.0833,2.5417-5.863,5.7516-6.1668,8.7793h-4.5366c-0.1519-0.9214-0.2227-1.8836-0.2227-2.8557
				c0-5.2757,2.1974-9.9843,5.6403-13.0525c2.5822-2.3088,5.8833-3.6962,9.468-3.6962
				C43.7789,7.2217,50.5432,14.7254,50.5432,23.9705z" class="color3D2F46 svgShape"/>
    <path fill="#fab687" d="M22.7545,23.9715c-1.8066,0-3.0793,2.509-2.8472,5.5422c0.227,2.9674,1.8148,5.3259,3.5509,5.3259
				c1.7361,0,3.0186-2.3585,2.8613-5.3259C26.1587,26.4806,24.5612,23.9715,22.7545,23.9715z" class="colorFAB687 svgShape"/>
    <path fill="#ef4f63" d="M38.2392,43.2593c-0.55,0.3-1.16,0.5-1.83,0.55c-0.15,0.01-0.31,0.02-0.47,0.02
				c-0.24,0-0.46-0.02-0.68-0.04c-0.21-0.04-0.4-0.0701-0.61-0.14c-0.02,0-0.02,0-0.03,0c-0.04-0.01-0.08-0.03-0.12-0.04
				c-0.19-0.0499-0.39-0.13-0.57-0.21c-0.27-0.12-0.53-0.25-0.77-0.41c0.5-0.8,1.42-1.33,2.47-1.33
				C36.7892,41.6594,37.7892,42.3194,38.2392,43.2593z" class="colorEF4F63 svgShape"/>
    <path fill="#ffffff" d="M38.4093,39.4893v0.75c0,0.25-0.21,0.46-0.46,0.46h-4.03c-0.25,0-0.45-0.21-0.45-0.46v-0.75H38.4093z" class="colorFFF svgShape"/>
  </g>
</svg>
