<svg xmlns="http://www.w3.org/2000/svg" viewBox="0 0 400 400" width="220" height="220">
  <g data-name="—ëîé_2">
    <path fill="#fff5ee" d="M345.74,331.48c-1.24,10.53-2.22,17.26-2.22,17.26H79.15s-1-6.45-2.41-17.26C70.08,280,41.82,88.93,98.73,52.93c70.5-44.59,150.59,65.6,167.68,84.71,26.73,29.91,50.26-15.51,79.33,18C360.79,173,349.53,299.38,345.74,331.48Z" class="colorfff5ee svgShape"/>
    <path fill="#ffe7d2" d="M345.74 331.48c-1.24 10.53-2.22 17.26-2.22 17.26H79.15s-1-6.45-2.41-17.26zM202.55 27.63h9.5a89.65 89.65 0 0189.65 89.65V276.55a0 0 0 010 0H112.9a0 0 0 010 0V117.29A89.65 89.65 0 01202.55 27.63z" class="colorffe7d2 svgShape"/>
    <polygon fill="#f7ccad" points="284.86 247.26 301.71 276.55 112.9 276.55 129.75 247.26 284.86 247.26" class="colorf7ccad svgShape"/>
    <path fill="#273d54" d="M207.3,37.88h0a77.55,77.55,0,0,1,77.55,77.55V247.27a0,0,0,0,1,0,0H129.75a0,0,0,0,1,0,0V115.43A77.55,77.55,0,0,1,207.3,37.88Z" class="color273d54 svgShape"/>
    <path fill="#ffffff" d="M264.37,86.32c-1.6-1-3.3-.62-5-.44a32.5,32.5,0,0,0-5.67-.53c-1-.22-2.08-.48-3.1-.73-.4-.1-.58.53-.17.63.15,0,.29.08.44.12l-1.26,0c-4.55.16-9.07.41-13.62.24-5.33-.2-10.66,0-16,.18s-10.73.22-16.1.22H187.79c-5.4,0-10.78.17-16.18.3-2.67.06-5.33,0-8,.08s-5.31.21-8,.23a48.42,48.42,0,0,1-6.59-.44,31.87,31.87,0,0,0-6.54-.35,8.23,8.23,0,0,0-4.66,1.62A10.14,10.14,0,0,0,135.4,91a23.48,23.48,0,0,0-2.2,9.67,11.45,11.45,0,0,0,.15,1.94c.1.6.89.44,1.07,0A16.15,16.15,0,0,1,141,94.59a14.23,14.23,0,0,1,9.38-1.6A33,33,0,0,1,156,94.63a34.48,34.48,0,0,0,6.78,1.68,30.48,30.48,0,0,0,7,0,37,37,0,0,1,7-.26,32.15,32.15,0,0,1,6.65,1.83,29.87,29.87,0,0,0,6.4,1.47c4.77.43,9.61-.95,14.22-2,9.73-2.22,19.7-2.52,29.59-3.56,4.81-.5,9.66-1,14.41-2,2.35-.45,4.62-1.15,6.94-1.7,2.14-.52,4.32-.8,6.42-1.45a17.26,17.26,0,0,0,3-1.26A.63.63,0,0,0,264.37,86.32Z" opacity=".21" class="colorfff svgShape"/>
    <path style="mix-blend-mode:soft-light" fill="#ffffff" d="M133.26,101.92c0,.24.05.49.09.73.1.6.89.44,1.07,0A18.85,18.85,0,0,1,137.07,98,28.49,28.49,0,0,0,133.26,101.92Z" class="colorfff svgShape"/>
    <path fill="#ffffff" d="M264.37,86.32c-1.6-1-3.3-.62-5-.44a32.5,32.5,0,0,0-5.67-.53c-1-.22-2.08-.48-3.1-.73-.4-.1-.58.53-.17.63.15,0,.29.08.44.12l-1.26,0c-4.55.16-9.07.41-13.62.24-5.33-.2-10.66,0-16,.18s-10.73.22-16.1.22H187.79c-5.4,0-10.78.17-16.18.3-2.67.06-5.33,0-8,.08s-5.31.21-8,.23a48.42,48.42,0,0,1-6.59-.44,31.87,31.87,0,0,0-6.54-.35,8.23,8.23,0,0,0-4.66,1.62A10.14,10.14,0,0,0,135.4,91a23.59,23.59,0,0,0-1.68,5,30.67,30.67,0,0,1,2.94-2.39c7.84-5.58,17.92-5,27.05-4.08,2.62.27,5.25.61,7.88.79s5.4.15,8.09.16c5.57,0,11.14-.16,16.7-.35,11.06-.38,22.12-.49,33.18-.81,10.71-.32,21.44-1.06,32.15-.88a16.86,16.86,0,0,0,2.66-1.13A.63.63,0,0,0,264.37,86.32Z" opacity=".46" class="colorfff svgShape"/>
    <path fill="#ffffff" d="M207.3,37.88h0a77.54,77.54,0,0,0-77.46,74.06c.09-.75.19-1.5.31-2.25,1.64-10,6.4-19.25,12.31-27.37a112.18,112.18,0,0,1,22.29-23.14,60.55,60.55,0,0,1,13.56-8,42.37,42.37,0,0,1,7.55-2.36c2.36-.49,4.83-.46,7.16-1.06,7.16-1.82,15-10,22.66-6.52,9.46,1.06,17.62,6.71,24.84,12.55,3.81,3.08,7.45,6.36,11.23,9.47,1.78,1.48,3.71,2.81,5.45,4.34a25.58,25.58,0,0,1,4.74,5.57c4.89,7.76,4.81,17.18,6.49,25.91,1,5.12,3.25,9.79,4.5,14.84a59.91,59.91,0,0,1,1.6,16.07c-.15,5.48-.79,10.94-1.24,16.4a58.88,58.88,0,0,0-.26,8.81c.21,3,.65,6.09.72,9.15a29.15,29.15,0,0,1-1.19,9c-.84,2.86-1.93,5.64-2.93,8.45-1.65,4.62-3.56,9.78-2.17,14.69,2.24,7.88,9.38,13.63,9.69,22.21.15,4.37-1.62,9.41-5.19,12.09-3,2.22-6.74,2.09-10.25,1.8a52.57,52.57,0,0,0-5.61-.29,29.63,29.63,0,0,0-7.17,1.2c-4.66,1.3-9.19,3.12-14.09,3.27-5.37.16-10.47-2-15.5-3.54a39.11,39.11,0,0,0-14.58-2.15c-5.28.36-10.54,1.57-15.77,2.3a121,121,0,0,1-16.78,1.42,46.55,46.55,0,0,1-15.42-2.19,10.1,10.1,0,0,1-5.43-4c-1.05-1.6-1.81-3.37-3.37-4.59s-3.92-1.73-5.65-3a13,13,0,0,1-4.08-5.82c-1.71-4.22-1.86-9-1.48-13.49.8-9.45,3.95-18.41,5.83-27.66a17.83,17.83,0,0,0,.2-7.45c-.63-2.82-2.25-5.16-3.38-7.79s-1.63-5.8-2.34-8.73-1.44-5.66-2.3-8.45c-1.7-5.49-3.92-10.73-4.76-16.46-.11-.76-.2-1.52-.28-2.28V247.27H284.86V115.43A77.55,77.55,0,0,0,207.3,37.88Z" opacity=".21" class="colorfff svgShape"/>
    <path fill="#ffffff" d="M276.4,89.57c0,1.7.09,3.41.18,5.11.46,1.5.94,3,1.33,4.53a121.59,121.59,0,0,1,2.42,12.13,117.74,117.74,0,0,1,.91,24c-.42,8-1.39,16-2.31,24-.47,4.05-1,8.11-1.28,12.17a78.66,78.66,0,0,0,.31,11.69c.37,3.91,1,7.8,1.51,11.69.49,3.45.87,6.91,1.39,10.35.94,6.16,2.36,12.41,1.32,18.65a18.3,18.3,0,0,1-10.69,13.59c-5.46,2.34-11.47,1.85-17.26,2-6.92.21-13.27,3-20,4.28-7.7,1.45-15.76,1.48-23.57,1.62s-16,.54-23.94.09A52.39,52.39,0,0,1,175.4,244c-3.22-.93-6.6-3.05-10-3-3.69,0-7.22,1.54-10.94,1.4-3.15-.12-6.27-1.39-9.14-2.64a23.73,23.73,0,0,1-10.62-8.62c-2.65-4.11-3.65-9-4.12-13.82a101.57,101.57,0,0,1,0-22.59c1-7.69,3.8-15,5.15-22.56a41.12,41.12,0,0,0,.54-11.56A51.86,51.86,0,0,0,133.66,150c-1.13-3.4-2.37-6.72-3.27-10.19-.22-.86-.43-1.71-.64-2.57V247.27H284.86V115.43a77.28,77.28,0,0,0-7.67-33.66A33.87,33.87,0,0,0,276.4,89.57Z" opacity=".46" class="colorfff svgShape"/>
    <path fill="#ffffff" d="M214.49 40.55c-2.41-.11 4.16 29.69 4.16 29.69s1.79-22.21 4-22.66 5 81.74 5 81.74 3.46-70.55 5.17-70.39 6.3 44.84 6.3 44.84 3-54.14 4.37-54.49 9 5 8.83 5.49 4 26.74 4 26.74 2.87-15.27 4.31-14.8 2.19 7.06 4 7.56S270 141.2 270 141.2l4.9-61s-15.24-20.1-17.74-22.35S237.47 41.61 214.49 40.55zM170.85 49.28c1-.12-.86 17.29-.86 17.29L168.74 51.1l-10.25 7.5L156.23 115s-.45-46.52-1.68-47.18-2.34 13.74-2.34 13.74-1.39-9.91-2.39-9.74-3.18 68.47-3.09 68-1.58-67.66-1.58-67.66S159.21 50.63 170.85 49.28z" class="colorfff svgShape"/>
    <path fill="#efb275" d="M207.3,37.88h0a77.55,77.55,0,0,0-77.55,77.55V247.27H284.86V115.43A77.55,77.55,0,0,0,207.3,37.88Zm73.56,205.39H133.75V115.43a73.56,73.56,0,0,1,147.11,0Z" class="colorefb275 svgShape"/>
    <path fill="#efb275" d="M274.89,88.93H137.15a2,2,0,0,1,0-4H274.89a2,2,0,0,1,0,4Z" class="colorefb275 svgShape"/>
    <path fill="#efb275" d="M180.08 88.93a2 2 0 01-2-2V46.21a2 2 0 014 0V86.93A2 2 0 01180.08 88.93zM234.53 88.93a2 2 0 01-2-2V46.21a2 2 0 014 0V86.93A2 2 0 01234.53 88.93z" class="colorefb275 svgShape"/>
    <path fill="#ffd93b" d="M274.9,272.47c-1.84-4.27-4.8-8.08-7.58-11.77a54.84,54.84,0,0,0-6.34-7,35.32,35.32,0,0,0-7.58-5.62c-1.38-.73-2.85-1.29-4.28-1.92s-3.08-1.41-4.63-2.07a38.59,38.59,0,0,0-9.69-2.87c-7.57-1.09-15.07.54-22.49,1.88-7.72,1.4-15.52,2.45-23.34,3.08-3.55.29-7.09.42-10.65.58a44.86,44.86,0,0,0-9.79,1.23,25.86,25.86,0,0,0-4.16,1.68c-.51.24-1.05.49-1.6.69l-.67,0c-2.73,0-5.45-.31-8.18-.45a20.37,20.37,0,0,0-7.73.78,11,11,0,0,0-3.32,1.85,8.85,8.85,0,0,0-2.38,3.65,10.12,10.12,0,0,1-2.84,3.94c-1.2,1-2.52,1.91-3.67,3-1.87,1.8-3.26,4.16-2.19,6.76s3.27,4.45,4.81,6.66a29.67,29.67,0,0,1,4.07,8.74c1.81,6.22,2.18,12.73,3.14,19.1a44.26,44.26,0,0,0,1.44,7.12c.53,1.6,1.88,4.1,4,3a5.65,5.65,0,0,0,2.06-2.42,30.06,30.06,0,0,0,1.4-3.18,51.2,51.2,0,0,1,3.69-7.46,20.11,20.11,0,0,1,5.81-6.4,27,27,0,0,1,8.88-3.58c6.56-1.56,13.39-1.53,20.09-1.49,3.34,0,6.68.07,10-.06a73.63,73.63,0,0,0,11-1.57,42.22,42.22,0,0,1,11.14-1.06c3.54.27,7,1.27,10.45,1.84a30.08,30.08,0,0,0,5.36.46c1.87,0,3.75-.21,5.61-.38q5.76-.54,11.46-1.57c2.78-.5,5.54-1.12,8.28-1.79a34.38,34.38,0,0,0,7.64-2.64c1.83-1,3.52-2.33,3.94-4.45A10.88,10.88,0,0,0,274.9,272.47Z" class="colorffd93b svgShape"/>
    <path style="mix-blend-mode:multiply" fill="#ffd93b" d="M249.12 246.14l-2.6-1.18c-1.65.06-3.29.12-4.94.2-11.07.55-21.93 2.74-32.86 4.49-10.66 1.72-21.35 3.19-32.06 4.56-8.66 1.11-17.42 2.5-25.72 5.25a66.12 66.12 0 00-12 5.24c-2.52 1.44-5 3.05-7.35 4.7a5 5 0 00.18.5c1 2.53 3.27 4.45 4.81 6.66a26.43 26.43 0 012.22 3.86c4.4-5.92 11.24-10.15 17.84-13.08 8.71-3.88 18-6.33 27-9.15 2.29-.71 4.55-1.54 6.86-2.21a63.34 63.34 0 019.85-1.95A187 187 0 01220.49 253a175.16 175.16 0 0020.09-1.37 129.25 129.25 0 0116.2-1.41 28.23 28.23 0 00-3.38-2.13C252 247.33 250.55 246.77 249.12 246.14zM271.51 266.44l-.34 0c-6.88.34-13.74-.08-20.6.67a150.78 150.78 0 00-18 3.4c-6.11 1.44-12.26 3.2-18.5 4-6.43.81-12.79-.37-19.23-.38a48 48 0 00-16.22 3.15 120.37 120.37 0 00-15.52 7.06c-4.31 2.27-8.26 4.65-11 8.82-3.44 5.23-4.78 11.45-7.18 17.16.11.4.21.81.34 1.2.53 1.6 1.88 4.1 4 3a5.65 5.65 0 002.06-2.42 30.06 30.06 0 001.4-3.18 51.2 51.2 0 013.69-7.46 20.11 20.11 0 015.81-6.4 27 27 0 018.88-3.58c6.56-1.56 13.39-1.53 20.09-1.49 3.34 0 6.68.07 10-.06a73.63 73.63 0 0011-1.57 42.22 42.22 0 0111.14-1.06c3.54.27 7 1.27 10.45 1.84a30.08 30.08 0 005.36.46c1.87 0 3.75-.21 5.61-.38q5.76-.54 11.46-1.57c2.78-.5 5.54-1.12 8.28-1.79a34.38 34.38 0 007.64-2.64c1.83-1 3.52-2.33 3.94-4.45a10.88 10.88 0 00-1.11-6.33A36.91 36.91 0 00271.51 266.44z" class="colorffd93b svgShape"/>
    <path style="mix-blend-mode:multiply" fill="#ffd93b" d="M171.33 289.48c-6.88-1.76-14.32-1.31-21.32-.68-2.77.25-5.54.58-8.3.85 1 4.87 1.36 9.85 2.1 14.75a44.26 44.26 0 001.44 7.12c.53 1.6 1.88 4.1 4 3a5.65 5.65 0 002.06-2.42 30.06 30.06 0 001.4-3.18 51.2 51.2 0 013.69-7.46 20.11 20.11 0 015.81-6.4 27 27 0 018.88-3.58c1.26-.3 2.54-.53 3.83-.72A18.94 18.94 0 00171.33 289.48zM274.9 272.47c-1.84-4.27-4.8-8.08-7.58-11.77a54.84 54.84 0 00-6.34-7 35.32 35.32 0 00-7.58-5.62c-1.38-.73-2.85-1.29-4.28-1.92s-3.08-1.41-4.63-2.07a38.59 38.59 0 00-9.69-2.87 48.14 48.14 0 00-14.28.44c5.11 3.24 9.91 7 15.15 10 6.52 3.75 13.78 6.05 20.21 9.92 4.67 2.81 7.6 6.8 9.71 11.74 1.2 2.81 2.12 5.78 3.7 8.42.44.74.93 1.46 1.42 2.18.46-.2.92-.39 1.36-.62 1.83-1 3.52-2.33 3.94-4.45A10.88 10.88 0 00274.9 272.47zM229.18 285.15a48.23 48.23 0 00-5-8.56 51.56 51.56 0 00-12.37-12.42 27 27 0 00-6.5-3.48A42.7 42.7 0 00194.66 259a73.87 73.87 0 01-11.85-1.7q-6-1.45-12.08-2.87c-4-.95-8.17-1.78-12.18-2.9-1.8-.5-3.58-1-5.35-1.6a19 19 0 00-7 .8 11 11 0 00-3.32 1.85 8.85 8.85 0 00-2.38 3.65 10.12 10.12 0 01-2.84 3.94c-1.2 1-2.52 1.91-3.67 3a11.48 11.48 0 00-1.27 1.44c.64-.13 1.29-.24 1.95-.32a40.11 40.11 0 0111.26.52c6.57 1.12 12.94 3.24 19.57 4.07 3 .38 6 .32 8.94.68a48.82 48.82 0 018.28 1.68c9.34 2.82 17.68 9.24 20.49 18.6 3-.28 6-.85 8.93-1.42a42.22 42.22 0 0111.14-1.06 56.37 56.37 0 017.2 1.22C230.1 287.39 229.66 286.26 229.18 285.15z" class="colorffd93b svgShape"/>
    <path fill="#ffcac5" d="M123,237c4.22,11.69,16.7,19.08,21.71,20.77,4.78,1.61,14.78,1.15,18.74-1.82a5.89,5.89,0,0,0,.53-.44c3.53-3.37,12.47-16.84-.53-35.53s-28.87-15.77-34.4-12.61a8.48,8.48,0,0,0-2.06,1.74C122.44,214.25,119.29,226.81,123,237Z" class="colorffcac5 svgShape"/>
    <path fill="#f7a8a4" d="M123,237c4.22,11.69,16.7,19.08,21.71,20.77,4.78,1.61,14.78,1.15,18.74-1.82-3.3.4-6.75-.61-12.21-2.67-6.37-2.41-17.18-11.93-19.63-15.94s-5.35-14.7-5.55-18.18a68.21,68.21,0,0,1,.93-10.05C122.44,214.25,119.29,226.81,123,237Z" class="colorf7a8a4 svgShape"/>
    <path fill="#fc857a" d="M127.83,208.27c-1.69,4.57-2.76,22.63,8.18,33.6s22.64,14.82,28,13.66c0,0,.58,2.65.23,3.19s-1.78-2.21-2.63-2.3-1.22,3.33-1.79,3.27-1.32-3.89-2.17-4-2.14,3.81-3,3.43-.11-4.34-1.22-4.74-2.67,3.46-3.75,2.77.42-4-.66-4.69-3.21,3.12-4.29,2.43.77-4.53-.31-5.22-3.79,3.05-4.87,2.36,1.35-4.47.3-5.45-4.3,2.43-5.09,1.76,1.94-4.69,1.15-5.35-4.55,2.11-5.32,1.16,2.68-3.46,2-4.69-4.4.68-5.13-.55,3.21-3.12,2.51-4.63-4.68.65-5.13-.55,4-2.17,3.28-3.69-4-.71-4.41-1.91,3.12-2.26,3-3.43-3.42-.37-3.62-1.26,3-1.12,2.84-2.29-3.07-.9-3-1.76,2.75-1.43,2.81-2-3.3-1.51-3.21-2.37,3-.83,3-1.4-2.45-1.42-2.07-2.24,2.25.53,2.6,0-1.53-1.89-1.16-2.72S127.83,208.27,127.83,208.27Z" class="colorfc857a svgShape"/>
    <path fill="#ffd93b" d="M137.66,234.55c8.92,13.64,21.45,16.22,24.09,14.68,4.61-2.67,4.56-15.65-2.33-26.77a30.58,30.58,0,0,0-1.87-2.7l-.16-.21c-.39-.49-.78-1-1.18-1.42-.1-.11-.19-.22-.29-.32a27,27,0,0,0-15-8.69l-.27,0a11.14,11.14,0,0,0-1.94-.12h-.38a6.49,6.49,0,0,0-1.08.16C133.06,210.12,128.74,220.91,137.66,234.55Z" class="colorffd93b svgShape"/>
    <path fill="#ea8686" d="M142.3 238.2c-.43.74-.32 2.2.65 2.48 1.41.42 2.6-2 1.34-3.14C143.55 236.88 142.68 237.52 142.3 238.2zm1.18-.61a.72.72 0 01.88.44 1.68 1.68 0 01.09 1.3 1.75 1.75 0 01-1 1.07c-.74.25-1.13-.58-1.15-1.19A1.83 1.83 0 01143.48 237.59zM149.51 240.53c.2.84 1.26 1.83 2.17 1.39 1.32-.65.54-3.25-1.14-3.22C149.54 238.71 149.34 239.77 149.51 240.53zm.46-1.25a.72.72 0 01.95-.27 1.62 1.62 0 01.94.9 1.69 1.69 0 010 1.44c-.37.69-1.22.34-1.64-.1A1.82 1.82 0 01150 239.28zM161.62 243.2c.48.71 1.82 1.27 2.52.54 1-1.07-.63-3.24-2.2-2.62C161 241.48 161.19 242.54 161.62 243.2zm0-1.34c.16-.57.49-.55.78-.58a1.67 1.67 0 011.21.51 1.75 1.75 0 01.51 1.35c-.11.77-1 .74-1.57.48A1.8 1.8 0 01161.62 241.86zM134.84 224.53c-.8.3-1.67 1.47-1.12 2.32.8 1.23 3.29.15 3.06-1.51C136.65 224.34 135.58 224.27 134.84 224.53zm1.3.31a.72.72 0 01.38.91 1.68 1.68 0 01-.79 1.05 1.74 1.74 0 01-1.42.18c-.73-.29-.48-1.18-.1-1.65A1.82 1.82 0 01136.14 224.84zM138.7 211.22c1.08.54 2.34-.86 2.17-2.1l-.27 0a1.9 1.9 0 01-.2 1.07 1.79 1.79 0 01-1.14.89c-.77.12-1-.77-.92-1.37a1.65 1.65 0 01.32-.71h-.38C137.91 209.7 137.91 210.84 138.7 211.22zM154.27 219.19c0 1.4 2.45 1.85 3.28.57l-.16-.21-.17.21a1.69 1.69 0 01-1.22.46 1.73 1.73 0 01-1.31-.61c-.45-.63.23-1.25.81-1.44a1.49 1.49 0 01.71 0c-.1-.11-.19-.22-.29-.32C155.14 217.87 154.26 218.37 154.27 219.19zM141.49 230.12c-.85.1-2 1-1.64 2 .49 1.39 3.16.94 3.33-.73C143.29 230.37 142.27 230 141.49 230.12zm1.19.61a.72.72 0 01.15 1 1.65 1.65 0 01-1 .83 1.74 1.74 0 01-1.43-.16c-.64-.45-.19-1.25.3-1.62A1.82 1.82 0 01142.68 230.73zM153.39 246.75c0 .85.74 2.09 1.73 1.9 1.45-.29 1.37-3-.26-3.41C153.89 245 153.42 246 153.39 246.75zm.77-1.09a.7.7 0 011 0 1.64 1.64 0 01.68 1.12 1.69 1.69 0 01-.36 1.39c-.54.57-1.27 0-1.56-.52A1.8 1.8 0 01154.16 245.66zM161.21 233.1c-.32.79 0 2.22 1 2.37 1.45.21 2.29-2.37.89-3.3C162.26 231.62 161.49 232.37 161.21 233.1zm1.09-.77a.72.72 0 01.93.31 1.68 1.68 0 01.26 1.28 1.74 1.74 0 01-.81 1.2c-.69.35-1.19-.42-1.3-1A1.84 1.84 0 01162.3 232.33zM138.91 217.72c-.37-.77-1.63-1.51-2.41-.87-1.15.92.18 3.28 1.81 2.89C139.28 219.5 139.25 218.43 138.91 217.72zm-.18 1.33c-.24.54-.56.48-.86.47a1.69 1.69 0 01-1.12-.68 1.76 1.76 0 01-.33-1.4c.22-.75 1.12-.6 1.63-.26A1.79 1.79 0 01138.73 219.05zM148.29 216.9c0-.85-.73-2.1-1.72-1.91-1.44.27-1.39 3 .23 3.4C147.77 218.65 148.25 217.68 148.29 216.9zm-.78 1.09a.71.71 0 01-1 0 1.64 1.64 0 01-.68-1.12 1.74 1.74 0 01.38-1.39c.54-.56 1.27 0 1.56.54A1.82 1.82 0 01147.51 218zM155.61 227.92c.85-.11 1.94-1.07 1.59-2-.51-1.38-3.18-.87-3.31.81C153.8 227.72 154.83 228 155.61 227.92zm-1.2-.58a.71.71 0 01-.18-1 1.65 1.65 0 011-.86 1.74 1.74 0 011.43.13c.64.44.21 1.25-.26 1.63A1.82 1.82 0 01154.41 227.34z" class="colorea8686 svgShape"/>
    <path fill="#ffeea6" d="M137.66,234.55c8.92,13.64,21.45,16.22,24.09,14.68,4.61-2.67,4.56-15.65-2.33-26.77s-18.07-14.33-22.22-13.33S128.74,220.91,137.66,234.55Zm-.13-24.38c3.81-.92,14.71,2.57,21.06,12.82s6.83,22.42,2.58,24.89c-2.43,1.41-14.42-1.17-22.64-13.75S133.71,211.09,137.53,210.17Z" class="colorffeea6 svgShape"/>
    <path fill="#ffeea6" d="M158.05,242.06c-2.12,1.26-10.11-2.52-15.31-10.57s-5-15.53-2.57-16.42,9.71,3.63,14.2,10.16S160.51,240.6,158.05,242.06Z" class="colorffeea6 svgShape"/>
    <path fill="#ffcac5" d="M156.83,239.91c-1.62,1-8.67-2.94-12.64-9.1s-4.61-13.2-2.77-13.88,8.23,4.11,11.66,9.1S158.72,238.79,156.83,239.91Z" class="colorffcac5 svgShape"/>
    <polygon fill="#ffffff" points="211.8 145.7 209 149.33 206.16 144.37 210.4 143.03 211.8 145.7" class="colorfff svgShape"/>
    <path fill="#fcd78d" d="M154.74,244.05c.62,4,4.71,4.63,7,4s6.33-7.65,3.45-9.26S154.11,239.94,154.74,244.05Z" class="colorfcd78d svgShape"/>
    <path fill="#ffa599" d="M179.91,317.24a48.73,48.73,0,0,1-7.17,8c-3.75,3.17-8.37,7.61-4.88,12.78s4.31,12,4.66,16.79,7.57,12.11,11.71,10.3,9.38-10.4,9-13.67-6.77-13.37-7.89-15.88,2.79-13.85,2.79-13.85Z" class="colorffa599 svgShape"/>
    <path fill="#ffcac5" d="M184.24,309.1c-1.08,1.13-6.44,7.25-6.48,8.23s6.84,12.62,8.62,14,9.14-5.38,9.8-8.18S186.84,306.39,184.24,309.1Z" class="colorffcac5 svgShape"/>
    <path fill="#ffcac5" d="M199.38,329.39c.8-3.88-.52-2.83-6-5.08s-11-6.92-11.86-2.58S198.78,332.34,199.38,329.39Z" class="colorffcac5 svgShape"/>
    <path fill="#9e77a5" d="M253.43,255c-4.17-6.64-13.36-11-19.66-14.23-2.6-1.33-5.23-2.6-7.83-3.92s-5.09-2.74-7.69-4a57.78,57.78,0,0,0-5.6-2.39,6.74,6.74,0,0,0-2.78-.93,17.11,17.11,0,0,0-4.2.55,32,32,0,0,0-8.1,2.8c-2,1-4,1.93-5.87,3.06a13,13,0,0,0-4.49,4,6.73,6.73,0,0,0-.2,6.09c1.78,4.54,5.86,8.24,10,10.72a30.37,30.37,0,0,0,7.11,3.1c2.88.84,5.78,1.63,8.7,2.27,4.9,1.07,9.89,1.34,14.71,2.81,2,.6-2.66,2.17-3.49,2.59-12.46,6.34-20.67,16.26-26.84,28.86a64.8,64.8,0,0,0-5.3,14.77,42.38,42.38,0,0,0-.9,7.26,12.83,12.83,0,0,0,.7,5.64,2,2,0,0,0,1.61,1.3,3,3,0,0,0,2.06-1.06c.66-.63,1.21-1.36,1.84-2,.94-1,2-1.86,2.89-2.84,4-4.24,7.44-9,11.59-13.13,4.35-4.32,8.79-8.55,13.4-12.58,8.81-7.72,20.78-12.8,27.52-22.72,2.37-3.49,3.71-7.9,2.63-12A14.8,14.8,0,0,0,253.43,255Z" class="color9e77a5 svgShape"/>
    <path fill="#9e77a5" d="M221.66,262.6a14.31,14.31,0,0,0-3.6-5.92,55.43,55.43,0,0,0-5.45-4.71c-2.39-1.92-5.05-3.61-7.18-5.82-1.89-2-3.39-4.29-5.25-6.3a27.44,27.44,0,0,0-5.37-4.54c-4.1-2.61-8.82-3.81-13.56-4.67-6.78-1.22-14.13-.81-19.41,4.1a12,12,0,0,0-1.76,2c-1.32,1.95-1.43,4.17-2,6.39a27.88,27.88,0,0,0-.68,3.51,25.25,25.25,0,0,0,0,3.69,37.75,37.75,0,0,0,1.07,7.16,23.62,23.62,0,0,0,2.15,6c3.68,6.57,11.2,9.06,18.19,10.29,1.12.2,2.25.4,3.39.5a32.33,32.33,0,0,0,4.29-.06l4.26-.21c.65,0,1.3-.06,1.94-.05l-1,1.24a28.5,28.5,0,0,0-3.11,4.46,49.45,49.45,0,0,0-2.45,5.46,54.82,54.82,0,0,0-2,5.87c-2.18,7.89-1.54,16.21-.73,24.25a79.4,79.4,0,0,1,.45,8.44c0,1.34-1,3.42,0,4.59a7.9,7.9,0,0,0,1.05,1,23.07,23.07,0,0,1,2.06,2.24c1,1.13,5.61,5.41,7.37,4.54.69-.34.44-3.47.6-4.33a32.86,32.86,0,0,1,1.26-4.67c1-3,1.81-6,2.65-9s1.68-6.18,2.68-9.22a63.11,63.11,0,0,1,3.33-8.07c2.53-5.18,5.59-10.07,8.52-15,1.48-2.48,3-5,4.27-7.56a65,65,0,0,0,3.57-7.61A13.73,13.73,0,0,0,221.66,262.6Z" class="color9e77a5 svgShape"/>
    <path fill="#6f4777" d="M192.15,274.06a.23.23,0,0,1-.2-.1.25.25,0,0,1,.05-.35l7-5.21a.25.25,0,1,1,.3.4l-7,5.21A.23.23,0,0,1,192.15,274.06Z" class="color6f4777 svgShape"/>
    <path fill="#ffa599" d="M182.28,326.23c-1.87-2.29-.7,7.55-2.37,12.7s-6.62,7.8-3.79,11.8,7.46,6.08,9.65,11.45,8.2,7.38,13.82,7.38,11.09-.88,9-5.13-10.85-15.3-12.46-20.06,0-12.56,0-12.56S189.07,334.53,182.28,326.23Z" class="colorffa599 svgShape"/>
    <path fill="#ffcac5" d="M182.61,320.89c.91.82,12.87,6.44,15.75,6.18s-1.11,9.89-2.18,10.64-6.4.21-9.8-1.6-5.84-2.75-6-4.19S180.85,319.31,182.61,320.89Z" class="colorffcac5 svgShape"/>
    <path fill="#ffeecc" d="M210.18,159.54c2.36,4.17,6.19,19.49,7.19,22.88s-.4,13.51-1,16.68.73,17.62-2.52,15.53-7.86-2-9.07-4-4.57-28.25-3.58-34.22S207.62,155,210.18,159.54Z" class="colorfec svgShape"/>
    <path fill="#ffe7b3" d="M227.67,198.83c-.6-2.77-.87-5.64-2.53-8A11.44,11.44,0,0,0,222.2,188c-1.11-.8-2.33-1.75-3.78-1.61a5.59,5.59,0,0,0-3.32,2.06,10.3,10.3,0,0,0-2.08,3.41c-1.07,2.75-1.12,5.74-1.35,8.64a95,95,0,0,0-.64,9.68,9.44,9.44,0,0,0,.84,4.19,4.12,4.12,0,0,0,1.39,1.57c.65.4,1.42.53,2.08.92,1.32.77,2.4,2,3.85,2.54a.61.61,0,0,0,.45.43c1.33.34,2.6.57,3.81-.26a5.75,5.75,0,0,0,1.91-2.57,33.29,33.29,0,0,0,2.13-8A28.63,28.63,0,0,0,227.67,198.83Z" class="colorffe7b3 svgShape"/>
    <path fill="#c1481e" d="M223.51,118.46a27,27,0,0,1-2.54-1.85c-.88-.66-1.83-1.23-2.74-1.84-1.89-1.29-3.88-2.43-5.7-3.8-3.23-2.42-7.44-4.41-11.56-3.83A30.31,30.31,0,0,0,195,109a19.3,19.3,0,0,1-3.25.89,13.3,13.3,0,0,0-2.51.51,4,4,0,0,0-1.87,1.41c-.68.92-1.41,1.78-2.15,2.65-1.44,1.7-2.61,3.59-3.93,5.37a27,27,0,0,1-2,2.33,8.29,8.29,0,0,0-1.55,2c-2.18,4.49.75,8.07,3.65,10.75a48.14,48.14,0,0,1,5.34,6.63c1.34,1.85,1.71,1.35,3.88,1.4,3.38.08,6.64-1.27,9.54-2.91a46.92,46.92,0,0,0,9.4-7.39c1.53-1.49,3-3,4.66-4.37,1.21-1,2.5-2,3.72-3l-.06.06c-.14.11,0,.34.19.24a25.38,25.38,0,0,0,3.69-3.18,5.1,5.1,0,0,0,1.94-3.52A.57.57,0,0,0,223.51,118.46Z" class="colorc1481e svgShape"/>
    <path fill="#ffcac5" d="M214,224.67c-1.08-1.85-2.13-3.67-3-5.61a47.51,47.51,0,0,1-2.93-7.65,24.84,24.84,0,0,1-1-8.26,51,51,0,0,1,1.61-8.2,27.11,27.11,0,0,0,1-8.11c-.21-2.93-1.09-5.78-1.16-8.73a33,33,0,0,1,1-7.91c.44-1.92,1-3.82,1.21-5.78a8.71,8.71,0,0,0-.73-5.56c-1.12-1.84-3.24-2.3-5.22-2.62-2.7-.44-5.38-.93-8.1-1.2-3-.31-6-.43-9-.86s-5.79-.9-8.7-1.28c-2.41-.32-5-.61-7.29.43-1.15.53-1.81,1.51-2.82,2.21l-.51.32a36.7,36.7,0,0,1-3.79,1.41,69,69,0,0,0-7.25,2.64,17.5,17.5,0,0,0-4.71,3,11.74,11.74,0,0,0-1.1,1.13,13.51,13.51,0,0,0-2.87,5.9c-1,4.49.07,9.22,1.67,13.44,1,2.56,2.17,5,3.25,7.55q1.83,4.26,3.54,8.56a60.33,60.33,0,0,1,2.85,7.44,13.65,13.65,0,0,1,.4,2.37,10.58,10.58,0,0,1,0,1.78,20.29,20.29,0,0,1-.89,4,22.5,22.5,0,0,0-.84,3.7,9.34,9.34,0,0,0,.39,3.75,10.46,10.46,0,0,1,.6,4.07,12.63,12.63,0,0,1-1.67,4,33.22,33.22,0,0,0-2.91,9.35,9.07,9.07,0,0,0-.15,4.11c.41,1.3,1.6.95,2.54.4,1.36-.78,2.48-1.91,3.83-2.7a41.43,41.43,0,0,1,7.57-3.91c4.66-1.57,9.61-.54,14.23.6s9.36,2.52,14.08,1.84a28.53,28.53,0,0,0,7.61-2.54c1.31-.6,2.59-1.24,3.89-1.84,1.13-.51,2.28-1,3.39-1.53,1.82-.91,3.8-2.07,4-4.31C216,228.15,214.91,226.27,214,224.67Z" class="colorffcac5 svgShape"/>
    <path fill="#ffe7b3" d="M203.14,154.86c-.53-3.8-5.86-3.89-8.66-4.93-3.23-1.22-6.06-3.88-8.29-6.45a17.24,17.24,0,0,0-3.89-3.64,5.92,5.92,0,0,0-4.69-.86c-2.77.86-2.93,4.33-3.55,6.67a16.44,16.44,0,0,1-1,3,7.06,7.06,0,0,1-1.74,2.07c-1.2,1.07-2.35,2.48-1.28,4.08a11.78,11.78,0,0,0,1.72,1.74,19.52,19.52,0,0,1,2.08,2.61c1.25,1.75,2.54,3.45,3.93,5.09,2.6,3.05,5.62,6.08,9.34,7.74a8,8,0,0,0,5.58.61,7.61,7.61,0,0,0,4.14-2.68,16.58,16.58,0,0,0,1.93-5.35,13.35,13.35,0,0,1,2.45-5.32C202.21,158,203.39,156.59,203.14,154.86Z" class="colorffe7b3 svgShape"/>
    <path fill="#eaca78" d="M200,152.83a11.4,11.4,0,0,0-1.66-.73l-.59-.2c-1.17-.37-2.31-.63-2.94-.84a18.43,18.43,0,0,1-3.18-1.41,27.32,27.32,0,0,1-5.62-4.17,40.83,40.83,0,0,0-3.17-3.12h0a5.31,5.31,0,0,0-2.46-1.15.66.66,0,0,0-.48.13,1.29,1.29,0,0,0-.88.39,2.31,2.31,0,0,0-.33,2.09,10.16,10.16,0,0,0,.75,2.28,8.37,8.37,0,0,0,.73,1.27,20.86,20.86,0,0,0,4.22,4.12,45.49,45.49,0,0,0,6.53,4.77,20.81,20.81,0,0,0,2,.94,15.66,15.66,0,0,0,2.2.71,11.31,11.31,0,0,0,1.63.27c1.83.17,3.88-.36,4.74-2.14C202.16,154.57,201.33,153.56,200,152.83Z" class="coloreaca78 svgShape"/>
    <path fill="#ff8f76" d="M218.78,122.67a.31.31,0,0,0-.05-.1c-.86-1.48-3.1-1.33-4.53-1.31a30.25,30.25,0,0,0-3.8.3,26.75,26.75,0,0,0-7.27,2.07,10.61,10.61,0,0,0-1.5.77,16.73,16.73,0,0,1-1.75,1,13.54,13.54,0,0,0-2.86,2.2c-3.82,3.6-6.26,9.25-5.36,14.54.61,3.6,3.47,6.41,6.3,8.47s7,5,10.29,2.46a6.69,6.69,0,0,0,1.51-1.63c.23-.35.34-.56.74-.67a.86.86,0,0,0,.48-.25c.9-1.1-.64-2-1.3-2.63a7.94,7.94,0,0,1-2-2.93l.11.1a6.69,6.69,0,0,0,1.42.93c.93.47,1.72,1.29,2.84,1,.88-.19,1.09-.67,1.27-1.47a1.7,1.7,0,0,1,.85-1.22c.51-.26,1.11-.16,1.63-.38a1.69,1.69,0,0,0,1-1.94c-.17-1.13-.69-2.18-.87-3.33a7.32,7.32,0,0,1,.6-4c.23-.56.56-1.07.82-1.63a9.12,9.12,0,0,0,.55-1.7,27.52,27.52,0,0,0,1.09-7.49A2.89,2.89,0,0,0,218.78,122.67Z" class="colorff8f76 svgShape"/>
    <path fill="#ff8f76" d="M201.4,147c-.08-.75-.17-1.53-.26-2.33-.4-3.41-1-7.1-3.34-9.59a6.56,6.56,0,0,0-4.2-2.25,8.84,8.84,0,0,0-4.43.72c-1.36.47-2.79,5.51-5,9.4a19.91,19.91,0,0,1-4,4.37,20.86,20.86,0,0,0,4.22,4.12,45.49,45.49,0,0,0,6.53,4.77,20.81,20.81,0,0,0,2,.94,15.66,15.66,0,0,0,2.2.71,31.16,31.16,0,0,1,3.27-5.8,38.36,38.36,0,0,1,2.93-3.38A3.18,3.18,0,0,0,201.4,147Z" class="colorff8f76 svgShape"/>
    <path fill="#ff8f76" d="M188.32,127.79a11.14,11.14,0,0,0,0,8.54,5,5,0,0,0,1.39,2,2.42,2.42,0,0,0,2.31.48,3.28,3.28,0,0,0,1.73-2.41,11,11,0,0,0-.85-8.14C191.76,126.44,189.38,125.3,188.32,127.79Z" class="colorff8f76 svgShape"/>
    <path fill="#ad2e0c" d="M215.34,131.2a.23.23,0,0,1-.14,0,9.16,9.16,0,0,0-6.9-1.42.26.26,0,0,1-.3-.2.25.25,0,0,1,.2-.29,9.66,9.66,0,0,1,7.28,1.49.25.25,0,0,1,.07.35A.26.26,0,0,1,215.34,131.2Z" class="colorad2e0c svgShape"/>
    <path fill="#110303" d="M211.32,135.16c-.36,1-1,1.64-1.38,1.49s-.45-1.06-.09-2,1-1.64,1.38-1.49S211.68,134.18,211.32,135.16Z" class="color110303 svgShape"/>
    <path fill="#c1481e" d="M219.33 120.86a2.81 2.81 0 00-.84-.94 9.28 9.28 0 00-2.49-1.49 16.23 16.23 0 00-7.36-.66 42.58 42.58 0 00-7.56 1.69 20.2 20.2 0 00-6.28 3 8.74 8.74 0 00-3.18 4.4 18.2 18.2 0 00-1.39 4.08c-.74 3.42-1.12 7.71 1.25 10.61a5.93 5.93 0 002.42 1.81 5.58 5.58 0 002.78.15c.13 0 .09-.22 0-.22a5.09 5.09 0 01-2.78-1.25 6.25 6.25 0 01-1-1.42 6.15 6.15 0 01-.46-3.17 11.63 11.63 0 01.81-3.14 4.9 4.9 0 000 2.22 2.93 2.93 0 002.53 2.38c.1 0 .12-.16 0-.18a1.79 1.79 0 01-.92-.53 2 2 0 01.65-2.67c1-.6 2.37-.2 3.48-.06a4.28 4.28 0 005-2c2.23-3.21 2.31-8.51 6.51-10a8.56 8.56 0 011.8-.42h1c2 0 4 .43 6.06.44a.3.3 0 00.29-.29A3.66 3.66 0 00219.33 120.86zM193.28 102.68a8.46 8.46 0 00-8-.44c-2.08.88-5.11 2.57-4.84 5.25a13.79 13.79 0 01.37 1.76c0 .59-.77 1.08-1.1 1.53a3.53 3.53 0 000 3.5 5.78 5.78 0 001.36 2 6.37 6.37 0 01-2-.26 8.12 8.12 0 01-4.48-3.68s-.07 0 0 0a8.41 8.41 0 00.76 1.64s0 0 0 0a3.07 3.07 0 001 1.29 5.61 5.61 0 00.92.77 9.83 9.83 0 001.71.87c.39.18.79.36 1.18.5a12.61 12.61 0 007.85.07 16 16 0 005.9-3.29 8.14 8.14 0 003-5.32A7.29 7.29 0 00193.28 102.68z" class="colorc1481e svgShape"/>
    <path fill="#ffe7b3" d="M196.07,111.83a.47.47,0,0,0-.21,0,.38.38,0,0,0-.21,0c-2.55,1.09-5.44.86-8.09.29a17.63,17.63,0,0,1-3.8-1.25c-1.15-.55-2.26-1.18-3.43-1.71-.4-.18-.76.41-.35.61,1.28.62,2.5,1.35,3.8,1.94a18.68,18.68,0,0,0,4.14,1.26,16.85,16.85,0,0,0,4.31.34,18.61,18.61,0,0,0,2.22-.23c-.18.2-.36.4-.55.59a12.2,12.2,0,0,1-3.24,2.22,14.35,14.35,0,0,1-4.24,1.11c-1.49.22-3,.29-4.49.42-.59,0-.8.94-.15,1.1l.17,0a.42.42,0,0,0,.32,0c1.41-.12,2.82-.2,4.22-.41a12.19,12.19,0,0,0,2.25-.49,18.14,18.14,0,0,0,2-1,13.25,13.25,0,0,0,3.38-2.19c.44-.42.83-.89,1.24-1.34s.82-.64.94-1.05A.24.24,0,0,0,196.07,111.83Z" class="colorffe7b3 svgShape"/>
    <path fill="#eaca78" d="M222.06,217.18c-1.79.13-2.24-8.41-2.45-11.11,0-.55-.14-1.46-.26-2.57-.46-4.38-1.21-11.86.22-12.55,2.77-1.36,3.59,3.66,4.08,8.86.1,1.06.18,2.13.27,3.15C224.44,209,223.86,217,222.06,217.18Z" class="coloreaca78 svgShape"/>
    <path fill="#ff8f76" d="M234.71,191.15a41.09,41.09,0,0,1-5.05,3.75c-.91.62-3.47,2.75-6,4.91-1.59,1.35-3.15,2.7-4.3,3.69-.46-4.38-1.21-11.86.22-12.55l7.17-3.52Z" class="colorff8f76 svgShape"/>
    <path fill="#ff8f76" d="M238.15,172.81c.19.62-.54,3-.52,3.33s1.38,1.07,1.57,1.55-.21,1.75,0,2.06a3.75,3.75,0,0,1,.7,1.71c0,.57-.71,1.27-.7,1.67s.23,1.52.25,2-4,5.58-4.74,6c-2.48,1.45-7,1.07-8.14-1a25.31,25.31,0,0,1-1.22-2.49s.63-12.71.75-12.63S238.15,172.81,238.15,172.81Z" class="colorff8f76 svgShape"/>
    <path fill="#f76a52" d="M228.77,191h-.07a.26.26,0,0,1-.17-.32,9.21,9.21,0,0,1,1.84-3.32.24.24,0,0,1,.35,0,.26.26,0,0,1,0,.36,8.86,8.86,0,0,0-1.71,3.11A.25.25,0,0,1,228.77,191Z" class="colorf76a52 svgShape"/>
    <path fill="#f95c4b" d="M218.92,169.65s.09.74.25,1.87l0,.17c0,.22.07.46.1.7s.11.73.17,1.12.09.62.14.94l0,.22c.11.66.22,1.35.35,2l.06.32c.49,2.68,1.08,10.13,1.64,10.92,1.83,2.58,10.23,2.3,11.73.14.68-1,1.31-8.17,1.82-10.58,0-.14.05-.28.08-.42h0c.21-1,.39-2,.55-3,0-.09,0-.17,0-.25.06-.36.12-.71.17-1s.08-.51.11-.75a.06.06,0,0,1,0,0l0-.25c.2-1.29.3-2.16.3-2.16Z" class="colorf95c4b svgShape"/>
    <ellipse cx="227.73" cy="169.65" fill="#ff928a" rx="8.81" ry="2.1" class="colorff928a svgShape"/>
    <path fill="#f95c4b" d="M219.86,169.66c0,.23.23.46.65.67a6.19,6.19,0,0,0,.88.32,24.14,24.14,0,0,0,6.34.7,20.35,20.35,0,0,0,7.11-1l.11,0c.41-.21.64-.44.64-.67,0-.94-3.52-1.7-7.86-1.7S219.86,168.72,219.86,169.66Z" class="colorf95c4b svgShape"/>
    <path fill="#af2415" d="M220.51,170.33a6.19,6.19,0,0,0,.88.32,24.14,24.14,0,0,0,6.34.7,20.35,20.35,0,0,0,7.11-1l.11,0c-1.21-.61-4-1-7.22-1S221.72,169.72,220.51,170.33Z" class="coloraf2415 svgShape"/>
    <path style="mix-blend-mode:multiply" fill="#af2415" d="M227.17 169.66A31.54 31.54 0 00222.9 171a13.26 13.26 0 01-1.51-.34 6.19 6.19 0 01-.88-.32c1.21-.61 4-1 7.22-1l1 0C228.25 169.42 227.72 169.53 227.17 169.66zM233.15 169.77a8 8 0 011.8.56l-.11 0a18.18 18.18 0 01-5.94 1A23.7 23.7 0 00233.15 169.77z" opacity=".57" class="coloraf2415 svgShape"/>
    <path fill="#f95c4b" d="M219.57,174.28c.59.35.84,2.37.24,2.11s-2.7-2.31-4.38-.73-.53,4.76,1.44,5.56,3.54,1,3.77.46,1.05,2.06.71,2.17a8.31,8.31,0,0,1-5.43-1.5c-2.29-1.65-3.31-5-2.12-7C214.77,173.61,217.52,173,219.57,174.28Z" class="colorf95c4b svgShape"/>
    <path fill="#ff8f76" d="M235.79 179.38s-3.06-.35-3.94-.48a3.85 3.85 0 01-2.55-.43c-.44-.38-.57-.94-.26-1.25a11.85 11.85 0 013-.78c.34 0 3.92-.12 4.51.23S237.13 179.39 235.79 179.38zM237.26 186.2s-4-.41-4.82-.68a3.67 3.67 0 01-2.31-.83c-.35-.43-.38-1 0-1.21a10.59 10.59 0 012.9-.23c.32 0 4.41-.22 4.9.21S238.51 186.43 237.26 186.2z" class="colorff8f76 svgShape"/>
    <path fill="#ff8f76" d="M236,182.08s-3.06-.15-3.93-.23a3.76,3.76,0,0,1-2.55-.27c-.46-.35-.62-.9-.33-1.22a11.39,11.39,0,0,1,2.89-1c.33-.06,3.87-.37,4.47-.06S237.28,182,236,182.08Z" class="colorff8f76 svgShape"/>
    <path fill="#f76a52" d="M237.11,183.07a7.86,7.86,0,0,1-2.64-.84.25.25,0,0,1-.11-.33.24.24,0,0,1,.33-.11,7,7,0,0,0,2.45.78.26.26,0,0,1,.26.25.25.25,0,0,1-.24.25Z" class="colorf76a52 svgShape"/>
    <path fill="#ff8f76" d="M238.07,172.42c.54,1.25-.76,2-3.36,2.23-1,.09-4.26.65-4.17-.56s2.65-1.89,4.66-2.26C235.91,171.7,237.69,171.51,238.07,172.42Z" class="colorff8f76 svgShape"/>
    <path fill="#f76a52" d="M237.73 180h-.06c-.87-.21-2.61-.61-3-.65a.25.25 0 01-.22-.28.26.26 0 01.28-.22c.5.06 2.94.63 3 .66a.25.25 0 01.19.3A.26.26 0 01237.73 180zM237.11 183.51h0c-2.53 0-2.55-.06-2.59-.07a.24.24 0 01-.18-.3.24.24 0 01.27-.19l2.51.06a.24.24 0 01.24.26A.25.25 0 01237.11 183.51zM238 177.2h0l-2.5-.44.08-.5 2.5.45a.25.25 0 01.21.29A.25.25 0 01238 177.2zM235.89 174.76a.27.27 0 01-.25-.22.26.26 0 01.22-.28 2 2 0 00.76-.19.25.25 0 01.34 0 .24.24 0 010 .34 2 2 0 01-1 .31zM234.05 186.14a.25.25 0 01-.24-.18.25.25 0 01.17-.31 5.61 5.61 0 001-.44.23.23 0 01.35 0 .25.25 0 010 .35 5.19 5.19 0 01-1.23.55z" class="colorf76a52 svgShape"/>
    <path fill="#f76a52" d="M236.9,186.35l-.62,0c-.87-.08-1.94-.21-1.94-.21l.06-.5s1.06.14,1.92.21a4.13,4.13,0,0,0,1.26,0,.26.26,0,0,1,.3.2.25.25,0,0,1-.19.29A3.21,3.21,0,0,1,236.9,186.35Z" class="colorf76a52 svgShape"/>
    <path fill="#f76a52" d="M237.15,186.78h0a3.07,3.07,0,0,1-1.43-.49.24.24,0,0,1,0-.35.25.25,0,0,1,.35,0,2.72,2.72,0,0,0,1.16.38.25.25,0,0,1,.23.27A.24.24,0,0,1,237.15,186.78Z" class="colorf76a52 svgShape"/>
    <path fill="#ffeecc" d="M194.59,224.15c-4.5.65-8.9,1.35-13.38,2.09s-9.31,1.49-12.58-1.66a25.74,25.74,0,0,1-5.4-7.76c-1-2.57-2-5.09-3-7.51a13.65,13.65,0,0,0-.4-2.37A60.33,60.33,0,0,0,157,199.5q-1.71-4.31-3.54-8.56c-1.08-2.51-2.28-5-3.25-7.55-1.6-4.22-2.63-8.95-1.67-13.44a13.51,13.51,0,0,1,2.87-5.9,11.74,11.74,0,0,1,1.1-1.13,28.93,28.93,0,0,1,1.94,3.33c4.47,7.65,14.8,13.65,19.69,21.05,2.26,3.42,2.93,7.61,4.35,11.45a3.15,3.15,0,0,0,1.47,2c.66.27,8-2.43,10.59-3.14C192.22,206,194.48,224,194.59,224.15Z" class="colorfec svgShape"/>
    <path fill="#ffe7b3" d="M200.32,219.49a49.51,49.51,0,0,0-.88-5.27c-1-4.85-1.39-9.79-2.47-14.63a7.28,7.28,0,0,0-1.22-3.09,4.68,4.68,0,0,0-2.18-1.44,6.33,6.33,0,0,0-7.69,3.79,11.37,11.37,0,0,0-.3,4.76c.67,8,2.81,15.49,4.45,23.33a3.77,3.77,0,0,0,.69,1.77,2.52,2.52,0,0,0,2.42.66c1.73-.36,3.16-1.7,4.6-2.63C200.17,225.17,200.55,222.15,200.32,219.49Z" class="colorffe7b3 svgShape"/>
    <path fill="#eaca78" d="M198.57,222.18c-.91.24-1.91-5.11-2.67-8-.19-.71-.6-2-1.09-3.55-1.49-4.76-3.71-12.06-2.44-13h0l0,0c.9-.57,2.42,2.48,3.24,4.87a48.91,48.91,0,0,1,1.21,6c.51,3.17,1,6.56,1.35,7.85C198.84,218.63,199.49,221.93,198.57,222.18Z" class="coloreaca78 svgShape"/>
    <path fill="#ff8f76" d="M225.35,182.82c0,1.23-.75,4.93-1.56,6s-4.32,2.13-5.6,3.58-7.92,4.59-9.94,5.21c-1.34.42-7.45,6.7-11.39,10.87l-2.05,2.17c-1.49-4.76-3.71-12.06-2.44-13h0l0,0c2.53-2,9.41-7.28,10.77-8.48,1.67-1.47,7.36-8.47,9.41-10s10.37-4.63,11.2-3.52-4.66,3.16-5.48,3.63-3.67,2.16-3.68,2.57,10.66-4.46,11.2-3S225.34,181.59,225.35,182.82Z" class="colorff8f76 svgShape"/>
    <path fill="#f76a52" d="M215.75 185.22a.25.25 0 01-.08-.48 76 76 0 019.77-2.89.26.26 0 01.3.19.25.25 0 01-.19.3 75 75 0 00-9.71 2.87zM216.87 189.21a.25.25 0 01-.22-.14.26.26 0 01.11-.34 39.26 39.26 0 018-3 .24.24 0 01.3.18.24.24 0 01-.18.3 38.81 38.81 0 00-7.93 3z" class="colorf76a52 svgShape"/>
    <path fill="#eaca78" d="M170.05 205.58a.24.24 0 01-.19-.08.25.25 0 010-.35 19.92 19.92 0 019.9-4.8.26.26 0 01.29.21.25.25 0 01-.21.28 19.31 19.31 0 00-9.64 4.68A.27.27 0 01170.05 205.58zM168.84 201.88a.24.24 0 01-.23-.14.24.24 0 01.12-.33 20.8 20.8 0 019.6-2 .25.25 0 01.24.26.23.23 0 01-.25.24 20.39 20.39 0 00-9.38 1.92z" class="coloreaca78 svgShape"/>
    <path fill="#f76a52" d="M218,192.52a.26.26,0,0,1-.24-.17.25.25,0,0,1,.16-.32,17.75,17.75,0,0,0,6-3.41.25.25,0,0,1,.35,0,.26.26,0,0,1,0,.36,18.13,18.13,0,0,1-6.12,3.5Z" class="colorf76a52 svgShape"/>
    <path fill="#ad2e0c" d="M193.43 134.54h0a.24.24 0 01-.2-.29A4.85 4.85 0 01196 131a20.47 20.47 0 012.08-.83 18.38 18.38 0 001.86-.73 4.67 4.67 0 002.68-2.8.25.25 0 01.3-.19.25.25 0 01.18.3 5.12 5.12 0 01-3 3.14 17.18 17.18 0 01-1.91.75 19.34 19.34 0 00-2 .81 4.34 4.34 0 00-2.55 2.89A.25.25 0 01193.43 134.54zM219.34 123.33a.25.25 0 01-.08-.49 3.68 3.68 0 002-1.76.25.25 0 01.34-.11.26.26 0 01.11.34 4.19 4.19 0 01-2.3 2zM192 126a.2.2 0 01-.11 0 .24.24 0 01-.11-.33 20.92 20.92 0 014.85-6.13.24.24 0 01.35 0 .25.25 0 010 .35 20.69 20.69 0 00-4.74 6A.25.25 0 01192 126zM196 111.79a.31.31 0 01-.18-.07.26.26 0 010-.36 2.92 2.92 0 00.72-2.69.26.26 0 01.19-.31.25.25 0 01.3.19 3.46 3.46 0 01-.85 3.16A.27.27 0 01196 111.79zM184.16 110.76a.32.32 0 01-.14 0 5.36 5.36 0 01-2.45-4.11.26.26 0 01.23-.27.24.24 0 01.27.23 4.8 4.8 0 002.22 3.72.26.26 0 01.08.35A.26.26 0 01184.16 110.76zM185 110.65a.25.25 0 01-.19-.09 3.92 3.92 0 01-.47-3.76 11.24 11.24 0 012-3.2.25.25 0 11.39.31 10.83 10.83 0 00-1.92 3 3.47 3.47 0 00.39 3.28.25.25 0 010 .35A.23.23 0 01185 110.65zM181.52 116.23a.25.25 0 01-.22-.12.25.25 0 01.09-.34 8.73 8.73 0 018.52-.17.24.24 0 01.1.34.24.24 0 01-.33.1 8.25 8.25 0 00-8 .16A.27.27 0 01181.52 116.23zM210.86 112.41a.27.27 0 01-.15 0 12.49 12.49 0 00-13.47-.79.26.26 0 01-.35-.09.27.27 0 01.09-.34 13 13 0 0114 .82.25.25 0 01.05.35A.23.23 0 01210.86 112.41zM197.63 110.4a.27.27 0 01-.19-.08.26.26 0 010-.36 10.15 10.15 0 015-2.36.25.25 0 01.28.21.23.23 0 01-.2.28 9.68 9.68 0 00-4.74 2.25A.25.25 0 01197.63 110.4z" class="colorad2e0c svgShape"/>
    <path fill="#f78579" d="M186.73,363.62a.25.25,0,0,1-.22-.14,33.23,33.23,0,0,0-6.76-8.52c-4.15-3.53-5.88-6.57-2.45-11.64a20.24,20.24,0,0,0,3.39-9.68.28.28,0,0,1,.26-.24.25.25,0,0,1,.24.26,20.85,20.85,0,0,1-3.47,9.94c-3.24,4.78-1.68,7.55,2.35,11a33.35,33.35,0,0,1,6.88,8.67.25.25,0,0,1-.1.34A.27.27,0,0,1,186.73,363.62Z" class="colorf78579 svgShape"/>
    <path fill="#6f4777" d="M197.88 321.66h-.06a.24.24 0 01-.18-.3 130.5 130.5 0 0114.47-34.76c.57-1 1.16-1.93 1.75-2.89 3.46-5.62 7-11.44 7.87-18a10 10 0 00-2.9-7.81 49.15 49.15 0 00-7.93-6l-11.07-7a.26.26 0 01-.08-.35.27.27 0 01.35-.08l11.07 7a50 50 0 018 6 10.52 10.52 0 013 8.22c-.86 6.63-4.46 12.49-7.94 18.16-.59 1-1.18 1.92-1.75 2.88a130.47 130.47 0 00-14.42 34.63A.26.26 0 01197.88 321.66zM228.49 265.35a.24.24 0 01-.23-.16.24.24 0 01.14-.32 22.66 22.66 0 019.43-1.53.25.25 0 01.24.26.25.25 0 01-.26.24 22.18 22.18 0 00-9.23 1.49zM230.32 263.18a.27.27 0 01-.22-.12.26.26 0 01.09-.35 22.64 22.64 0 017.25-2.68.26.26 0 01.3.2.25.25 0 01-.2.29 22 22 0 00-7.1 2.63A.24.24 0 01230.32 263.18z" class="color6f4777 svgShape"/>
    <polygon fill="#ce864a" points="287.49 277.88 325.57 277.88 327.04 284.43 286.05 283.71 287.49 277.88" class="colorce864a svgShape"/>
    <path fill="#ce864a" d="M273.38 359l-1-.21a1.77 1.77 0 01-1.4-2l14.53-96.22a1.78 1.78 0 011.91-1.5l3.49.3a1.79 1.79 0 011.6 2.09l-17 96.11A1.79 1.79 0 01273.38 359zM339.54 362.48l1-.21a1.77 1.77 0 001.4-2l-14.53-96.22a1.78 1.78 0 00-1.91-1.5l-3.49.3a1.79 1.79 0 00-1.6 2.09l17 96.11A1.78 1.78 0 00339.54 362.48z" class="colorce864a svgShape"/>
    <path fill="#e09b5c" d="M258 368.61l-1-.2a1.78 1.78 0 01-1.4-2l14.53-96.21a1.77 1.77 0 011.91-1.5l3.49.3a1.78 1.78 0 011.6 2.08l-17 96.11A1.77 1.77 0 01258 368.61zM332.2 372.33l1-.2a1.79 1.79 0 001.4-2l-14.53-96.67a1.78 1.78 0 00-1.91-1.51l-3.49.31a1.78 1.78 0 00-1.6 2.08l17 96.57A1.78 1.78 0 00332.2 372.33z" class="colore09b5c svgShape"/>
    <path style="mix-blend-mode:multiply" fill="#e09b5c" d="M276.34 275.74l.83-4.67a1.78 1.78 0 00-1.6-2.08l-3.49-.3a1.77 1.77 0 00-1.91 1.5l-.77 5.09C271.71 275.44 274 275.54 276.34 275.74zM313.45 276.59c1.87-.43 3.75-.86 5.64-1.15l1.23-.17-.27-1.82a1.78 1.78 0 00-1.91-1.51l-3.49.31a1.78 1.78 0 00-1.6 2.08z" opacity=".56" class="colore09b5c svgShape"/>
    <ellipse cx="298.75" cy="267.63" fill="#e09b5c" rx="35.45" ry="7.3" class="colore09b5c svgShape"/>
    <rect width="70.9" height="6.14" x="263.3" y="261.49" fill="#e09b5c" class="colore09b5c svgShape"/>
    <ellipse cx="298.75" cy="261.49" fill="#efb275" rx="35.45" ry="7.3" class="colorefb275 svgShape"/>
    <polygon fill="#e09b5c" points="271.15 287.08 318.82 287.66 320.37 296.05 269.76 295.43 271.15 287.08" class="colore09b5c svgShape"/>
    <path fill="#ffffff" d="M311,258.64c0,3-10.67,5.37-23.83,5.37s-23.82-2.4-23.82-5.37,10.66-5.36,23.82-5.36S311,255.68,311,258.64Z" class="colorfff svgShape"/>
    <path fill="#ffd371" d="M291,245.32s-.14,4.26-4.3,3.92C283,249,283.37,245,283.37,245l2.37,2.72,3.27-.06Z" class="colorffd371 svgShape"/>
    <path fill="#f97b3d" d="M284.94,245.19s2.26,3.74,4.63.1c0,0-.22,3.54-2.54,2.73A2.79,2.79,0,0,1,284.94,245.19Z" class="colorf97b3d svgShape"/>
    <path fill="#ff955a" d="M283.37,245l1.57.19s.39,2.12,2.05,2.32,2.58-2.22,2.58-2.22l1.45,0s-.22,4.05-4.23,3.76C283.27,248.82,283.37,245,283.37,245Z" class="colorff955a svgShape"/>
    <path fill="#f2672a" d="M288.8 246.81l-.1-.12a.18.18 0 00-.12-.05v0a.18.18 0 00.06.13l.05.06 0 0h0a.05.05 0 000 .08s.07 0 .08 0A.11.11 0 00288.8 246.81zM288.52 246.84a0 0 0 00-.06 0s0 .08 0 .11.08 0 .08 0A.13.13 0 00288.52 246.84zM287.61 247.31a.43.43 0 00-.09.35c0 .06.1 0 .09 0a1 1 0 010-.17c0-.05 0-.1 0-.15zM287.4 247.53s0-.11-.06-.12h0s0 .09 0 .13a.11.11 0 000 .08l0 0s0 0 0 0 0 0 0 0A.11.11 0 00287.4 247.53zM286.18 247a.37.37 0 00-.35.2s0 .07.07 0 .1-.09.15-.13a.69.69 0 00.13-.11z" class="colorf2672a svgShape"/>
    <path fill="#f2672a" d="M286 246.93a.07.07 0 00-.1 0 .09.09 0 000 .05l0 .07s0 0 0 0l.07 0h0S286 247 286 246.93zM285.92 247zM286.27 247.2s0 0 0 .05.07.1.09 0 0 0 0-.06S286.29 247.18 286.27 247.2zM287 247.17a.41.41 0 00-.1-.13l-.05 0-.06 0s0 0 0 0 0 0 0 .06a.15.15 0 000 .07 1.31 1.31 0 00.11.12A0 0 0 00287 247.17zM285.52 246.27a.14.14 0 00-.13.06s0 0 0 .06a0 0 0 000 0 0 0 0 00.05 0 .14.14 0 00.07-.13zM285.39 246a.93.93 0 00-.05-.1s0-.06-.06-.1h0a.33.33 0 000 .14.26.26 0 00.07.1S285.4 246 285.39 246zM286.5 246.87l0 0h0l0 0s0 0 0 0a.07.07 0 010 .05s0 0 0 0 .05.08.1.08 0 0 0 0S286.52 246.89 286.5 246.87zM287.84 246.77s-.07.06-.08.1 0 .08 0 .12h0s.08 0 .11-.06a.39.39 0 00.08-.1S287.88 246.72 287.84 246.77zM287.47 246.9l0 0-.05 0-.06.09a.43.43 0 000 0v0s0 0 0 0h.05l0 0a.16.16 0 00.06-.08A.06.06 0 00287.47 246.9zM288.84 246.26a.14.14 0 00-.11 0s0 .05-.07.08 0 0 0 0h.1s.08 0 .09-.05A0 0 0 00288.84 246.26zM288.18 247.05l0-.05h0l0 0 0 .05a.17.17 0 000 .12 0 0 0 00.08 0 .2.2 0 000-.11z" class="colorf2672a svgShape"/>
    <path fill="#c1481e" d="M284.1,262.41c3-.63,15.9-4.11,16.94-4.9s1.88-7.09-3-9.32-20.79.5-23,3.64S280.33,263.2,284.1,262.41Z" class="colorc1481e svgShape"/>
    <path fill="#e25c39" d="M273.23,258.08c.06.59-.86,2.33.1,3.18s10.41,2.32,12.45.45,2.31-9.76-3.28-11.22S272.57,251.81,273.23,258.08Z" class="colore25c39 svgShape"/>
    <path fill="#ffa599" d="M273.11 258.8c1.23.73 8.47 2.74 10.38 1.19s1.78-6-.66-7.2c-2.84-1.41-6.28-.5-7.09 1.87s3.95 3.71 5.11 3.4.16-1.07-.47-1.06-2.81-.42-3.24-1.14-.36-2 1.29-2.24 3.67-.2 4.46 1 .59 3.86-.22 4.33c-1.75 1-7-.34-9.46-1.12zM299.14 249.09c-.21.52-2.34.27-3 1l0 0h0a2.19 2.19 0 01-1.25.44c-.85.1-1.88 0-2.51.08-1 .08-1 .8-2 1.16s-2.54-.88-4.23-1.35h0a.85.85 0 01-.62-1 4.29 4.29 0 01.58-1.6s4.19-1 5.26-1.14a28.18 28.18 0 016.69.55 1.8 1.8 0 011.17 1.41A.73.73 0 01299.14 249.09z" class="colorffa599 svgShape"/>
    <path fill="#e22727" d="M290.36,244c-.63.31-1.18,1.09-.45,2.48s2.84,1.69,3.91,1.51,2.85-1,2.16-3.1c0,0-1.12,1.9-2.85,1.32A6,6,0,0,1,290.36,244Z" class="colore22727 svgShape"/>
    <path fill="#f7d237" d="M291.5,243.74a1.51,1.51,0,0,0-1.44.55,1.24,1.24,0,0,0-.38.88,2.72,2.72,0,0,0,1.74,2.34,4.75,4.75,0,0,0,2.61.27,3.92,3.92,0,0,0,1.29-.61,2,2,0,0,0,.73-1.37c.09-.51,0-1.14-.54-1.32a.89.89,0,0,0-.58,0,3.5,3.5,0,0,1-.42.24c-.13,0-.28,0-.42,0a2.1,2.1,0,0,1-1.31,0c-.36-.12-.86-.34-1-.73A1.06,1.06,0,0,1,291.5,243.74Z" class="colorf7d237 svgShape"/>
    <path fill="#ffe36c" d="M294.77 245.25zM294.91 245.2a.38.38 0 00-.11-.14l-.06-.07 0 0h-.07s0 0 0 0 0 .05 0 .08l.06.07.05.07 0 0h0v0a.07.07 0 000 .06h0a.06.06 0 00.07 0h0A.06.06 0 00294.91 245.2zM294.5 245.06l0 0h-.07s0 0 0 0 0 .06 0 .08a.09.09 0 000 .06.05.05 0 00.08 0A.09.09 0 00294.5 245.06zM294.14 245.9c0-.05-.05-.44-.14-.39s-.05.11 0 .17a.65.65 0 00.06.24A.06.06 0 00294.14 245.9zM293.8 245.39s0-.09 0-.14h0c0 .05 0 .1 0 .15a.2.2 0 000 .13h0A.33.33 0 00293.8 245.39zM292.21 244.69c-.07.05-.13.12-.19.17s-.12.09-.12.17h0c.07 0 .1 0 .14-.11a1.77 1.77 0 00.16-.22S292.22 244.69 292.21 244.69zM292 244.64h0a1.27 1.27 0 00-.12.1.22.22 0 00-.1.09s0 0 0 0a.13.13 0 00.14-.06A.34.34 0 00292 244.64zM291.54 244.24a.84.84 0 00-.23.12c-.05 0-.13.08-.15.15a0 0 0 000 0c.06 0 .1-.08.15-.12a1.37 1.37 0 01.21-.15A0 0 0 00291.54 244.24zM292.94 245.22a.17.17 0 000-.07.1.1 0 010-.09s0 0 0 0-.08.09-.09.16 0 .13.05.16h.06S292.94 245.27 292.94 245.22zM292.54 245.28h0s-.07.1-.07.15 0 0 0 0S292.53 245.33 292.54 245.28zM293.23 246a1.21 1.21 0 00-.05-.18s0 0 0 0a.77.77 0 000 .15v.12h0s.05.08.08 0S293.24 246 293.23 246zM292.62 245.82h0c-.06.08-.14.14-.16.23a.06.06 0 00.1 0C292.61 246 292.59 245.91 292.62 245.82zM293.86 246.4h0a.65.65 0 000 .14.28.28 0 000 .13h0A.41.41 0 00293.86 246.4zM291.79 245.39l-.13.13a.69.69 0 00-.11.13s0 0 0 0a0 0 0 000 0s0 0 0 0a.49.49 0 00.1-.15.8.8 0 00.08-.16zM291.24 244.92L291 245a.4.4 0 00-.16.13.05.05 0 00.06.08.32.32 0 00.18-.11l.15-.17S291.24 244.91 291.24 244.92z" class="colorffe36c svgShape"/>
    <path fill="#ffd371" d="M294.2,243.22s1.76,3.87-2.13,5.41c-3.42,1.37-4.88-2.32-4.88-2.32l3.34,1.39,2.9-1.5Z" class="colorffd371 svgShape"/>
    <path fill="#f97b3d" d="M288.68,245.78s3.69,2.36,4.2-1.95c0,0,1.37,3.27-1.07,3.57A2.79,2.79,0,0,1,288.68,245.78Z" class="colorf97b3d svgShape"/>
    <path fill="#ff955a" d="M287.19,246.31l1.49-.53s1.29,1.74,2.87,1.18,1.33-3.13,1.33-3.13l1.32-.61s1.59,3.72-2.13,5.23C288.79,249.79,287.19,246.31,287.19,246.31Z" class="colorff955a svgShape"/>
    <path fill="#f2672a" d="M292.87 245.53l-.15-.06a.15.15 0 00-.13 0v0c0 .05.06.06.11.09l.07 0 0 0h0a0 0 0 00.06 0 .08.08 0 00.06-.08A.18.18 0 00292.87 245.53zM292.63 245.69s-.05 0-.05 0 0 .08.06.1.08 0 .06-.05A.11.11 0 00292.63 245.69zM292 246.5a.46.46 0 00.07.36s.11 0 .07-.06l-.07-.15a.59.59 0 00-.06-.14zM291.93 246.79s-.07-.09-.11-.08h0s0 .09 0 .13l0 .06s.05 0 .05 0 0 0 0 0v0S291.94 246.81 291.93 246.79zM290.57 246.82a.4.4 0 00-.22.33s.07 0 .09 0 .05-.12.08-.18a.76.76 0 00.06-.16zM290.38 246.89a.07.07 0 00-.1 0l0 0a.28.28 0 010 .09s0 0 0 0 0 0 0-.07h0A0 0 0 00290.38 246.89zM290.36 247zM290.77 247a.13.13 0 000 .06.05.05 0 00.1 0 .14.14 0 000-.06A0 0 0 00290.77 247zM291.37 246.67l-.15-.07-.06 0h-.08s0 0 0 0l.05.05s0 0 .06 0a.47.47 0 00.15.06S291.4 246.7 291.37 246.67zM289.68 246.5c-.05 0-.07.06-.09.11s0 0 0 .06h0a0 0 0 000 0c0-.05 0-.11 0-.15zM289.44 246.29l-.09-.06a.53.53 0 01-.1-.06h0c0 .05 0 .09.06.12a.16.16 0 00.11.07S289.46 246.32 289.44 246.29zM290.83 246.6h-.12l0 0a.08.08 0 000 0s.08 0 .12 0 0 0 0 0S290.86 246.61 290.83 246.6zM292 245.92a.3.3 0 000 .13s0 .08 0 .12h0s0-.06.06-.1a.31.31 0 000-.13A0 0 0 00292 245.92zM291.71 246.2h0s0 0 0 0 0 .07 0 .1a.07.07 0 000 0s0 0 0 0h0l0 0v0s0 0 0 0a.36.36 0 000-.1A.05.05 0 00291.71 246.2zM292.65 245a.14.14 0 00-.08.07s0 .06 0 .1h0a.18.18 0 00.09 0 .24.24 0 00.06-.08S292.68 245 292.65 245zM292.41 246s0 0 0 0 0 0 0 0 0 0 0 0a.06.06 0 000 .06.21.21 0 000 .11 0 0 0 00.08 0 .14.14 0 000-.11S292.43 246 292.41 246z" class="colorf2672a svgShape"/>
    <path fill="#e22727" d="M281,246.11c-.52.65-.72,1.77.77,2.91s3.93.4,5-.33,2.57-2.54.78-4.45c0,0-.26,2.63-2.43,2.87A7.19,7.19,0,0,1,281,246.11Z" class="colore22727 svgShape"/>
    <path fill="#f7d237" d="M282.16,245.25a1.77,1.77,0,0,0-1.29,1.32,1.44,1.44,0,0,0,0,1.15,3.25,3.25,0,0,0,3.06,1.66,5.61,5.61,0,0,0,3-1,4.92,4.92,0,0,0,1.09-1.31,2.35,2.35,0,0,0,.11-1.86c-.16-.59-.55-1.25-1.26-1.16a1.05,1.05,0,0,0-.62.31c-.13.15-.18.33-.34.46s-.3.15-.43.24a2.64,2.64,0,0,1-1.42.69,1.7,1.7,0,0,1-1.41-.32A1.06,1.06,0,0,1,282.16,245.25Z" class="colorf7d237 svgShape"/>
    <path fill="#ffe36c" d="M286.46 245.24zM286.59 245.12a.35.35 0 00-.19-.1l-.1 0h-.05l-.08 0s0 0 0 0 0 .06 0 .08l.09 0 .09 0 .05 0h0v0a.09.09 0 00.08.05h0a.18.18 0 00.07-.05h0A.09.09 0 00286.59 245.12zM286.08 245.18H286s0 0-.08 0 0 0 0 0 0 .06.06.08a.16.16 0 00.08 0 .07.07 0 00.07-.08A.1.1 0 00286.08 245.18zM286.1 246.26s-.27-.44-.35-.35 0 .15.05.21a1 1 0 00.18.23A.08.08 0 00286.1 246.26zM285.48 245.88a1 1 0 00-.08-.14s0 0 0 0l.06.17a.54.54 0 00.07.13s0 0 0 0A.44.44 0 00285.48 245.88zM283.4 245.93a2.21 2.21 0 00-.12.27c0 .08-.08.16 0 .24s0 0 0 0 .09-.11.1-.19.05-.21.06-.32S283.41 245.92 283.4 245.93zM283.14 246h0c0 .05-.05.11-.08.17a.28.28 0 00-.06.15s0 0 0 0a.18.18 0 00.12-.13A.38.38 0 00283.14 246zM282.44 245.78a1 1 0 00-.18.23.48.48 0 00-.09.25 0 0 0 000 0 .58.58 0 00.1-.21 2.4 2.4 0 01.16-.27S282.45 245.77 282.44 245.78zM284.46 246.13l0-.07a.22.22 0 01-.07-.09s0 0 0 0 0 .13 0 .2.06.16.13.16a.07.07 0 00.07 0C284.53 246.24 284.48 246.19 284.46 246.13zM284.05 246.39h0c0 .07 0 .14 0 .2s0 0 .06 0S284.07 246.46 284.05 246.39zM285.14 246.77a1.1 1.1 0 00-.15-.16s0 0 0 0l.09.16.06.09 0 0h0c0 .06.1.05.11 0S285.17 246.8 285.14 246.77zM284.41 247h0a.76.76 0 000 .33.07.07 0 00.13 0C284.5 247.16 284.43 247.06 284.41 247zM286.05 247h0s0 .1.08.16a.37.37 0 00.07.14h0A.47.47 0 00286.05 247zM283.3 246.89l-.08.21a.65.65 0 00-.05.2.05.05 0 000 0h0a.05.05 0 000 0 .78.78 0 000-.22 1.36 1.36 0 000-.2zM282.46 246.66c-.06.07-.14.13-.2.2a.4.4 0 00-.12.22.07.07 0 00.11.07.46.46 0 00.14-.22c0-.08.05-.18.08-.27z" class="colorffe36c svgShape"/>
    <path fill="#ffa599" d="M288.76 249.4a2.56 2.56 0 01-1.17 1.17 1.48 1.48 0 01-.87.07l-.59-.15h0c-1.69-.43-5.13-1.34-7.87-.64a3.78 3.78 0 01-.09-.7 1.17 1.17 0 01.46-1.12c.74-.39 1.63.32 2.16.29s1.53-.88 2.53-.29 1.8-.25 2.77-.13A8.38 8.38 0 01288.76 249.4zM288.42 248.48a2.67 2.67 0 011.74-.34 6.13 6.13 0 003 .34 2.27 2.27 0 012 .46s-2.61 1.18-3.89 1A8.19 8.19 0 01288.42 248.48z" class="colorffa599 svgShape"/>
    <path fill="#f7d237" d="M276.26 253.79c0-.09-.09-.17-.16-.1l-.06.07h0a.84.84 0 00-.28.48.42.42 0 000 .31c0 .08.13.05.17 0a1.28 1.28 0 00.15-.25.37.37 0 00.05-.11A1.48 1.48 0 00276.26 253.79zM277.61 253.3a.09.09 0 000-.11c0-.07-.14-.11-.18 0l0 .08a.35.35 0 00-.12.24.1.1 0 00.18.05l0 0s0 0 0 0l0 0h0A.09.09 0 00277.61 253.3zM281.05 252.36a.47.47 0 00-.3-.27h0a.1.1 0 00-.16 0 .1.1 0 00-.08.16 1 1 0 00.33.25.09.09 0 00.1 0A.1.1 0 00281.05 252.36zM283.41 253a.58.58 0 00-.49.12c-.07 0 0 .14 0 .16a.09.09 0 00.11.05l.24 0c.06 0 .07 0 .06-.1S283.52 253 283.41 253zM283.63 255.39a.53.53 0 00-.21-.51l-.09-.11h0a.1.1 0 00-.13-.09.11.11 0 00-.11.13 1 1 0 00.11.33.61.61 0 00.31.54.1.1 0 00.15-.09zM284.6 256.54a.06.06 0 010 0 .17.17 0 000-.17l0 0s0 0 0-.05h0v0a.09.09 0 00-.13 0 .1.1 0 00-.08.14 1.47 1.47 0 00.14.28A.1.1 0 00284.6 256.54zM284.19 258.58a.08.08 0 000-.09.1.1 0 00-.14-.12 1 1 0 00-.46.71c0 .05 0 .13.09.12a.21.21 0 00.12 0C284 259.11 284.15 258.82 284.19 258.58zM283.62 257.4l0 0a.11.11 0 000-.05l0 0a1 1 0 00-.09-.22s0 0-.08 0h0l0 0a.1.1 0 00-.17.09.94.94 0 00.25.42C283.52 257.56 283.65 257.49 283.62 257.4zM281.46 253.44l-.21 0a.88.88 0 00-.27.06c-.06 0-.08.07-.06.11h0c-.08.06 0 .22.07.18h0l.36-.16 0 0h.06A.1.1 0 00281.46 253.44zM277.68 256a.62.62 0 00-.49.16.1.1 0 00.06.17h0a1.45 1.45 0 00.3 0 .07.07 0 00.06-.07h0a.09.09 0 00.05 0A.1.1 0 00277.68 256zM278.52 257.56c-.08-.05-.16 0-.15.11h0a.1.1 0 00-.05.14 2.22 2.22 0 00.25.35.09.09 0 00.16 0A.53.53 0 00278.52 257.56zM280.79 258l-.11-.12h0l-.06-.06 0 0c-.08 0-.18.07-.11.16s.1.18.24.22S280.85 258.07 280.79 258zM280.28 257h0l-.08 0a.1.1 0 00-.16.05v0l-.06 0a.1.1 0 00.1.16l.06 0 .08 0h.06A.1.1 0 00280.28 257zM275.49 258.67a.16.16 0 000-.07.17.17 0 00-.07-.15h0a.28.28 0 000-.09c0-.12-.18-.12-.19 0v0a.1.1 0 000 .18l.07 0 .05.07a.61.61 0 00.1.14A.1.1 0 00275.49 258.67zM274.49 258.31a.05.05 0 010 0 .1.1 0 00-.07-.12h0s0 0 0 0l-.06 0a.1.1 0 00-.13.1.11.11 0 00.05.19.83.83 0 01.15 0A.1.1 0 00274.49 258.31zM275 259.4v-.07c0-.06-.09-.08-.14-.06a.1.1 0 00-.14.12.09.09 0 000 .12.36.36 0 00.11.1h0v0c0 .08.15.05.18 0l.06 0A.1.1 0 00275 259.4zM278 260l-.18 0h0l-.13 0a.34.34 0 00-.14.05.08.08 0 000 .09 0 0 0 000 0c0 .08.05.19.13.13l.05 0h0a.1.1 0 00.1-.1l.05 0 .15 0C278.14 260.17 278.14 260 278 260zM280.69 260.29a.1.1 0 00-.09 0l0 0a.26.26 0 00-.11.07.23.23 0 00-.06.12.06.06 0 000 0 .22.22 0 000 .08c0 .08.11.14.17.07l.17-.24 0 0C280.88 260.41 280.8 260.26 280.69 260.29zM279.49 259.21c0-.11-.17-.16-.19 0s0 .09 0 .14a.05.05 0 000 0c0 .06 0 .11 0 .15a.1.1 0 00.1 0 .12.12 0 00.08 0s.06 0 .07-.07a.1.1 0 000-.09l0-.05A.09.09 0 00279.49 259.21zM282.72 259.8a.1.1 0 00-.09-.09.54.54 0 00-.51.28.43.43 0 000 .05.1.1 0 00.14.12h0a.38.38 0 00.15 0 .49.49 0 00.23-.11s0 0 0-.06h0C282.8 260 282.81 259.84 282.72 259.8zM281.69 259.9a.08.08 0 000-.08c0-.09 0-.16-.14-.13h0a.08.08 0 00-.08 0c-.07 0-.13.11-.06.17s.08.1.13.14a.1.1 0 00.14 0h0S281.69 259.93 281.69 259.9zM282.22 259.25a.33.33 0 00-.19.14.09.09 0 00.13.13.1.1 0 00.14-.1C282.38 259.37 282.33 259.21 282.22 259.25zM276.94 259.2a.41.41 0 00-.19.05h0c-.1.05 0 .21.08.18h0l0 0a.09.09 0 00.16-.06h0C277.06 259.32 277 259.18 276.94 259.2zM277 259.39h0v0h0zM276.08 259.15l-.05 0c-.07-.06-.19 0-.14.13h0s-.06 0-.08 0a.1.1 0 000 .16l.18 0a.09.09 0 00.12-.12v0s0 0 0 0S276.19 259.11 276.08 259.15zM279.36 252.91a.12.12 0 00-.05.05.09.09 0 00-.1.07l0 0c-.09.07 0 .21.12.16l0 0h0c.07 0 .12-.09.15-.15S279.45 252.83 279.36 252.91zM278.93 252.71a.24.24 0 00-.31.14c-.05.12.12.22.17.1s0-.07.09 0A.1.1 0 00278.93 252.71zM278.05 253.28a1 1 0 00-.15.14c-.08.1.06.24.14.14a1.06 1.06 0 01.15-.15C278.28 253.33 278.15 253.2 278.05 253.28zM276.48 255c0-.08-.09-.17-.16-.1h0a.43.43 0 00-.13.17c0 .09.1.16.16.09l0 0h.07A.1.1 0 00276.48 255zM288.61 249.51c0-.06-.05-.12-.07-.17a.13.13 0 00-.08-.07l0-.06c-.06-.11-.23 0-.17.1a1.75 1.75 0 00.18.29h0l0 0C288.53 249.72 288.67 249.6 288.61 249.51zM289.46 249.26a.09.09 0 00-.17 0 .09.09 0 000 .17c.06 0 .13.06.19 0S289.49 249.32 289.46 249.26zM290.77 249h0a.11.11 0 00-.1.05.1.1 0 00.05.19c.07 0 .17 0 .17-.13A.12.12 0 00290.77 249zM290.29 248.06a.1.1 0 00-.09 0l-.12.07a.1.1 0 000 .05.16.16 0 000 .07.1.1 0 00.07.12.14.14 0 00.09 0 .1.1 0 00.15-.11h0A.09.09 0 00290.29 248.06zM294.34 248.72h0a.1.1 0 000 .2h0A.1.1 0 00294.34 248.72zM295.87 248.44h0a.09.09 0 00-.12 0l0 0h0a.1.1 0 00.07.18h0a.11.11 0 00.07 0l.11 0C296.07 248.54 296 248.37 295.87 248.44zM297.16 247.3h-.09c-.12 0-.17.17-.05.19h.12a.09.09 0 00.09 0l.06 0a.13.13 0 000-.09v0C297.36 247.26 297.2 247.2 297.16 247.3zM285.74 248.74a.1.1 0 00-.15-.09.58.58 0 00-.12.1c-.07.09 0 .21.12.16h.05a.17.17 0 00.06-.06.08.08 0 000-.09zM284.31 248.74l-.07-.08a.09.09 0 00-.12 0 .09.09 0 00-.07.16l.13.14c.06.06.16 0 .17-.07A.09.09 0 00284.31 248.74zM284.71 248.48c0-.13-.21-.13-.2 0v0a.09.09 0 000 .12s0 0 0 0v0c0 .1.13.18.18.08a.53.53 0 000-.12A.76.76 0 00284.71 248.48zM282.05 248.05l0 0c-.08-.09-.22.05-.14.14s.23.18.3 0A.1.1 0 00282.05 248.05zM283.05 248.45c.1-.08 0-.22-.13-.14a.75.75 0 00-.15.16.09.09 0 000 .11.19.19 0 00.12.09c.1 0 .15-.1.1-.16h0zM289 250.25c0-.07-.08-.13-.14-.08s-.21.07-.12.15h0s0 0 0 0a.09.09 0 00.12.09.21.21 0 00.12-.07C289 250.35 289 250.29 289 250.25zM287.74 249.46c0-.05-.08-.11-.15-.09a.12.12 0 00-.07.12s0 .08.05.12.19 0 .18-.07A.08.08 0 00287.74 249.46zM292.84 249.24c-.08-.08-.2 0-.15.12s.07.21.15.12A.16.16 0 00292.84 249.24zM279.68 247.88a.09.09 0 00-.12-.09h0a.09.09 0 00-.09.06.24.24 0 00-.06.11.08.08 0 000 .07.06.06 0 000 .06c0 .12.15.16.19 0a.67.67 0 01.07-.18h0v0A0 0 0 00279.68 247.88zM278.64 247.92l-.05 0a.1.1 0 00.14.14l0 0C278.87 248 278.73 247.83 278.64 247.92z" class="colorf7d237 svgShape"/>
    <path fill="#cc8640" d="M275,251.83s2.09-2.48,7.49-1.34C282.5,250.49,276.68,248.61,275,251.83Z" class="colorcc8640 svgShape"/>
    <rect width="18.63" height="1.66" x="306.47" y="226.79" fill="#8e8782" class="color8e8782 svgShape"/>
    <path fill="#c1bcb8" d="M315.75,222.87,306,226.62a.08.08,0,0,0,0,.15h19.58a.08.08,0,0,0,0-.15l-9.79-3.75Z" class="colorc1bcb8 svgShape"/>
    <path fill="#eaeaea" d="M308.49,245.14l3.68-.64h7.18l3.72.64s-3.74,4.52-6.57,4.4-7.3-2.65-7.3-2.65Z" class="coloreaeaea svgShape"/>
    <polygon fill="#c1bcb8" points="325.65 263.51 320.98 264.99 310.59 264.99 305.91 263.51 308.49 245.14 312.15 245.6 319.35 245.6 323.07 245.14 325.65 263.51" class="colorc1bcb8 svgShape"/>
    <path style="mix-blend-mode:multiply" fill="#bdceef" d="M306.14,261.88l-.23,1.63,2.57.81A9.12,9.12,0,0,1,306.14,261.88Z" opacity=".26" class="colorbdceef svgShape"/>
    <polygon fill="#ada6a1" points="323.07 245.14 325.65 263.51 320.98 264.99 319.35 245.6 323.07 245.14" class="colorada6a1 svgShape"/>
    <path fill="#eaeaea" d="M312.15,245.61A130.35,130.35,0,0,0,310.59,265,106,106,0,0,0,312.15,245.61Z" class="coloreaeaea svgShape"/>
    <path fill="#ada6a1" d="M321.27,245.05l-5.17.3a3.42,3.42,0,0,1-.64,0l-5.16-.3V239.5h11Z" class="colorada6a1 svgShape"/>
    <path fill="#8e8782" d="M313.37,244.31c1.27.06,2.53.05,3.79,0A27.66,27.66,0,0,0,321,244l.25,0V239.5h-11v4.67C311.31,244.16,312.36,244.26,313.37,244.31Z" class="color8e8782 svgShape"/>
    <path fill="#ada6a1" d="M321.1,243.56l-2.76.31a23,23,0,0,1-5.11,0l-2.76-.31a.79.79,0,0,1-.73-.76v-5.42h12.09v5.42A.79.79,0,0,1,321.1,243.56Z" class="colorada6a1 svgShape"/>
    <polygon fill="#c1bcb8" points="325.65 227.53 323.07 239.37 319.35 239.78 312.15 239.78 308.49 239.37 305.91 227.53 310.59 227.37 320.98 227.37 325.65 227.53" class="colorc1bcb8 svgShape"/>
    <polygon fill="#ada6a1" points="323.07 239.37 319.35 239.78 320.98 227.37 325.65 227.53 323.07 239.37" class="colorada6a1 svgShape"/>
    <path fill="#eaeaea" d="M310.59,227.37a28.36,28.36,0,0,0,1.56,12.41A63.77,63.77,0,0,0,310.59,227.37Z" class="coloreaeaea svgShape"/>
    <path fill="#d3d1cf" d="M325.27,227h-19a.38.38,0,0,1-.38-.38h0a.38.38,0,0,1,.38-.38h19a.38.38,0,0,1,.38.38h0A.38.38,0,0,1,325.27,227Z" class="colord3d1cf svgShape"/>
    <path fill="#ada6a1" d="M305.91,227.53h-3.39c-.65,0-1.25.34-1.12.77s.64.16,1.42.82,5,7.14,5,7.14Z" class="colorada6a1 svgShape"/>
    <polygon fill="#ba1600" points="316.77 223.29 315.78 223.55 314.8 223.29 314.28 219.36 315.78 218.84 317.29 219.36 316.77 223.29" class="colorba1600 svgShape"/>
    <path fill="#ba1600" d="M328.82,240.7l-1.81.61a.57.57,0,0,0-.35.74l.29.82a.58.58,0,0,0,.71.35l2.3-.7a.55.55,0,0,0,.39-.39l3.49-12.53a.84.84,0,0,0-.27-.86l-3-2.6a.8.8,0,0,0-.93-.09l-2.6,1.48h-1.36l-.77,3.55,1.68,0,2.92-2a.45.45,0,0,1,.54,0,8.61,8.61,0,0,1,1.38,1.13c.19.32-.52.84-.71,1.45s.22,1.33,0,1.94-.62.67-.91,1.38.17,1.46,0,2.1-.62.81-.82,1.42S329.33,240,328.82,240.7Z" class="colorba1600 svgShape"/>
    <path fill="#eaeaea" d="M323.32,226.38h-6.84c-2,0-4.4-.36-6.33.19a0,0,0,1,0,0,0c1.92.55,4.35.19,6.33.19h6.84A.21.21,0,0,0,323.32,226.38Z" class="coloreaeaea svgShape"/>
    <path fill="#c1bcb8" d="M74.53,320.52s2.86,30.51,6.6,37.62c3.16,6,21,6.75,24.83-.38,2.77-5.08,5.89-37.24,5.89-37.24Z" class="colorc1bcb8 svgShape"/>
    <path fill="#eaeaea" d="M111.85,320.52c0,3.21-8.36,5.82-18.66,5.82s-18.66-2.61-18.66-5.82,8.35-5.82,18.66-5.82S111.85,317.31,111.85,320.52Z" class="coloreaeaea svgShape"/>
    <path fill="#ada6a1" d="M109.84,320.53c0,.89-.9,1.74-2.48,2.44l-.76.31c-3,1.18-7.92,1.92-13.41,1.92-6.67,0-12.41-1.09-15.07-2.68l-.2-.14c-.9-.57-1.39-1.2-1.39-1.85,0-2.6,7.46-4.7,16.66-4.7S109.84,317.93,109.84,320.53Z" class="colorada6a1 svgShape"/>
    <path fill="#5b2812" d="M107.36,323l-.76.31c-3,1.18-7.92,1.92-13.41,1.92-6.67,0-12.41-1.09-15.07-2.68l-.2-.14c2.45-2.06,8.24-3,10.38-4.35,3.77,1.93,8.71.88,12.84,1.75,3.32.72,2.93-.95,5.44,2A7.19,7.19,0,0,1,107.36,323Z" class="color5b2812 svgShape"/>
    <rect width="3.83" height="27.91" x="91.16" y="293.68" fill="#bc5f13" transform="rotate(-1.45 93.315 308.24)" class="colorbc5f13 svgShape"/>
    <path fill="#437529" d="M114.19,259.85s10.08,29.92,25.27,51.29a37.34,37.34,0,0,1-18.58-15.07s.93,19.06,5.57,26.94c0,0-17.08-8.45-21.51-25.65,0,0,0,18.2-5.08,27.21,0,0-6.71-19.36-6-27.37,0,0-5.79,17-18.92,24,0,0,4.42-17.87,2.42-26.7,0,0-10.59,19.8-21.11,24.95,0,0,8.85-18.42,8.72-23.74,0,0-11.25,11.38-18.31,13.33,0,0,21.16-40.92,23.58-50.31S114.19,259.85,114.19,259.85Z" class="color437529 svgShape"/>
    <path fill="#6d9b54" d="M109.56,234.81s10.67,24,19.81,34.42c0,0-9.6-5.09-12-8,0,0,5.7,14.65,10,21.05,0,0-15.57-7.3-18.83-19.05,0,0,4,17.06,1.25,26,0,0-9.94-18.68-11.28-24.57,0,0-3.63,20.22-8.24,25.07,0,0-3.95-15.88-4.19-25.34,0,0-9,18-15.44,21.1,0,0,6.58-20.29,6.46-25,0,0-14.19,12.05-20.64,14.58,0,0,18.36-34.64,21.15-41.22s19.75-14.71,19.75-14.71Z" class="color6d9b54 svgShape"/>
    <path fill="#98bc7e" d="M92.71,200.32s18.06,35.65,30.16,46c0,0-13.66-2-19.28-13.71,0,0,4,17.65,10.08,24,0,0-12.53-3.83-16.47-19.12,0,0-.82,14.23-5.37,21.44,0,0-1-14.77-2.89-20.63,0,0-6.75,13.78-16.13,17.57,0,0,6.18-13.18,7.2-19.71,0,0-9.82,9.71-18.08,10.51C61.93,246.67,91.2,211,92.71,200.32Z" class="color98bc7e svgShape"/>
    <rect width="1.74" height="2.41" x="64.34" y="244.91" fill="#dd973a" transform="rotate(-1.69 65.198 246.454)" class="colordd973a svgShape"/>
    <path fill="#f43921" d="M68.07,248.73a2.78,2.78,0,1,1-2.86-2.7A2.78,2.78,0,0,1,68.07,248.73Z" class="colorf43921 svgShape"/>
    <path fill="#ffffff" d="M66.92,247.7a.48.48,0,0,1-.47.49.48.48,0,1,1,.47-.49Z" class="colorfff svgShape"/>
    <rect width="1.74" height="2.41" x="84.97" y="261.1" fill="#dd973a" transform="rotate(-1.69 85.981 262.697)" class="colordd973a svgShape"/>
    <path fill="#f43921" d="M88.69,264.92a2.78,2.78,0,1,1-2.86-2.69A2.78,2.78,0,0,1,88.69,264.92Z" class="colorf43921 svgShape"/>
    <path fill="#ffffff" d="M87.54,263.89a.48.48,0,0,1-.46.49.48.48,0,0,1,0-.95A.47.47,0,0,1,87.54,263.89Z" class="colorfff svgShape"/>
    <rect width="1.74" height="2.41" x="97.88" y="221.87" fill="#dd973a" transform="rotate(-1.69 98.765 223.552)" class="colordd973a svgShape"/>
    <path fill="#f43921" d="M101.6,225.68A2.78,2.78,0,1,1,98.75,223,2.77,2.77,0,0,1,101.6,225.68Z" class="colorf43921 svgShape"/>
    <path fill="#ffffff" d="M100.45,224.65a.48.48,0,0,1-.46.49.48.48,0,0,1,0-.95A.48.48,0,0,1,100.45,224.65Z" class="colorfff svgShape"/>
    <rect width="1.74" height="2.41" x="120.53" y="292.45" fill="#dd973a" transform="translate(-8.61 3.71)" class="colordd973a svgShape"/>
    <path fill="#f43921" d="M124.26,296.27a2.78,2.78,0,1,1-2.86-2.69A2.79,2.79,0,0,1,124.26,296.27Z" class="colorf43921 svgShape"/>
    <path fill="#ffffff" d="M123.1,295.24a.48.48,0,0,1-.95,0,.47.47,0,0,1,.46-.49A.46.46,0,0,1,123.1,295.24Z" class="colorfff svgShape"/>
    <rect width="1.74" height="2.41" x="67.44" y="305.05" fill="#dd973a" transform="rotate(-1.69 68.376 306.856)" class="colordd973a svgShape"/>
    <path fill="#f43921" d="M71.17,308.86a2.78,2.78,0,1,1-2.86-2.69A2.78,2.78,0,0,1,71.17,308.86Z" class="colorf43921 svgShape"/>
    <path fill="#ffffff" d="M70,307.83a.48.48,0,1,1-.49-.46A.47.47,0,0,1,70,307.83Z" class="colorfff svgShape"/>
    <rect width="1.74" height="2.41" x="118.18" y="252.12" fill="#dd973a" transform="rotate(-1.69 119.343 253.695)" class="colordd973a svgShape"/>
    <path fill="#f43921" d="M121.9,255.94a2.78,2.78,0,1,1-2.86-2.69A2.78,2.78,0,0,1,121.9,255.94Z" class="colorf43921 svgShape"/>
    <path fill="#ffffff" d="M120.75,254.91a.48.48,0,1,1-.49-.46A.47.47,0,0,1,120.75,254.91Z" class="colorfff svgShape"/>
    <path fill="#ffd85a" d="M99.34 240.25a3.78 3.78 0 01-2.58-1.52 10.31 10.31 0 01-1.14-1.53c-.66-1-1.29-2-2.28-2.26-1.21-.34-2 .19-2.91.87a7.51 7.51 0 01-1.68 1c-1.88.73-2.6-.75-3.18-1.93a8.8 8.8 0 00-.65-1.18c-.82-1.15-1.64-.83-3.26-.07l-.42.19c-2.38 1.09-3.18-.26-4.18-2l-.22-.38a1.29 1.29 0 00-1.31-.62 3.12 3.12 0 00-2.45 1.82.45.45 0 01-.58.25.45.45 0 01-.25-.58 4 4 0 013.2-2.38A2.17 2.17 0 0177.6 231l.23.39c1 1.72 1.39 2.36 3 1.61l.41-.19c1.51-.7 3.07-1.43 4.36.36a9.91 9.91 0 01.73 1.31c.68 1.4 1 1.89 2 1.49a6.86 6.86 0 001.5-.88 3.94 3.94 0 013.66-1 5.38 5.38 0 012.78 2.62 9.61 9.61 0 001 1.4c1.5 1.56 2.13 1.61 3.78.33l.31-.25a2.67 2.67 0 012.13-.86 1.8 1.8 0 011.4 1 1.52 1.52 0 00.42.49c1.46 1 3.66-.53 4.63-1.49.2-.21.36-.39.49-.54a1.58 1.58 0 012-.59 4.06 4.06 0 011.67 1.19 3.52 3.52 0 00.71.61.21.21 0 010-.09.45.45 0 01.6-.2.45.45 0 01.19.6.94.94 0 01-.69.57c-.54.09-1-.35-1.49-.86a3.39 3.39 0 00-1.26-1c-.7-.18-.7-.18-1.15.32-.14.16-.3.35-.53.57-1.22 1.23-3.82 3-5.76 1.6a2.59 2.59 0 01-.66-.74c-.21-.32-.33-.5-.75-.56-.59-.08-1 .27-1.46.66a3.92 3.92 0 01-.33.27A4.12 4.12 0 0199.34 240.25zM82 295.45A7.42 7.42 0 0178.3 294c-.42-.24-.86-.51-1.35-.78-1.39-.76-2.59-1.15-3.89-.58a4.23 4.23 0 00-1.27 1.18c-.63.76-1.36 1.63-2.45 1.47a5.61 5.61 0 01-2.63-1.65 8.31 8.31 0 00-1.43-1.12c-1.48-.75-2.29-.61-3.46.61l-.17.17c-1.16 1.21-1.93 2-3.95.73l-.21-.13c-1.45-.92-1.71-1.09-3 0a.44.44 0 01-.63 0 .45.45 0 010-.63c1.75-1.57 2.56-1.06 4-.12l.21.13c1.4.89 1.68.61 2.83-.59l.17-.18c1.45-1.5 2.67-1.71 4.5-.78A8.34 8.34 0 0167.31 293a5.22 5.22 0 002.15 1.43c.57.06 1-.39 1.65-1.17a4.68 4.68 0 011.59-1.42 5.11 5.11 0 014.68.62c.5.27 1 .54 1.37.79 2.4 1.42 3.49 2.06 6.18 0 1.68-1.32 3.15-.59 4.44 0 1.14.57 2.12 1.05 3.21.3a3.52 3.52 0 001-1.49 3.55 3.55 0 012-2.16 3.14 3.14 0 013.14.55 7.79 7.79 0 001 .56c1.37.58 2-.44 3-2.14.72-1.23 1.46-2.5 2.71-2.89a6.06 6.06 0 012.51-.08 8.7 8.7 0 001.3.08c1.57-.07 1.64-.35 1.95-1.56.06-.23.12-.47.2-.73.58-2 1.68-2.67 3.81-2.48 1.85.17 2.21-.11 2.42-1.86.29-2.34 1.34-2.84 3.31-3l.22 0c1.55-.11 2.08-.15 2-1.79a.43.43 0 01.41-.47.45.45 0 01.47.41c.15 2.52-1.28 2.63-2.79 2.74l-.22 0c-1.83.13-2.29.55-2.5 2.21-.27 2.22-1.06 2.84-3.38 2.64-1.72-.16-2.42.29-2.88 1.84-.07.25-.13.49-.19.7-.36 1.4-.65 2.14-2.77 2.23a9.87 9.87 0 01-1.43-.08 5.33 5.33 0 00-2.15 0c-.93.29-1.58 1.41-2.21 2.49-.94 1.61-2 3.43-4.16 2.51a7.3 7.3 0 01-1.11-.62 2.29 2.29 0 00-2.35-.47c-.81.3-1.11.95-1.47 1.71a4.1 4.1 0 01-1.33 1.84c-1.53 1.05-2.9.37-4.11-.23s-2.26-1.13-3.51-.16A5.75 5.75 0 0182 295.45zM115.78 265a3.36 3.36 0 01-2.13-.9 6.72 6.72 0 00-.65-.45c-1.2-.74-2.07-.41-3.16 0a6 6 0 01-2.85.52 5.08 5.08 0 01-2.69-1.33c-.87-.7-1.56-1.25-2.83-.91a4.71 4.71 0 00-1.08.59 3.56 3.56 0 01-1.8.77h0a2.57 2.57 0 01-2-1.32 3.49 3.49 0 00-.67-.74c-1-.74-1.86-.39-2.89.06a4.5 4.5 0 01-2.6.56 4.26 4.26 0 01-2.32-1.37c-.74-.71-1.33-1.27-2.5-.92a3.77 3.77 0 00-.92.46 3.18 3.18 0 01-2 .63A2.41 2.41 0 0181 259.57a2.1 2.1 0 00-.78-.68c-.77-.35-1.51.08-2.37.57a3.91 3.91 0 01-3 .78 2.47 2.47 0 01-1.57-1.36 3 3 0 00-.62-.83 1.1 1.1 0 00-1.4-.27 7.48 7.48 0 01-.83.22 2.66 2.66 0 01-2.79-.78 4.42 4.42 0 01-.47-.5c-.13-.15-.33-.4-.42-.4h0s-.12 0-.39.31a.44.44 0 01-.62 0 .44.44 0 010-.63 1.5 1.5 0 011-.6h0a1.53 1.53 0 011.09.7 2.79 2.79 0 00.37.4 1.82 1.82 0 002.05.58 5 5 0 00.72-.19 1.94 1.94 0 012.24.44 4 4 0 01.81 1.05c.29.48.49.83 1 1a3.2 3.2 0 002.3-.68c.93-.54 2-1.16 3.18-.62a3 3 0 011.09.93 1.54 1.54 0 001.17.75 2.32 2.32 0 001.42-.5 4.77 4.77 0 011.13-.56c1.66-.49 2.56.38 3.36 1.13A3.47 3.47 0 0090.55 261a3.81 3.81 0 002.12-.5c1.08-.47 2.3-1 3.75 0a3.88 3.88 0 01.87.94c.45.59.75.95 1.29 1h0a3.09 3.09 0 001.31-.63 5.18 5.18 0 011.34-.69 3.73 3.73 0 013.61 1.06 4.24 4.24 0 002.24 1.15 5.08 5.08 0 002.43-.47 4 4 0 014 .07c.25.16.49.33.71.5a2.41 2.41 0 001.85.71 2.14 2.14 0 00.7-.28 1.57 1.57 0 011.64-.18.44.44 0 01.6.61.56.56 0 01-.15.35l-.32.36-.33-.36c-.33-.35-.48-.29-1 0a3 3 0 01-1 .38A2.3 2.3 0 01115.78 265z" class="colorffd85a svgShape"/>
    <polygon fill="#ffd93b" points="91.04 196.42 93.26 192.08 95.36 196.49 100.17 197.25 96.63 200.61 97.39 205.43 93.1 203.1 88.75 205.3 89.65 200.51 86.2 197.06 91.04 196.42" class="colorffd93b svgShape"/>
    <path fill="#ffd93b" d="M94.07 213.24a.81.81 0 01-.79.83.82.82 0 11.79-.83zM67.5 279.53a.74.74 0 01-.73.75.74.74 0 11.73-.75zM86.31 303.83a.67.67 0 11-.68-.65A.66.66 0 0186.31 303.83zM117.17 307.34a1 1 0 01-1.92.05 1 1 0 111.92-.05zM94.28 274a.59.59 0 11-.61-.57A.59.59 0 0194.28 274zM82.82 241.93a.67.67 0 11-.69-.65A.67.67 0 0182.82 241.93zM105.68 256.73a.67.67 0 01-.65.69.67.67 0 11.65-.69z" class="colorffd93b svgShape"/>
    <path fill="#ffffff" d="M91.15 226.55a1.18 1.18 0 11-1.21-1.15A1.18 1.18 0 0191.15 226.55zM88.54 251.92a.74.74 0 01-1.48 0 .74.74 0 011.48 0zM83.89 284.14a.89.89 0 11-.91-.86A.89.89 0 0183.89 284.14zM113.22 297.23a1 1 0 01-.94 1 1 1 0 01-1-.93 1 1 0 01.93-1A1 1 0 01113.22 297.23zM100.06 309.25a.67.67 0 11-.68-.65A.66.66 0 01100.06 309.25zM67.41 264.59a.89.89 0 11-.91-.87A.89.89 0 0167.41 264.59zM109.41 246.5a1.18 1.18 0 11-1.21-1.15A1.18 1.18 0 01109.41 246.5zM249.14 131.3a.13.13 0 01-.1 0 .14.14 0 010-.21l3.26-3.64a.15.15 0 01.21 0 .16.16 0 010 .22l-3.27 3.63A.16.16 0 01249.14 131.3z" class="colorfff svgShape"/>
    <path fill="#ffffff" d="M249.69 131.31a.15.15 0 01-.15-.15v-.45l-.45 0c-.08 0-.16-.05-.16-.14a.15.15 0 01.13-.16l.61 0a.15.15 0 01.11 0 .12.12 0 01.05.1v.61a.15.15 0 01-.14.16zM251.86 128.27a.21.21 0 01-.1 0 .16.16 0 010-.11v-.61a.15.15 0 01.15-.15.15.15 0 01.15.15V128l.45 0a.17.17 0 01.16.14.14.14 0 01-.14.16l-.6.06zM252.59 131.11a.17.17 0 01-.1 0l-3.64-3.27a.15.15 0 010-.21.16.16 0 01.22 0l3.63 3.26a.15.15 0 010 .21A.13.13 0 01252.59 131.11z" class="colorfff svgShape"/>
    <path fill="#ffffff" d="M252 131.18a.15.15 0 01-.15-.14l0-.6a.16.16 0 010-.12.16.16 0 01.11 0h.61a.16.16 0 01.16.15.15.15 0 01-.15.15h-.45l0 .45a.15.15 0 01-.14.16zM249 128.4a.15.15 0 01-.15-.14.15.15 0 01.15-.16h.44l0-.44a.15.15 0 01.14-.16.14.14 0 01.16.13l.06.61a.15.15 0 010 .11.16.16 0 01-.11 0zM250.9 131.92a.15.15 0 01-.15-.14l-.26-4.88a.16.16 0 01.14-.16.15.15 0 01.16.15l.26 4.87a.14.14 0 01-.14.16z" class="colorfff svgShape"/>
    <path fill="#ffffff" d="M250.47 131.58a.13.13 0 01-.1 0 .15.15 0 010-.21l.39-.46a.14.14 0 01.11-.06.14.14 0 01.11 0l.44.43a.15.15 0 010 .21.16.16 0 01-.22 0l-.32-.31-.29.35A.16.16 0 01250.47 131.58zM250.68 127.85a.14.14 0 01-.1 0l-.44-.42a.15.15 0 01.21-.22l.32.31.29-.34a.16.16 0 01.21 0 .15.15 0 010 .21l-.39.47a.16.16 0 01-.11 0zM248.33 129.61a.15.15 0 01-.15-.14.16.16 0 01.15-.16l4.87-.26a.15.15 0 010 .3l-4.88.26z" class="colorfff svgShape"/>
    <path fill="#ffffff" d="M252.87 129.79a.18.18 0 01-.1 0l-.46-.39a.14.14 0 01-.06-.11.21.21 0 010-.11l.43-.44a.15.15 0 01.21.21l-.31.32.35.29a.14.14 0 010 .21A.14.14 0 01252.87 129.79zM248.72 130a.18.18 0 01-.1 0 .16.16 0 010-.22l.31-.32-.34-.29a.15.15 0 11.19-.23l.47.39a.16.16 0 010 .11.12.12 0 010 .11l-.42.44A.16.16 0 01248.72 130zM200.86 65.14a.12.12 0 01-.1 0 .15.15 0 010-.21L204 61.26a.15.15 0 11.22.2L201 65.09A.13.13 0 01200.86 65.14z" class="colorfff svgShape"/>
    <path fill="#ffffff" d="M201.41 65.15a.15.15 0 01-.15-.15v-.45l-.45 0a.15.15 0 01-.16-.13.15.15 0 01.14-.17l.6-.05a.17.17 0 01.12 0 .16.16 0 01.05.11V65a.15.15 0 01-.15.15zM203.58 62.11a.15.15 0 01-.15-.15v-.6a.15.15 0 01.14-.16h0a.15.15 0 01.15.15v.45l.44 0a.15.15 0 01.16.14.15.15 0 01-.13.16l-.61 0zM204.3 65a.14.14 0 01-.1 0l-3.63-3.26a.16.16 0 010-.22.15.15 0 01.21 0l3.64 3.27a.15.15 0 010 .21A.17.17 0 01204.3 65z" class="colorfff svgShape"/>
    <path fill="#ffffff" d="M203.76 65a.14.14 0 01-.15-.13l-.06-.61a.15.15 0 010-.11.16.16 0 01.11 0l.61 0h0a.15.15 0 01.15.15.16.16 0 01-.15.16h-.44l0 .45a.15.15 0 01-.14.16zM200.66 62.25a.16.16 0 01-.15-.15.15.15 0 01.15-.15h.45l0-.45a.15.15 0 01.3 0l0 .6a.17.17 0 010 .12.16.16 0 01-.11.05h-.62zM202.62 65.77a.15.15 0 01-.15-.15l-.26-4.87a.14.14 0 01.14-.16.15.15 0 01.16.14l.26 4.88a.16.16 0 01-.14.16z" class="colorfff svgShape"/>
    <path fill="#ffffff" d="M202.18 65.42a.16.16 0 01-.09 0 .15.15 0 010-.21l.39-.47a.16.16 0 01.11 0 .12.12 0 01.11 0l.44.42a.14.14 0 010 .21.15.15 0 01-.21 0l-.32-.31-.29.34A.17.17 0 01202.18 65.42zM202.4 61.7a.15.15 0 01-.1 0l-.44-.43a.15.15 0 010-.21.16.16 0 01.22 0l.32.31.29-.35a.15.15 0 01.21 0 .17.17 0 010 .22l-.39.46a.17.17 0 01-.11.06zM200.05 63.46a.15.15 0 01-.15-.15.14.14 0 01.14-.15l4.88-.26c.09 0 .15.05.16.14a.16.16 0 01-.15.16l-4.87.26z" class="colorfff svgShape"/>
    <path fill="#ffffff" d="M204.58 63.63l-.09 0-.47-.4a.12.12 0 01-.05-.1.17.17 0 010-.12l.42-.43a.15.15 0 11.22.2l-.31.33.34.28a.17.17 0 010 .22A.17.17 0 01204.58 63.63zM200.44 63.85a.15.15 0 01-.11 0 .14.14 0 010-.21l.31-.32-.35-.29a.15.15 0 01.2-.23l.46.39a.13.13 0 01.06.11.15.15 0 010 .11l-.43.44A.12.12 0 01200.44 63.85zM238.27 220.87a.13.13 0 01-.1 0 .14.14 0 010-.21l3.26-3.64a.15.15 0 01.21 0 .16.16 0 010 .22l-3.26 3.63A.16.16 0 01238.27 220.87z" class="colorfff svgShape"/>
    <path fill="#ffffff" d="M238.82 220.87a.15.15 0 01-.15-.14v-.45l-.44 0a.15.15 0 01-.17-.14.15.15 0 01.14-.16l.61-.05a.14.14 0 01.11 0 .16.16 0 01.05.11v.61a.15.15 0 01-.15.15zM241 217.84a.18.18 0 01-.1 0 .16.16 0 010-.11v-.61a.15.15 0 01.15-.15.16.16 0 01.15.15v.44l.44 0a.15.15 0 110 .3l-.61.06zM241.72 220.68a.15.15 0 01-.1 0L238 217.38a.15.15 0 11.2-.22l3.64 3.26a.15.15 0 010 .21A.13.13 0 01241.72 220.68z" class="colorfff svgShape"/>
    <path fill="#ffffff" d="M241.17 220.75a.15.15 0 01-.15-.14L241 220a.15.15 0 010-.11.16.16 0 01.11 0h.61a.15.15 0 01.15.15.15.15 0 01-.14.15h-.45l0 .45a.16.16 0 01-.14.16zM238.08 218a.14.14 0 01-.15-.14.14.14 0 01.14-.16h.45l0-.44a.15.15 0 01.14-.16.14.14 0 01.16.13l.05.61a.14.14 0 010 .11.16.16 0 01-.11.05zM240 221.49a.15.15 0 01-.15-.14l-.26-4.88a.15.15 0 01.14-.16.17.17 0 01.16.15l.26 4.87a.15.15 0 01-.14.16z" class="colorfff svgShape"/>
    <path fill="#ffffff" d="M239.6 221.15a.13.13 0 01-.1 0 .16.16 0 010-.21l.39-.47a.16.16 0 01.11-.05.14.14 0 01.11 0l.44.43a.15.15 0 01-.21.21l-.32-.31-.29.34A.14.14 0 01239.6 221.15zM239.81 217.42a.13.13 0 01-.1 0l-.44-.42a.15.15 0 010-.21.16.16 0 01.22 0l.32.31.29-.34a.15.15 0 11.23.19l-.39.47a.16.16 0 01-.11 0zM237.46 219.18a.15.15 0 01-.15-.14.16.16 0 01.14-.16l4.88-.26a.16.16 0 01.16.14.15.15 0 01-.14.16l-4.88.26z" class="colorfff svgShape"/>
    <path fill="#ffffff" d="M242 219.36a.18.18 0 01-.1 0l-.47-.39a.16.16 0 01-.05-.11.15.15 0 010-.11l.42-.44a.16.16 0 01.22 0 .14.14 0 010 .21l-.31.32.34.29a.15.15 0 010 .21A.14.14 0 01242 219.36zM237.85 219.58a.21.21 0 01-.11 0 .16.16 0 010-.22l.31-.32-.34-.29a.14.14 0 010-.21.16.16 0 01.21 0l.47.39a.16.16 0 010 .11.15.15 0 010 .11l-.42.44A.16.16 0 01237.85 219.58zM258.71 171.83a.08.08 0 01-.08-.08.09.09 0 01.08-.09l2.72 0h0a.09.09 0 110 .17l-2.73 0z" class="colorfff svgShape"/>
    <path fill="#ffffff" d="M258.92 172.06l-.06 0a.09.09 0 010-.12l.18-.18-.19-.16a.09.09 0 010-.12.08.08 0 01.12 0l.25.23a.08.08 0 010 .12L259 172zM261.23 172l-.05 0-.25-.23a.06.06 0 010-.06.14.14 0 010-.06l.25-.24a.08.08 0 01.12 0 .09.09 0 010 .12l-.18.17.18.17a.07.07 0 010 .11A.09.09 0 01261.23 172zM260.1 173.17a.09.09 0 01-.09-.08l0-2.72a.08.08 0 01.08-.09h0a.08.08 0 01.08.08l.05 2.73a.09.09 0 01-.08.08z" class="colorfff svgShape"/>
    <path fill="#ffffff" d="M259.86 173l-.06 0a.09.09 0 010-.12l.23-.25a.06.06 0 01.06 0h0a.09.09 0 01.06 0l.23.24a.07.07 0 010 .12.09.09 0 01-.12 0l-.17-.18-.17.18A.07.07 0 01259.86 173zM260.06 170.9a.07.07 0 01-.06 0l-.24-.24a.08.08 0 01.12-.12l.18.18.16-.18a.08.08 0 01.12 0 .09.09 0 010 .12l-.23.25-.06 0zM259.13 172.79l-.06 0s0-.09 0-.12l1.89-2a.08.08 0 01.12 0 .09.09 0 010 .12l-1.89 1.95A.09.09 0 01259.13 172.79z" class="colorfff svgShape"/>
    <path fill="#ffffff" d="M259.43 172.8h0a.09.09 0 01-.08-.08v-.25h-.25a.08.08 0 01-.08-.08.09.09 0 01.08-.09h.34s0 0 .06 0a.07.07 0 010 .06v.34A.08.08 0 01259.43 172.8zM260.71 171.16a.06.06 0 01-.06 0 .07.07 0 010-.06v-.34a.09.09 0 01.08-.08h0a.09.09 0 01.09.08V171H261a.09.09 0 110 .17l-.34 0zM261.05 172.76a.09.09 0 01-.06 0L259 170.84a.08.08 0 010-.12.09.09 0 01.12 0l2 1.89a.09.09 0 010 .12A.07.07 0 01261.05 172.76z" class="colorfff svgShape"/>
    <path fill="#ffffff" d="M260.74 172.78a.08.08 0 01-.08-.08l0-.34a.09.09 0 010-.06s0 0 .06 0h.34a.09.09 0 01.08.09.09.09 0 01-.08.08h-.25v.25a.08.08 0 01-.08.09zM259.42 171.18h-.34c-.05 0-.09 0-.08-.08a.08.08 0 01.08-.09h.25v-.25a.08.08 0 01.08-.09s.08 0 .08.08l0 .34a.11.11 0 010 .06zM229.18 148.18a.08.08 0 110-.16l2.72-.05a.1.1 0 01.09.08.09.09 0 01-.09.09l-2.72 0z" class="colorfff svgShape"/>
    <path fill="#ffffff" d="M229.39 148.41l-.06 0a.08.08 0 010-.12l.18-.18-.19-.16a.09.09 0 010-.12.08.08 0 01.12 0l.25.23 0 .06a.07.07 0 010 .06l-.24.24zM231.7 148.37l0 0-.26-.23a.08.08 0 010-.06.14.14 0 010-.06l.25-.23a.07.07 0 01.12 0 .08.08 0 010 .12l-.18.17.19.17a.08.08 0 010 .11A.09.09 0 01231.7 148.37zM230.56 149.52a.09.09 0 01-.08-.08l0-2.72a.09.09 0 01.09-.09h0a.09.09 0 01.08.08l.05 2.73a.09.09 0 01-.08.08z" class="colorfff svgShape"/>
    <path fill="#ffffff" d="M230.33 149.32l-.06 0a.09.09 0 010-.12l.22-.25a.09.09 0 01.07 0h0a.09.09 0 01.06 0l.23.24a.08.08 0 01-.12.12l-.17-.18-.17.18A.09.09 0 01230.33 149.32zM230.53 147.25a.06.06 0 01-.06 0l-.24-.24a.08.08 0 01.12-.12l.17.18.17-.18a.08.08 0 11.12.11l-.22.25-.06 0zM229.59 149.14l-.05 0a.08.08 0 010-.12l1.9-2a.08.08 0 01.12 0 .09.09 0 010 .12l-1.9 2A.06.06 0 01229.59 149.14z" class="colorfff svgShape"/>
    <path fill="#ffffff" d="M229.9 149.15h0a.08.08 0 01-.08-.08v-.25h-.25s-.08 0-.08-.08 0-.08.08-.09h.33a.07.07 0 01.07 0 .14.14 0 010 .06v.34A.08.08 0 01229.9 149.15zM231.17 147.51a.05.05 0 010 0 .07.07 0 010-.06v-.34a.08.08 0 01.08-.08.07.07 0 01.08.08v.25h.25a.1.1 0 01.09.08.09.09 0 01-.08.09l-.34 0zM231.52 149.11l-.06 0-2-1.89a.08.08 0 01.12-.12l2 1.89a.09.09 0 010 .12z" class="colorfff svgShape"/>
    <path fill="#ffffff" d="M231.21 149.13a.08.08 0 01-.08-.08l0-.34a.09.09 0 010-.06.06.06 0 01.06 0h.34a.09.09 0 01.08.09.08.08 0 01-.09.08h-.25l0 .25a.09.09 0 01-.08.09zM229.89 147.53h-.34a.09.09 0 01-.09-.08.09.09 0 01.09-.09h.25v-.25a.08.08 0 01.08-.09s.08 0 .08.08l0 .34a.11.11 0 010 .06A.09.09 0 01229.89 147.53zM169.8 79.57a.08.08 0 01-.08-.08.08.08 0 01.08-.09l2.72-.05h0a.09.09 0 01.09.09.09.09 0 01-.09.08l-2.72 0z" class="colorfff svgShape"/>
    <path fill="#ffffff" d="M170 79.8a.07.07 0 01-.06 0 .09.09 0 010-.12l.18-.17-.19-.17a.08.08 0 01.12-.12l.25.23a.06.06 0 010 .06.09.09 0 010 .06l-.24.23A.09.09 0 01170 79.8zM172.32 79.76l0 0-.25-.23a.09.09 0 010-.06.08.08 0 010-.06l.25-.24a.09.09 0 01.12 0 .08.08 0 010 .12l-.18.17.19.17a.09.09 0 010 .12A.09.09 0 01172.32 79.76zM171.18 80.91a.09.09 0 01-.08-.08l0-2.73a.09.09 0 01.09-.08h0a.08.08 0 01.08.08l.05 2.72a.09.09 0 01-.08.09z" class="colorfff svgShape"/>
    <path fill="#ffffff" d="M171 80.71l-.06 0a.09.09 0 010-.12l.22-.25a.09.09 0 01.07 0l.06 0 .23.25a.09.09 0 010 .12.08.08 0 01-.12 0l-.17-.17-.17.18A.07.07 0 01171 80.71zM171.15 78.64a.06.06 0 01-.06 0l-.24-.24a.08.08 0 01.12-.12l.17.18.17-.19a.09.09 0 01.13.12l-.23.25zM170.22 80.52s-.05 0-.06 0a.07.07 0 010-.12l1.89-1.95a.08.08 0 01.12 0 .09.09 0 010 .12l-1.89 2A.07.07 0 01170.22 80.52z" class="colorfff svgShape"/>
    <path fill="#ffffff" d="M170.52 80.54h0a.09.09 0 01-.08-.09V80.2l-.25 0s-.08 0-.08-.08a.08.08 0 01.08-.09l.33 0a.09.09 0 01.07 0 .08.08 0 010 .06v.34A.09.09 0 01170.52 80.54zM171.79 78.89l0 0a.09.09 0 010-.06v-.34a.08.08 0 01.08-.09h0a.09.09 0 01.08.09v.25h.25s.08 0 .09.08a.09.09 0 01-.08.08l-.34 0zM172.14 80.49l-.06 0-2-1.89a.09.09 0 010-.12.07.07 0 01.12 0l2 1.89a.09.09 0 010 .12z" class="colorfff svgShape"/>
    <path fill="#ffffff" d="M171.83 80.52a.09.09 0 01-.08-.08l0-.34a.07.07 0 010-.06.06.06 0 01.06 0h.34a.09.09 0 01.08.08.08.08 0 01-.09.08h-.25l0 .25a.09.09 0 01-.08.09zM170.51 78.91h-.34a.09.09 0 01-.09-.09.09.09 0 01.09-.08h.25V78.5a.08.08 0 01.08-.09h0a.08.08 0 01.08.08l0 .34a.14.14 0 010 .06zM196.27 74.28a.08.08 0 01-.09-.08.08.08 0 01.08-.08l2.73-.05s.08 0 .08.08a.08.08 0 01-.08.09l-2.72 0z" class="colorfff svgShape"/>
    <path fill="#ffffff" d="M196.47 74.51l-.06 0a.09.09 0 010-.12l.18-.18-.18-.16a.09.09 0 11.11-.13l.25.23a.07.07 0 010 .06.11.11 0 010 .06l-.25.24zM198.79 74.47a.07.07 0 01-.06 0l-.25-.23a.06.06 0 010-.06.09.09 0 010-.06l.24-.23a.07.07 0 01.12 0 .09.09 0 010 .12l-.18.17.19.17a.08.08 0 010 .11A.09.09 0 01198.79 74.47zM197.65 75.62a.07.07 0 01-.08-.08l0-2.72a.09.09 0 01.08-.09h0a.09.09 0 01.09.08l0 2.73a.08.08 0 01-.08.08z" class="colorfff svgShape"/>
    <path fill="#ffffff" d="M197.41 75.42l0 0a.08.08 0 010-.12l.23-.25a.07.07 0 01.06 0 .06.06 0 01.06 0l.24.24a.08.08 0 01-.12.12l-.18-.18-.16.18A.09.09 0 01197.41 75.42zM197.61 73.35l-.06 0-.23-.25a.08.08 0 010-.12.09.09 0 01.12 0l.17.18.17-.18a.08.08 0 01.11 0 .08.08 0 010 .12l-.23.25A.06.06 0 01197.61 73.35zM196.68 75.24l-.06 0a.09.09 0 010-.12l1.89-2a.08.08 0 01.12.12l-1.89 1.95A.09.09 0 01196.68 75.24z" class="colorfff svgShape"/>
    <path fill="#ffffff" d="M197 75.25h0a.08.08 0 01-.09-.08v-.25h-.25a.08.08 0 01-.09-.08.11.11 0 01.08-.09H197a0 0 0 01.06 0 .09.09 0 010 .06v.34A.08.08 0 01197 75.25zM198.26 73.61l-.06 0s0 0 0-.06v-.34a.09.09 0 01.09-.08h0a.09.09 0 01.08.08v.25h.26a.09.09 0 01.08.08.08.08 0 01-.08.09l-.34 0zM198.61 75.21a.06.06 0 01-.06 0l-2-1.89a.08.08 0 01.12-.12l1.95 1.89a.08.08 0 010 .12A.09.09 0 01198.61 75.21z" class="colorfff svgShape"/>
    <path fill="#ffffff" d="M198.3 75.23a.07.07 0 01-.08-.08l0-.34a.14.14 0 010-.06s0 0 .06 0h.34a.08.08 0 01.08.09.08.08 0 01-.08.08h-.25v.25a.08.08 0 01-.08.09zM197 73.63h-.34a.09.09 0 01-.08-.08.09.09 0 01.08-.09h.25v-.25a.09.09 0 01.08-.09.08.08 0 01.09.08l0 .34a.07.07 0 010 .06A.06.06 0 01197 73.63zM146.59 199.78a.08.08 0 010-.16l2.72-.05h0a.09.09 0 01.08.08.09.09 0 01-.08.09l-2.73 0z" class="colorfff svgShape"/>
    <path fill="#ffffff" d="M146.8 200l-.06 0a.09.09 0 010-.12l.18-.18-.18-.16a.09.09 0 01.11-.13l.25.23a.09.09 0 010 .06.07.07 0 010 .06l-.24.24zM149.12 200a.07.07 0 01-.06 0l-.25-.23a.06.06 0 010-.06.09.09 0 010-.06l.24-.23a.07.07 0 01.12 0 .09.09 0 010 .12l-.18.17.18.17a.07.07 0 010 .11A.09.09 0 01149.12 200zM148 201.12a.08.08 0 01-.09-.08l0-2.72a.08.08 0 01.08-.09h0a.1.1 0 01.09.08l0 2.73a.08.08 0 01-.08.08z" class="colorfff svgShape"/>
    <path fill="#ffffff" d="M147.74 200.92s0 0-.05 0a.08.08 0 010-.12l.23-.25a.06.06 0 01.06 0l.06 0 .24.24a.08.08 0 010 .12.09.09 0 01-.12 0l-.17-.18-.16.18A.09.09 0 01147.74 200.92zM147.94 198.85l-.06 0-.24-.25a.08.08 0 010-.12.08.08 0 01.11 0l.18.18.16-.18a.09.09 0 11.13.11l-.23.25a.07.07 0 01-.06 0zM147 200.74l-.06 0a.09.09 0 010-.12l1.89-2a.08.08 0 01.12 0 .09.09 0 010 .12l-1.89 2z" class="colorfff svgShape"/>
    <path fill="#ffffff" d="M147.32 200.75h0a.08.08 0 01-.08-.08v-.25H147a.08.08 0 110-.16l.34 0s0 0 .06 0a.09.09 0 010 .06v.34A.08.08 0 01147.32 200.75zM148.59 199.11a.11.11 0 01-.09-.09v-.34s0-.07.08-.08a.09.09 0 01.09.08v.25h.26a.09.09 0 01.08.08.08.08 0 01-.08.09l-.34 0zM148.93 200.71a.05.05 0 01-.05 0l-2-1.89a.07.07 0 010-.12.08.08 0 01.11 0l2 1.89a.08.08 0 010 .12A.06.06 0 01148.93 200.71z" class="colorfff svgShape"/>
    <path fill="#ffffff" d="M148.63 200.73a.08.08 0 01-.09-.08v-.34s0 0 0-.06 0 0 .06 0H149a.08.08 0 01.08.09.09.09 0 01-.08.08h-.25v.25a.08.08 0 01-.08.09zM147.3 199.13H147a.08.08 0 01-.08-.08A.09.09 0 01147 199h.25v-.25a.08.08 0 01.08-.09h0a.1.1 0 01.09.08V199a0 0 0 010 .06zM243.06 214.18a.09.09 0 01-.08-.09.09.09 0 01.08-.08l2.72 0h0a.09.09 0 01.08.09.09.09 0 01-.08.08l-2.73.05z" class="colorfff svgShape"/>
    <path fill="#ffffff" d="M243.27 214.41a.09.09 0 01-.06 0 .09.09 0 010-.12l.18-.17-.18-.17a.08.08 0 010-.12.09.09 0 01.12 0l.25.23a.09.09 0 010 .06.09.09 0 010 .07l-.24.23A.09.09 0 01243.27 214.41zM245.59 214.37l-.06 0-.25-.22a.09.09 0 010-.06.09.09 0 010-.07l.24-.23a.08.08 0 01.12.12l-.18.17.18.17a.08.08 0 010 .12zM244.45 215.52a.09.09 0 01-.09-.09l0-2.72a.08.08 0 01.08-.09h0s.08 0 .09.09l0 2.72a.09.09 0 01-.08.09z" class="colorfff svgShape"/>
    <path fill="#ffffff" d="M244.21 215.32a.05.05 0 01-.05 0 .08.08 0 010-.12l.23-.25.06 0s0 0 .06 0l.24.24a.08.08 0 010 .12s-.08 0-.12 0l-.17-.18-.17.19A.06.06 0 01244.21 215.32zM244.41 213.24l-.06 0-.24-.25a.07.07 0 010-.11.07.07 0 01.11 0l.18.18.16-.19a.08.08 0 01.12 0 .07.07 0 010 .11l-.23.26-.06 0zM243.48 215.13l-.06 0a.09.09 0 010-.12l1.89-2a.08.08 0 01.12.12l-1.89 2z" class="colorfff svgShape"/>
    <path fill="#ffffff" d="M243.79 215.15h0a.09.09 0 01-.08-.09v-.25l-.25 0a.1.1 0 01-.09-.08.08.08 0 01.08-.09l.34 0 .06 0a.09.09 0 010 .06v.34A.09.09 0 01243.79 215.15zM245.06 213.5l-.06 0a.09.09 0 010-.07v-.33a.09.09 0 01.08-.09h0a.09.09 0 01.09.09v.25l.25 0c.05 0 .09 0 .09.08a.08.08 0 01-.08.09l-.34 0zM245.4 215.1l-.05 0-2-1.9a.07.07 0 010-.12.08.08 0 01.11 0l2 1.9a.08.08 0 010 .12z" class="colorfff svgShape"/>
    <path fill="#ffffff" d="M245.1 215.12A.08.08 0 01245 215v-.33a.06.06 0 010-.07l.06 0h.34a.08.08 0 01.08.09.09.09 0 01-.08.08h-.25V215a.08.08 0 01-.08.08zM243.77 213.52h-.34a.09.09 0 01-.08-.09c0-.05 0-.09.08-.08h.25v-.25a.09.09 0 01.08-.09.1.1 0 01.09.08v.34a.08.08 0 010 .07zM159.3 139.87a.09.09 0 01-.08-.09.09.09 0 01.08-.08l2.73 0h0a.09.09 0 01.08.08.08.08 0 01-.08.09l-2.72.05z" class="colorfff svgShape"/>
    <path fill="#ffffff" d="M159.51 140.09l-.06 0a.09.09 0 010-.12l.18-.17-.18-.17a.08.08 0 010-.12.09.09 0 01.12 0l.25.23a.09.09 0 010 .06.06.06 0 010 .06l-.24.24A.07.07 0 01159.51 140.09zM161.83 140.05a.07.07 0 01-.06 0l-.25-.23a.06.06 0 010-.06.09.09 0 010-.06l.24-.23a.08.08 0 01.12 0 .09.09 0 010 .12l-.18.17.18.17a.08.08 0 010 .12zM160.69 141.2a.09.09 0 01-.09-.08l0-2.72a.08.08 0 01.08-.09h0a.09.09 0 01.09.09l0 2.72a.08.08 0 01-.08.08z" class="colorfff svgShape"/>
    <path fill="#ffffff" d="M160.45 141s0 0 0 0a.08.08 0 010-.12l.23-.25s0 0 .06 0a.07.07 0 01.06 0l.24.24a.08.08 0 11-.12.12l-.18-.18-.16.19zM160.65 138.93l-.06 0-.24-.25a.08.08 0 010-.12.07.07 0 01.11 0l.18.18.17-.19a.08.08 0 01.11 0 .08.08 0 010 .12l-.23.25a.06.06 0 01-.06 0zM159.72 140.82l-.06 0a.09.09 0 010-.12l1.89-2a.08.08 0 11.12.12l-1.89 2z" class="colorfff svgShape"/>
    <path fill="#ffffff" d="M160 140.84h0c-.05 0-.09 0-.09-.09v-.25h-.25a.08.08 0 01-.09-.08.08.08 0 01.08-.08l.34 0s0 0 .06 0a.09.09 0 010 .06v.34A.09.09 0 01160 140.84zM161.3 139.19a.09.09 0 01-.06 0 .06.06 0 010-.06v-.34a.09.09 0 01.08-.08h0a.09.09 0 01.08.09V139l.25 0s.09 0 .09.08a.08.08 0 01-.08.09l-.34 0zM161.64 140.79a.05.05 0 010 0l-2-1.89a.08.08 0 010-.12.09.09 0 01.12 0l1.95 1.89a.07.07 0 010 .12A.06.06 0 01161.64 140.79z" class="colorfff svgShape"/>
    <path fill="#ffffff" d="M161.34 140.81a.09.09 0 01-.09-.08v-.34s0 0 0-.06l.06 0h.34a.08.08 0 01.08.09.09.09 0 01-.08.08h-.25v.25a.08.08 0 01-.08.08zM160 139.21h-.34a.08.08 0 010-.16h.25v-.25a.09.09 0 01.08-.09h0a.09.09 0 01.09.08l0 .34a.11.11 0 01-.09.09z" class="colorfff svgShape"/>
    <path fill="#ffd93b" d="M170.54 37.52c.4-2 .76-4 1.06-6.06.12-.82-1.14-1.17-1.26-.34a189.6 189.6 0 01-6 25.18c-1.36 4.64-2.71 9.29-4.2 13.9l-.2.54c-4.42 11.15-10.41 22.12-18.66 30.92a68.26 68.26 0 01-5.76 5.52 39 39 0 01-6.46 4.33 30.37 30.37 0 01-15 3.67 24.44 24.44 0 01-14-4.36 30.94 30.94 0 01-9-10.8 85.86 85.86 0 01-6.45-16.21 89.67 89.67 0 01-3.46-19.64c-.1-1.62-.16-3.25-.2-4.88a0 0 0 000 0 84.69 84.69 0 002.17 19.94A98.1 98.1 0 0089 97.29a39.58 39.58 0 007.89 12.22A23.21 23.21 0 00109.62 116a31.3 31.3 0 0015.93-1.53 41.53 41.53 0 0013.23-8.58A80 80 0 00154.67 85c-.46 1.09-.94 2.17-1.43 3.25a107.06 107.06 0 01-8 14.57A62.24 62.24 0 01135 115a38.44 38.44 0 01-12.77 7.76 31.53 31.53 0 01-16.1 1.46c-6.51-1.2-12.1-5-16.62-9.73a63.26 63.26 0 01-6.31-7.74A75.58 75.58 0 0178 98.19a66.51 66.51 0 01-4.44-11.66c-.59-2-1.14-4-1.7-5.92a22.75 22.75 0 01-1.09-6c0-1.73.16-3.44-.7-5 0-.09-.17 0-.13.07 1 1.88.5 4 .65 6.06a29.41 29.41 0 001.21 5.72c1.15 4 2.2 8 3.68 11.94a58.37 58.37 0 005 10 80.18 80.18 0 005.63 8.06c4.08 5.1 9.09 9.75 15.21 12.24a24 24 0 009.23 1.9 43.92 43.92 0 008-.62 35.11 35.11 0 0013.87-6.26 55.08 55.08 0 0011.18-11.28 91.36 91.36 0 008.76-14.34 146.77 146.77 0 006.57-15.32q1.47-4 2.77-8.09A200.56 200.56 0 00170.23 39c.08-.38.17-.75.24-1.13a2.38 2.38 0 00.05-.26v-.07zM338.11 143.33a71.42 71.42 0 01-7.85 12.2 40.15 40.15 0 01-11 10.06 18.52 18.52 0 01-13.55 2.31 14.68 14.68 0 01-6.95-3.74 31.65 31.65 0 01-5-6.54 82.4 82.4 0 01-4.13-7.62c-.81-1.69-1.55-3.41-2.24-5.14s-1.33-3.25-1.85-4.93-1-3.36-1.49-5-1.07-3.4-1.57-5.11c-1.05-3.53-2-7.09-2.94-10.66q-2.79-10.6-6-21.07c-1.08-3.5-2.13-7-3-10.57s-1.67-7.2-2.43-10.81c-1.49-7.19-2.85-14.42-4.56-21.57q-1.28-5.34-2.83-10.62c-.51-1.68-1.07-3.35-1.59-5-.34-1.11-.51-2.26-.77-3.38a5.16 5.16 0 00-1.05-2.59c-.59-.57-1.48.33-.9.9a2.4 2.4 0 01.48 1.08c.17.6.29 1.21.41 1.81a37.08 37.08 0 00.92 3.63q1.69 5.28 3.09 10.63c1.89 7.28 3.33 14.67 4.83 22s3.08 14.58 5.23 21.73 4.35 14.21 6.26 21.4c1 3.65 1.92 7.3 2.95 10.93s2 7.06 3.26 10.45 2.32 6.71 3.71 10a80.28 80.28 0 004.24 8.51c2.62 4.59 5.92 9.65 11 11.69a19 19 0 0014.31-.22 31.84 31.84 0 0011.65-9A66.76 66.76 0 00337 146.52c.52-1 1-2 1.5-3C338.62 143.3 338.24 143.08 338.11 143.33z" class="colorffd93b svgShape"/>
  </g>
</svg>
